<svg xmlns="http://www.w3.org/2000/svg" viewBox="0 0 1000 1400" width="1000" height="1400" font-family="sans-serif">
  <rect x="0" y="0" width="1000" height="1400" fill="#eef2f4"/>
  <rect x="50" y="60" width="900" height="1240" rx="8" fill="#f8fafb" stroke="#2b3b42" stroke-width="8"/>

  <!-- vertical divider -->
  <line x1="655" y1="70" x2="655" y2="1290" stroke="#c4ced3" stroke-width="3" stroke-dasharray="10 8"/>

  <!-- open below (big void with X) -->
  <rect x="70" y="80" width="565" height="1200" rx="6" fill="#f0f3f5" stroke="#b3c0c6" stroke-width="2" stroke-dasharray="10 8"/>
  <g stroke="#cdd9de" stroke-width="2" stroke-dasharray="6 8">
    <line x1="70" y1="80" x2="635" y2="1280"/>
    <line x1="635" y1="80" x2="70" y2="1280"/>
  </g>
  <text x="352" y="682" text-anchor="middle" font-size="26" font-weight="700" fill="#7a868c" letter-spacing="1">OPEN</text>
  <text x="352" y="716" text-anchor="middle" font-size="26" font-weight="700" fill="#7a868c" letter-spacing="1">BELOW</text>

  <!-- airwell -->
  <rect x="80" y="90" width="130" height="100" rx="4" fill="#f8fafb" stroke="#b3c0c6" stroke-width="2" stroke-dasharray="8 6"/>
  <text x="145" y="146" text-anchor="middle" font-size="15" font-weight="600" fill="#859399">AIRWELL</text>

  <!-- fire exit -->
  <rect x="770" y="75" width="180" height="95" rx="4" fill="#f3e7e7" stroke="#c9a4a4" stroke-width="2"/>
  <text x="860" y="130" text-anchor="middle" font-size="16" font-weight="700" fill="#a15a5a">F.E.</text>

  <!-- bleachers top -->
  <rect x="675" y="190" width="275" height="360" rx="4" fill="#e4eef1" stroke="#9fb3ba" stroke-width="2"/>
  <g stroke="#c4d3d9" stroke-width="2">
    <line x1="675" y1="250" x2="950" y2="250"/>
    <line x1="675" y1="310" x2="950" y2="310"/>
    <line x1="675" y1="370" x2="950" y2="370"/>
    <line x1="675" y1="430" x2="950" y2="430"/>
    <line x1="675" y1="490" x2="950" y2="490"/>
  </g>
  <text x="812" y="378" text-anchor="middle" font-size="18" font-weight="700" fill="#3e4f57">BLEACHERS AREA</text>

  <!-- machine room -->
  <rect x="760" y="580" width="150" height="120" rx="4" fill="#ffffff" stroke="#b3c0c6" stroke-width="2"/>
  <text x="835" y="634" text-anchor="middle" font-size="15" font-weight="600" fill="#55636b">MACHINE</text>
  <text x="835" y="654" text-anchor="middle" font-size="15" font-weight="600" fill="#55636b">ROOM</text>

  <!-- stairs -->
  <g stroke="#8fa9b3" stroke-width="2">
    <rect x="700" y="740" width="200" height="160" rx="4" fill="#e7eef1"/>
    <line x1="700" y1="772" x2="900" y2="772"/>
    <line x1="700" y1="804" x2="900" y2="804"/>
    <line x1="700" y1="836" x2="900" y2="836"/>
    <line x1="700" y1="868" x2="900" y2="868"/>
  </g>
  <text x="800" y="826" text-anchor="middle" font-size="15" font-weight="600" fill="#5a6d75">STAIRS</text>

  <!-- bleachers bottom -->
  <rect x="675" y="940" width="275" height="340" rx="4" fill="#e4eef1" stroke="#9fb3ba" stroke-width="2"/>
  <g stroke="#c4d3d9" stroke-width="2">
    <line x1="675" y1="1000" x2="950" y2="1000"/>
    <line x1="675" y1="1060" x2="950" y2="1060"/>
    <line x1="675" y1="1120" x2="950" y2="1120"/>
    <line x1="675" y1="1180" x2="950" y2="1180"/>
    <line x1="675" y1="1240" x2="950" y2="1240"/>
  </g>
  <text x="812" y="1116" text-anchor="middle" font-size="18" font-weight="700" fill="#3e4f57">BLEACHERS AREA</text>
</svg>
