<svg width="1000" height="1400" viewBox="0 0 1000 1400" fill="none" xmlns="http://www.w3.org/2000/svg">
<g clip-path="url(#clip0_564_173)">
<path d="M1000 0H0V1400H1000V0Z" fill="#EEF2F4"/>
<path d="M942 60H58C53.5817 60 50 63.5817 50 68V1292C50 1296.42 53.5817 1300 58 1300H942C946.418 1300 950 1296.42 950 1292V68C950 63.5817 946.418 60 942 60Z" fill="#F8FAFB" stroke="#2B3B42" stroke-width="8"/>
<path d="M185.968 75.2067H73.8245C71.6125 75.2067 69.8193 76.8581 69.8193 78.8952V159.121C69.8193 161.159 71.6125 162.81 73.8245 162.81H185.968C188.18 162.81 189.974 161.159 189.974 159.121V78.8952C189.974 76.8581 188.18 75.2067 185.968 75.2067Z" stroke="#B3C0C6" stroke-width="2" stroke-dasharray="8 6"/>
<path d="M101.366 128H99.0587L102.574 117.818H105.348L108.858 128H106.551L104 120.145H103.921L101.366 128ZM101.221 123.998H106.67V125.678H101.221V123.998ZM112.236 117.818V128H110.083V117.818H112.236ZM114.007 128V117.818H118.024C118.793 117.818 119.449 117.956 119.993 118.231C120.54 118.503 120.956 118.889 121.241 119.389C121.529 119.886 121.673 120.471 121.673 121.144C121.673 121.82 121.527 122.402 121.236 122.889C120.944 123.373 120.521 123.744 119.968 124.003C119.418 124.261 118.752 124.391 117.969 124.391H115.28V122.661H117.621C118.032 122.661 118.374 122.604 118.646 122.491C118.917 122.379 119.119 122.21 119.252 121.984C119.388 121.759 119.456 121.479 119.456 121.144C119.456 120.806 119.388 120.521 119.252 120.289C119.119 120.057 118.916 119.881 118.641 119.762C118.369 119.639 118.026 119.578 117.611 119.578H116.16V128H114.007ZM119.506 123.366L122.036 128H119.66L117.184 123.366H119.506ZM125.486 128L122.573 117.818H124.925L126.61 124.893H126.695L128.554 117.818H130.567L132.422 124.908H132.511L134.197 117.818H136.548L133.635 128H131.537L129.598 121.343H129.518L127.584 128H125.486ZM137.7 128V117.818H144.561V119.593H139.853V122.019H144.208V123.794H139.853V126.225H144.581V128H137.7ZM146.273 128V117.818H148.425V126.225H152.79V128H146.273ZM154.216 128V117.818H156.369V126.225H160.734V128H154.216Z" fill="#859399"/>
<path d="M306 75H209C206.791 75 205 76.7909 205 79V166C205 168.209 206.791 170 209 170H306C308.209 170 310 168.209 310 166V79C310 76.7909 308.209 75 306 75Z" fill="white" stroke="#B3C0C6" stroke-width="2"/>
<path d="M220.546 118V109.273H226.426V110.794H222.391V112.874H226.124V114.395H222.391V116.479H226.443V118H220.546ZM227.893 118V109.273H229.738V116.479H233.48V118H227.893ZM234.702 118V109.273H240.583V110.794H236.547V112.874H240.28V114.395H236.547V116.479H240.6V118H234.702ZM249.75 112.328H247.883C247.849 112.087 247.78 111.872 247.675 111.685C247.569 111.494 247.434 111.332 247.27 111.199C247.105 111.065 246.915 110.963 246.699 110.892C246.486 110.821 246.254 110.786 246.004 110.786C245.552 110.786 245.159 110.898 244.824 111.122C244.488 111.344 244.229 111.668 244.044 112.094C243.859 112.517 243.767 113.031 243.767 113.636C243.767 114.259 243.859 114.781 244.044 115.205C244.231 115.628 244.493 115.947 244.828 116.163C245.163 116.379 245.551 116.487 245.991 116.487C246.238 116.487 246.467 116.455 246.677 116.389C246.89 116.324 247.079 116.229 247.244 116.104C247.409 115.976 247.545 115.821 247.653 115.639C247.764 115.457 247.841 115.25 247.883 115.017L249.75 115.026C249.702 115.426 249.581 115.812 249.388 116.185C249.197 116.554 248.94 116.885 248.616 117.178C248.295 117.467 247.912 117.697 247.466 117.868C247.023 118.036 246.521 118.119 245.961 118.119C245.183 118.119 244.487 117.943 243.873 117.591C243.263 117.239 242.78 116.729 242.425 116.061C242.072 115.393 241.896 114.585 241.896 113.636C241.896 112.685 242.075 111.875 242.433 111.207C242.791 110.54 243.277 110.031 243.89 109.682C244.504 109.33 245.194 109.153 245.961 109.153C246.467 109.153 246.936 109.224 247.368 109.366C247.802 109.509 248.187 109.716 248.523 109.989C248.858 110.259 249.131 110.589 249.341 110.982C249.554 111.374 249.69 111.822 249.75 112.328ZM250.741 110.794V109.273H257.908V110.794H255.236V118H253.412V110.794H250.741ZM259.089 118V109.273H262.532C263.191 109.273 263.753 109.391 264.219 109.626C264.688 109.859 265.045 110.19 265.289 110.619C265.536 111.045 265.66 111.547 265.66 112.124C265.66 112.703 265.535 113.202 265.285 113.619C265.035 114.034 264.672 114.352 264.198 114.574C263.726 114.795 263.155 114.906 262.485 114.906H260.18V113.423H262.187C262.539 113.423 262.831 113.375 263.064 113.278C263.297 113.182 263.471 113.037 263.584 112.844C263.701 112.651 263.759 112.411 263.759 112.124C263.759 111.834 263.701 111.589 263.584 111.391C263.471 111.192 263.296 111.041 263.06 110.939C262.827 110.834 262.533 110.781 262.178 110.781H260.934V118H259.089ZM263.802 114.028L265.971 118H263.934L261.812 114.028H263.802ZM268.809 109.273V118H266.964V109.273H268.809ZM278.027 112.328H276.161C276.127 112.087 276.057 111.872 275.952 111.685C275.847 111.494 275.712 111.332 275.547 111.199C275.382 111.065 275.192 110.963 274.976 110.892C274.763 110.821 274.531 110.786 274.281 110.786C273.83 110.786 273.436 110.898 273.101 111.122C272.766 111.344 272.506 111.668 272.321 112.094C272.137 112.517 272.044 113.031 272.044 113.636C272.044 114.259 272.137 114.781 272.321 115.205C272.509 115.628 272.77 115.947 273.105 116.163C273.441 116.379 273.828 116.487 274.269 116.487C274.516 116.487 274.744 116.455 274.955 116.389C275.168 116.324 275.357 116.229 275.521 116.104C275.686 115.976 275.823 115.821 275.931 115.639C276.041 115.457 276.118 115.25 276.161 115.017L278.027 115.026C277.979 115.426 277.858 115.812 277.665 116.185C277.475 116.554 277.218 116.885 276.894 117.178C276.573 117.467 276.189 117.697 275.743 117.868C275.3 118.036 274.798 118.119 274.239 118.119C273.46 118.119 272.764 117.943 272.151 117.591C271.54 117.239 271.057 116.729 270.702 116.061C270.35 115.393 270.173 114.585 270.173 113.636C270.173 112.685 270.352 111.875 270.71 111.207C271.068 110.54 271.554 110.031 272.168 109.682C272.781 109.33 273.472 109.153 274.239 109.153C274.744 109.153 275.213 109.224 275.645 109.366C276.08 109.509 276.465 109.716 276.8 109.989C277.135 110.259 277.408 110.589 277.618 110.982C277.831 111.374 277.968 111.822 278.027 112.328ZM280.691 118H278.713L281.726 109.273H284.104L287.112 118H285.135L282.949 111.267H282.881L280.691 118ZM280.567 114.57H285.237V116.01H280.567V114.57ZM288.163 118V109.273H290.008V116.479H293.749V118H288.163Z" fill="#55636B"/>
<path d="M238.944 136V127.273H242.387C243.046 127.273 243.609 127.391 244.075 127.626C244.544 127.859 244.9 128.19 245.144 128.619C245.392 129.045 245.515 129.547 245.515 130.124C245.515 130.703 245.39 131.202 245.14 131.619C244.89 132.034 244.528 132.352 244.053 132.574C243.582 132.795 243.011 132.906 242.34 132.906H240.035V131.423H242.042C242.394 131.423 242.687 131.375 242.92 131.278C243.153 131.182 243.326 131.037 243.44 130.844C243.556 130.651 243.615 130.411 243.615 130.124C243.615 129.834 243.556 129.589 243.44 129.391C243.326 129.192 243.151 129.041 242.916 128.939C242.683 128.834 242.389 128.781 242.034 128.781H240.789V136H238.944ZM243.657 132.028L245.826 136H243.789L241.667 132.028H243.657ZM254.839 131.636C254.839 132.588 254.659 133.398 254.298 134.065C253.94 134.733 253.451 135.243 252.832 135.595C252.215 135.945 251.522 136.119 250.752 136.119C249.977 136.119 249.281 135.943 248.664 135.591C248.048 135.239 247.561 134.729 247.203 134.061C246.845 133.393 246.666 132.585 246.666 131.636C246.666 130.685 246.845 129.875 247.203 129.207C247.561 128.54 248.048 128.031 248.664 127.682C249.281 127.33 249.977 127.153 250.752 127.153C251.522 127.153 252.215 127.33 252.832 127.682C253.451 128.031 253.94 128.54 254.298 129.207C254.659 129.875 254.839 130.685 254.839 131.636ZM252.968 131.636C252.968 131.02 252.876 130.5 252.691 130.077C252.509 129.653 252.252 129.332 251.92 129.114C251.588 128.895 251.198 128.786 250.752 128.786C250.306 128.786 249.917 128.895 249.585 129.114C249.252 129.332 248.994 129.653 248.809 130.077C248.627 130.5 248.536 131.02 248.536 131.636C248.536 132.253 248.627 132.773 248.809 133.196C248.994 133.619 249.252 133.94 249.585 134.159C249.917 134.378 250.306 134.487 250.752 134.487C251.198 134.487 251.588 134.378 251.92 134.159C252.252 133.94 252.509 133.619 252.691 133.196C252.876 132.773 252.968 132.253 252.968 131.636ZM264.226 131.636C264.226 132.588 264.045 133.398 263.684 134.065C263.327 134.733 262.838 135.243 262.219 135.595C261.602 135.945 260.909 136.119 260.139 136.119C259.363 136.119 258.667 135.943 258.051 135.591C257.434 135.239 256.947 134.729 256.589 134.061C256.231 133.393 256.052 132.585 256.052 131.636C256.052 130.685 256.231 129.875 256.589 129.207C256.947 128.54 257.434 128.031 258.051 127.682C258.667 127.33 259.363 127.153 260.139 127.153C260.909 127.153 261.602 127.33 262.219 127.682C262.838 128.031 263.327 128.54 263.684 129.207C264.045 129.875 264.226 130.685 264.226 131.636ZM262.355 131.636C262.355 131.02 262.263 130.5 262.078 130.077C261.896 129.653 261.639 129.332 261.307 129.114C260.974 128.895 260.585 128.786 260.139 128.786C259.693 128.786 259.304 128.895 258.971 129.114C258.639 129.332 258.381 129.653 258.196 130.077C258.014 130.5 257.923 131.02 257.923 131.636C257.923 132.253 258.014 132.773 258.196 133.196C258.381 133.619 258.639 133.94 258.971 134.159C259.304 134.378 259.693 134.487 260.139 134.487C260.585 134.487 260.974 134.378 261.307 134.159C261.639 133.94 261.896 133.619 262.078 133.196C262.263 132.773 262.355 132.253 262.355 131.636ZM265.593 127.273H267.868L270.271 133.136H270.374L272.777 127.273H275.053V136H273.263V130.32H273.191L270.932 135.957H269.713L267.455 130.298H267.382V136H265.593V127.273Z" fill="#55636B"/>
<path d="M396 75H324C321.791 75 320 76.7909 320 79V166C320 168.209 321.791 170 324 170H396C398.209 170 400 168.209 400 166V79C400 76.7909 398.209 75 396 75Z" fill="white" stroke="#B3C0C6" stroke-width="2"/>
<path d="M334.832 116.794V115.273H342V116.794H339.328V124H337.504V116.794H334.832ZM350.802 119.636C350.802 120.588 350.621 121.398 350.261 122.065C349.903 122.733 349.414 123.243 348.795 123.595C348.178 123.945 347.485 124.119 346.715 124.119C345.94 124.119 345.244 123.943 344.627 123.591C344.011 123.239 343.523 122.729 343.165 122.061C342.808 121.393 342.629 120.585 342.629 119.636C342.629 118.685 342.808 117.875 343.165 117.207C343.523 116.54 344.011 116.031 344.627 115.682C345.244 115.33 345.94 115.153 346.715 115.153C347.485 115.153 348.178 115.33 348.795 115.682C349.414 116.031 349.903 116.54 350.261 117.207C350.621 117.875 350.802 118.685 350.802 119.636ZM348.931 119.636C348.931 119.02 348.839 118.5 348.654 118.077C348.472 117.653 348.215 117.332 347.883 117.114C347.55 116.895 347.161 116.786 346.715 116.786C346.269 116.786 345.88 116.895 345.548 117.114C345.215 117.332 344.957 117.653 344.772 118.077C344.59 118.5 344.499 119.02 344.499 119.636C344.499 120.253 344.59 120.773 344.772 121.196C344.957 121.619 345.215 121.94 345.548 122.159C345.88 122.378 346.269 122.487 346.715 122.487C347.161 122.487 347.55 122.378 347.883 122.159C348.215 121.94 348.472 121.619 348.654 121.196C348.839 120.773 348.931 120.253 348.931 119.636ZM354.014 115.273V124H352.169V115.273H354.014ZM355.532 124V115.273H357.377V122.479H361.119V124H355.532ZM362.341 124V115.273H368.221V116.794H364.186V118.874H367.919V120.395H364.186V122.479H368.238V124H362.341ZM369.356 116.794V115.273H376.523V116.794H373.852V124H372.028V116.794H369.356ZM384.227 115.273V124H382.382V117.024H382.331L380.332 118.277V116.641L382.493 115.273H384.227Z" fill="#55636B"/>
<path d="M486 75H414C411.791 75 410 76.7909 410 79V166C410 168.209 411.791 170 414 170H486C488.209 170 490 168.209 490 166V79C490 76.7909 488.209 75 486 75Z" fill="white" stroke="#B3C0C6" stroke-width="2"/>
<path d="M423.989 116.794V115.273H431.156V116.794H428.484V124H426.661V116.794H423.989ZM439.958 119.636C439.958 120.588 439.778 121.398 439.417 122.065C439.059 122.733 438.57 123.243 437.951 123.595C437.335 123.945 436.641 124.119 435.871 124.119C435.096 124.119 434.4 123.943 433.783 123.591C433.167 123.239 432.68 122.729 432.322 122.061C431.964 121.393 431.785 120.585 431.785 119.636C431.785 118.685 431.964 117.875 432.322 117.207C432.68 116.54 433.167 116.031 433.783 115.682C434.4 115.33 435.096 115.153 435.871 115.153C436.641 115.153 437.335 115.33 437.951 115.682C438.57 116.031 439.059 116.54 439.417 117.207C439.778 117.875 439.958 118.685 439.958 119.636ZM438.087 119.636C438.087 119.02 437.995 118.5 437.81 118.077C437.629 117.653 437.371 117.332 437.039 117.114C436.707 116.895 436.317 116.786 435.871 116.786C435.425 116.786 435.036 116.895 434.704 117.114C434.371 117.332 434.113 117.653 433.928 118.077C433.746 118.5 433.656 119.02 433.656 119.636C433.656 120.253 433.746 120.773 433.928 121.196C434.113 121.619 434.371 121.94 434.704 122.159C435.036 122.378 435.425 122.487 435.871 122.487C436.317 122.487 436.707 122.378 437.039 122.159C437.371 121.94 437.629 121.619 437.81 121.196C437.995 120.773 438.087 120.253 438.087 119.636ZM443.17 115.273V124H441.325V115.273H443.17ZM444.688 124V115.273H446.533V122.479H450.275V124H444.688ZM451.497 124V115.273H457.377V116.794H453.342V118.874H457.075V120.395H453.342V122.479H457.395V124H451.497ZM458.512 116.794V115.273H465.68V116.794H463.008V124H461.184V116.794H458.512ZM469.586 124V122.67L472.693 119.794C472.957 119.538 473.179 119.308 473.358 119.104C473.539 118.899 473.677 118.699 473.771 118.503C473.865 118.304 473.912 118.089 473.912 117.859C473.912 117.604 473.853 117.384 473.737 117.199C473.62 117.011 473.461 116.868 473.26 116.768C473.058 116.666 472.829 116.615 472.574 116.615C472.306 116.615 472.074 116.669 471.875 116.777C471.676 116.885 471.522 117.04 471.414 117.241C471.306 117.443 471.252 117.683 471.252 117.962H469.501C469.501 117.391 469.63 116.895 469.889 116.474C470.147 116.054 470.51 115.729 470.975 115.499C471.441 115.268 471.978 115.153 472.586 115.153C473.211 115.153 473.755 115.264 474.218 115.486C474.684 115.705 475.047 116.009 475.305 116.398C475.564 116.787 475.693 117.233 475.693 117.736C475.693 118.065 475.627 118.391 475.497 118.712C475.369 119.033 475.14 119.389 474.811 119.781C474.481 120.17 474.017 120.638 473.417 121.183L472.143 122.432V122.491H475.808V124H469.586Z" fill="#55636B"/>
<path d="M576 75H504C501.791 75 500 76.7909 500 79V166C500 168.209 501.791 170 504 170H576C578.209 170 580 168.209 580 166V79C580 76.7909 578.209 75 576 75Z" fill="white" stroke="#B3C0C6" stroke-width="2"/>
<path d="M513.813 116.794V115.273H520.98V116.794H518.309V124H516.485V116.794H513.813ZM529.782 119.636C529.782 120.588 529.602 121.398 529.241 122.065C528.883 122.733 528.395 123.243 527.775 123.595C527.159 123.945 526.466 124.119 525.696 124.119C524.92 124.119 524.224 123.943 523.608 123.591C522.991 123.239 522.504 122.729 522.146 122.061C521.788 121.393 521.609 120.585 521.609 119.636C521.609 118.685 521.788 117.875 522.146 117.207C522.504 116.54 522.991 116.031 523.608 115.682C524.224 115.33 524.92 115.153 525.696 115.153C526.466 115.153 527.159 115.33 527.775 115.682C528.395 116.031 528.883 116.54 529.241 117.207C529.602 117.875 529.782 118.685 529.782 119.636ZM527.912 119.636C527.912 119.02 527.819 118.5 527.635 118.077C527.453 117.653 527.196 117.332 526.863 117.114C526.531 116.895 526.142 116.786 525.696 116.786C525.25 116.786 524.86 116.895 524.528 117.114C524.196 117.332 523.937 117.653 523.752 118.077C523.571 118.5 523.48 119.02 523.48 119.636C523.48 120.253 523.571 120.773 523.752 121.196C523.937 121.619 524.196 121.94 524.528 122.159C524.86 122.378 525.25 122.487 525.696 122.487C526.142 122.487 526.531 122.378 526.863 122.159C527.196 121.94 527.453 121.619 527.635 121.196C527.819 120.773 527.912 120.253 527.912 119.636ZM532.994 115.273V124H531.149V115.273H532.994ZM534.512 124V115.273H536.358V122.479H540.099V124H534.512ZM541.321 124V115.273H547.202V116.794H543.166V118.874H546.899V120.395H543.166V122.479H547.219V124H541.321ZM548.336 116.794V115.273H555.504V116.794H552.832V124H551.008V116.794H548.336ZM562.636 124.119C562 124.119 561.433 124.01 560.936 123.791C560.442 123.57 560.051 123.266 559.764 122.879C559.48 122.49 559.334 122.041 559.325 121.533H561.183C561.195 121.746 561.264 121.933 561.392 122.095C561.523 122.254 561.696 122.378 561.912 122.466C562.128 122.554 562.371 122.598 562.641 122.598C562.922 122.598 563.17 122.548 563.386 122.449C563.602 122.349 563.771 122.212 563.893 122.036C564.016 121.859 564.077 121.656 564.077 121.426C564.077 121.193 564.011 120.987 563.881 120.808C563.753 120.626 563.568 120.484 563.327 120.382C563.088 120.28 562.804 120.229 562.474 120.229H561.661V118.874H562.474C562.753 118.874 562.999 118.825 563.212 118.729C563.428 118.632 563.595 118.499 563.714 118.328C563.834 118.155 563.893 117.953 563.893 117.723C563.893 117.504 563.841 117.312 563.736 117.148C563.634 116.98 563.489 116.849 563.301 116.756C563.116 116.662 562.901 116.615 562.653 116.615C562.403 116.615 562.175 116.661 561.967 116.751C561.76 116.839 561.594 116.966 561.469 117.131C561.344 117.295 561.277 117.489 561.268 117.71H559.5C559.509 117.207 559.652 116.764 559.93 116.381C560.209 115.997 560.584 115.697 561.055 115.482C561.53 115.263 562.065 115.153 562.662 115.153C563.264 115.153 563.791 115.263 564.243 115.482C564.695 115.7 565.045 115.996 565.295 116.368C565.548 116.737 565.673 117.152 565.67 117.612C565.673 118.101 565.521 118.509 565.214 118.835C564.911 119.162 564.514 119.369 564.026 119.457V119.526C564.668 119.608 565.156 119.831 565.491 120.195C565.83 120.555 565.997 121.007 565.994 121.55C565.997 122.047 565.854 122.489 565.564 122.875C565.277 123.261 564.881 123.565 564.375 123.787C563.869 124.009 563.29 124.119 562.636 124.119Z" fill="#55636B"/>
<path d="M666 75H594C591.791 75 590 76.7909 590 79V166C590 168.209 591.791 170 594 170H666C668.209 170 670 168.209 670 166V79C670 76.7909 668.209 75 666 75Z" fill="white" stroke="#B3C0C6" stroke-width="2"/>
<path d="M603.702 116.794V115.273H610.869V116.794H608.197V124H606.373V116.794H603.702ZM619.671 119.636C619.671 120.588 619.491 121.398 619.13 122.065C618.772 122.733 618.283 123.243 617.664 123.595C617.047 123.945 616.354 124.119 615.584 124.119C614.809 124.119 614.113 123.943 613.496 123.591C612.88 123.239 612.393 122.729 612.035 122.061C611.677 121.393 611.498 120.585 611.498 119.636C611.498 118.685 611.677 117.875 612.035 117.207C612.393 116.54 612.88 116.031 613.496 115.682C614.113 115.33 614.809 115.153 615.584 115.153C616.354 115.153 617.047 115.33 617.664 115.682C618.283 116.031 618.772 116.54 619.13 117.207C619.491 117.875 619.671 118.685 619.671 119.636ZM617.8 119.636C617.8 119.02 617.708 118.5 617.523 118.077C617.341 117.653 617.084 117.332 616.752 117.114C616.42 116.895 616.03 116.786 615.584 116.786C615.138 116.786 614.749 116.895 614.417 117.114C614.084 117.332 613.826 117.653 613.641 118.077C613.459 118.5 613.368 119.02 613.368 119.636C613.368 120.253 613.459 120.773 613.641 121.196C613.826 121.619 614.084 121.94 614.417 122.159C614.749 122.378 615.138 122.487 615.584 122.487C616.03 122.487 616.42 122.378 616.752 122.159C617.084 121.94 617.341 121.619 617.523 121.196C617.708 120.773 617.8 120.253 617.8 119.636ZM622.883 115.273V124H621.038V115.273H622.883ZM624.401 124V115.273H626.246V122.479H629.988V124H624.401ZM631.21 124V115.273H637.09V116.794H633.055V118.874H636.788V120.395H633.055V122.479H637.107V124H631.21ZM638.225 116.794V115.273H645.393V116.794H642.721V124H640.897V116.794H638.225ZM649.167 122.466V121.013L652.811 115.273H654.063V117.284H653.322L651.025 120.919V120.987H656.203V122.466H649.167ZM653.356 124V122.023L653.39 121.379V115.273H655.12V124H653.356Z" fill="#55636B"/>
<path d="M942.832 75.2067H693.052C689.166 75.2067 686.016 76.9983 686.016 79.2084V166.246C686.016 168.456 689.166 170.248 693.052 170.248H942.832C946.718 170.248 949.868 168.456 949.868 166.246V79.2084C949.868 76.9983 946.718 75.2067 942.832 75.2067Z" fill="#F3E7E7" stroke="#C9A4A4" stroke-width="2"/>
<path d="M841.143 127V116.091H848.366V117.993H843.45V120.592H847.887V122.494H843.45V127H841.143ZM852.224 116.091V127H849.918V116.091H852.224ZM854.122 127V116.091H858.426C859.25 116.091 859.953 116.238 860.535 116.533C861.121 116.824 861.567 117.238 861.872 117.774C862.181 118.307 862.336 118.934 862.336 119.654C862.336 120.379 862.18 121.002 861.867 121.524C861.555 122.043 861.102 122.44 860.509 122.717C859.919 122.994 859.205 123.133 858.367 123.133H855.486V121.279H857.994C858.435 121.279 858.801 121.219 859.092 121.098C859.383 120.977 859.6 120.796 859.742 120.555C859.887 120.313 859.96 120.013 859.96 119.654C859.96 119.292 859.887 118.987 859.742 118.738C859.6 118.49 859.381 118.301 859.086 118.174C858.795 118.042 858.428 117.977 857.984 117.977H856.428V127H854.122ZM860.013 122.036L862.725 127H860.178L857.526 122.036H860.013ZM863.966 127V116.091H871.317V117.993H866.272V120.592H870.938V122.494H866.272V125.098H871.338V127H863.966ZM876.622 127V116.091H883.973V117.993H878.928V120.592H883.595V122.494H878.928V125.098H883.994V127H876.622ZM887.969 116.091L890.169 119.809H890.254L892.465 116.091H895.07L891.741 121.545L895.144 127H892.492L890.254 123.277H890.169L887.932 127H885.29L888.704 121.545L885.354 116.091H887.969ZM898.836 116.091V127H896.529V116.091H898.836ZM900.318 117.993V116.091H909.277V117.993H905.938V127H903.658V117.993H900.318Z" fill="#A15A5A"/>
<path d="M201.382 178.512H73.8365C71.6179 178.512 69.8193 179.791 69.8193 181.367V254.17C69.8193 255.747 71.6179 257.025 73.8365 257.025H201.382C203.6 257.025 205.399 255.747 205.399 254.17V181.367C205.399 179.791 203.6 178.512 201.382 178.512Z" fill="white" stroke="#B3C0C6" stroke-width="2"/>
<path d="M122.977 209.19C122.932 208.731 122.737 208.375 122.392 208.121C122.048 207.868 121.58 207.741 120.989 207.741C120.587 207.741 120.248 207.798 119.972 207.911C119.695 208.021 119.483 208.174 119.335 208.371C119.191 208.568 119.119 208.792 119.119 209.042C119.112 209.25 119.155 209.432 119.25 209.587C119.349 209.743 119.483 209.877 119.654 209.991C119.824 210.101 120.021 210.197 120.244 210.281C120.468 210.36 120.707 210.428 120.96 210.485L122.006 210.735C122.513 210.849 122.979 211 123.404 211.19C123.828 211.379 124.195 211.612 124.506 211.888C124.816 212.165 125.057 212.491 125.227 212.866C125.402 213.241 125.491 213.671 125.494 214.156C125.491 214.868 125.309 215.485 124.949 216.008C124.593 216.527 124.078 216.93 123.404 217.218C122.733 217.502 121.924 217.644 120.977 217.644C120.038 217.644 119.22 217.5 118.523 217.212C117.83 216.924 117.288 216.498 116.898 215.934C116.512 215.366 116.309 214.663 116.29 213.826H118.671C118.697 214.216 118.809 214.542 119.006 214.803C119.207 215.061 119.474 215.256 119.807 215.388C120.144 215.517 120.525 215.582 120.949 215.582C121.366 215.582 121.727 215.521 122.034 215.4C122.345 215.279 122.585 215.11 122.756 214.894C122.926 214.678 123.012 214.43 123.012 214.15C123.012 213.888 122.934 213.669 122.779 213.491C122.627 213.313 122.404 213.161 122.108 213.036C121.816 212.911 121.458 212.798 121.034 212.695L119.767 212.377C118.786 212.138 118.012 211.765 117.443 211.258C116.875 210.75 116.593 210.066 116.597 209.207C116.593 208.502 116.78 207.887 117.159 207.36C117.542 206.834 118.066 206.423 118.733 206.127C119.4 205.832 120.157 205.684 121.006 205.684C121.869 205.684 122.623 205.832 123.267 206.127C123.915 206.423 124.419 206.834 124.779 207.36C125.138 207.887 125.324 208.496 125.335 209.19H122.977ZM126.706 207.871V205.843H136.263V207.871H132.7V217.479H130.269V207.871H126.706ZM147.999 211.661C147.999 212.93 147.758 214.01 147.277 214.9C146.8 215.79 146.148 216.47 145.323 216.94C144.501 217.406 143.576 217.638 142.55 217.638C141.516 217.638 140.588 217.404 139.766 216.934C138.944 216.464 138.294 215.784 137.817 214.894C137.34 214.004 137.101 212.926 137.101 211.661C137.101 210.392 137.34 209.313 137.817 208.423C138.294 207.532 138.944 206.854 139.766 206.388C140.588 205.919 141.516 205.684 142.55 205.684C143.576 205.684 144.501 205.919 145.323 206.388C146.148 206.854 146.8 207.532 147.277 208.423C147.758 209.313 147.999 210.392 147.999 211.661ZM145.504 211.661C145.504 210.839 145.381 210.146 145.135 209.582C144.893 209.017 144.55 208.589 144.107 208.298C143.664 208.006 143.145 207.86 142.55 207.86C141.955 207.86 141.436 208.006 140.993 208.298C140.55 208.589 140.205 209.017 139.959 209.582C139.717 210.146 139.595 210.839 139.595 211.661C139.595 212.483 139.717 213.176 139.959 213.741C140.205 214.305 140.55 214.733 140.993 215.025C141.436 215.316 141.955 215.462 142.55 215.462C143.145 215.462 143.664 215.316 144.107 215.025C144.55 214.733 144.893 214.305 145.135 213.741C145.381 213.176 145.504 212.483 145.504 211.661ZM149.821 217.479V205.843H154.412C155.291 205.843 156.041 206 156.662 206.315C157.287 206.625 157.762 207.066 158.088 207.638C158.418 208.207 158.583 208.875 158.583 209.644C158.583 210.417 158.416 211.082 158.083 211.638C157.749 212.191 157.266 212.616 156.634 212.911C156.005 213.207 155.244 213.354 154.35 213.354H151.276V211.377H153.952C154.422 211.377 154.812 211.313 155.122 211.184C155.433 211.055 155.664 210.862 155.815 210.604C155.971 210.347 156.048 210.027 156.048 209.644C156.048 209.258 155.971 208.932 155.815 208.667C155.664 208.402 155.431 208.201 155.117 208.065C154.806 207.924 154.414 207.854 153.94 207.854H152.281V217.479H149.821ZM156.105 212.184L158.997 217.479H156.281L153.452 212.184H156.105ZM123.803 236.479H121.167L125.184 224.843H128.355L132.366 236.479H129.73L126.815 227.502H126.724L123.803 236.479ZM123.639 231.906H129.866V233.826H123.639V231.906ZM140.936 228.604C140.856 228.328 140.744 228.084 140.6 227.871C140.456 227.656 140.28 227.474 140.072 227.326C139.867 227.174 139.632 227.059 139.367 226.979C139.106 226.9 138.816 226.86 138.498 226.86C137.903 226.86 137.381 227.008 136.93 227.303C136.483 227.599 136.134 228.029 135.884 228.593C135.634 229.154 135.509 229.839 135.509 230.65C135.509 231.46 135.632 232.15 135.879 232.718C136.125 233.286 136.473 233.72 136.924 234.019C137.375 234.315 137.907 234.462 138.521 234.462C139.078 234.462 139.553 234.364 139.947 234.167C140.345 233.966 140.648 233.684 140.856 233.32C141.068 232.957 141.174 232.527 141.174 232.031L141.674 232.104H138.674V230.252H143.543V231.718C143.543 232.741 143.328 233.62 142.896 234.354C142.464 235.085 141.869 235.65 141.112 236.048C140.354 236.441 139.487 236.638 138.509 236.638C137.418 236.638 136.46 236.398 135.634 235.917C134.809 235.432 134.165 234.745 133.703 233.854C133.244 232.96 133.015 231.9 133.015 230.673C133.015 229.729 133.151 228.888 133.424 228.15C133.701 227.407 134.087 226.779 134.583 226.263C135.079 225.748 135.657 225.356 136.316 225.087C136.975 224.818 137.689 224.684 138.458 224.684C139.117 224.684 139.731 224.781 140.299 224.974C140.867 225.163 141.371 225.432 141.811 225.781C142.254 226.129 142.615 226.544 142.896 227.025C143.176 227.502 143.356 228.029 143.436 228.604H140.936ZM145.391 236.479V224.843H153.232V226.871H147.852V229.644H152.829V231.673H147.852V234.451H153.255V236.479H145.391ZM113.407 255.479V243.843H117.998C118.877 243.843 119.627 244 120.248 244.315C120.873 244.625 121.348 245.066 121.674 245.638C122.004 246.207 122.168 246.875 122.168 247.644C122.168 248.417 122.002 249.082 121.668 249.638C121.335 250.191 120.852 250.616 120.22 250.911C119.591 251.207 118.829 251.354 117.936 251.354H114.862V249.377H117.538C118.007 249.377 118.398 249.313 118.708 249.184C119.019 249.055 119.25 248.862 119.401 248.604C119.557 248.347 119.634 248.027 119.634 247.644C119.634 247.258 119.557 246.932 119.401 246.667C119.25 246.402 119.017 246.201 118.703 246.065C118.392 245.924 118 245.854 117.526 245.854H115.867V255.479H113.407ZM119.691 250.184L122.583 255.479H119.867L117.038 250.184H119.691ZM134.6 249.661C134.6 250.93 134.36 252.01 133.879 252.9C133.401 253.79 132.75 254.47 131.924 254.94C131.102 255.406 130.178 255.638 129.151 255.638C128.117 255.638 127.189 255.404 126.367 254.934C125.545 254.464 124.896 253.784 124.418 252.894C123.941 252.004 123.703 250.926 123.703 249.661C123.703 248.392 123.941 247.313 124.418 246.423C124.896 245.532 125.545 244.854 126.367 244.388C127.189 243.919 128.117 243.684 129.151 243.684C130.178 243.684 131.102 243.919 131.924 244.388C132.75 244.854 133.401 245.532 133.879 246.423C134.36 247.313 134.6 248.392 134.6 249.661ZM132.106 249.661C132.106 248.839 131.983 248.146 131.737 247.582C131.494 247.017 131.151 246.589 130.708 246.298C130.265 246.006 129.746 245.86 129.151 245.86C128.557 245.86 128.038 246.006 127.595 246.298C127.151 246.589 126.807 247.017 126.561 247.582C126.318 248.146 126.197 248.839 126.197 249.661C126.197 250.483 126.318 251.176 126.561 251.741C126.807 252.305 127.151 252.733 127.595 253.025C128.038 253.316 128.557 253.462 129.151 253.462C129.746 253.462 130.265 253.316 130.708 253.025C131.151 252.733 131.494 252.305 131.737 251.741C131.983 251.176 132.106 250.483 132.106 249.661ZM147.116 249.661C147.116 250.93 146.875 252.01 146.394 252.9C145.917 253.79 145.266 254.47 144.44 254.94C143.618 255.406 142.694 255.638 141.667 255.638C140.633 255.638 139.705 255.404 138.883 254.934C138.061 254.464 137.411 253.784 136.934 252.894C136.457 252.004 136.218 250.926 136.218 249.661C136.218 248.392 136.457 247.313 136.934 246.423C137.411 245.532 138.061 244.854 138.883 244.388C139.705 243.919 140.633 243.684 141.667 243.684C142.694 243.684 143.618 243.919 144.44 244.388C145.266 244.854 145.917 245.532 146.394 246.423C146.875 247.313 147.116 248.392 147.116 249.661ZM144.622 249.661C144.622 248.839 144.498 248.146 144.252 247.582C144.01 247.017 143.667 246.589 143.224 246.298C142.781 246.006 142.262 245.86 141.667 245.86C141.072 245.86 140.553 246.006 140.11 246.298C139.667 246.589 139.322 247.017 139.076 247.582C138.834 248.146 138.713 248.839 138.713 249.661C138.713 250.483 138.834 251.176 139.076 251.741C139.322 252.305 139.667 252.733 140.11 253.025C140.553 253.316 141.072 253.462 141.667 253.462C142.262 253.462 142.781 253.316 143.224 253.025C143.667 252.733 144.01 252.305 144.252 251.741C144.498 251.176 144.622 250.483 144.622 249.661ZM148.938 243.843H151.972L155.177 251.661H155.313L158.518 243.843H161.552V255.479H159.166V247.906H159.069L156.058 255.423H154.433L151.421 247.877H151.325V255.479H148.938V243.843Z" fill="#55636B"/>
<path d="M478.75 271.901H75.8888C72.5762 271.901 69.8909 275.335 69.8909 279.57V455.967C69.8909 460.203 72.5762 463.636 75.8888 463.636H478.75C482.062 463.636 484.748 460.203 484.748 455.967V279.57C484.748 275.335 482.062 271.901 478.75 271.901Z" fill="#EAF1F3" stroke="#B3C0C6" stroke-width="2"/>
<path d="M230.689 371.719V358.628H235.854C236.842 358.628 237.686 358.805 238.385 359.159C239.088 359.508 239.623 360.005 239.989 360.648C240.36 361.287 240.546 362.039 240.546 362.904C240.546 363.774 240.358 364.522 239.983 365.148C239.608 365.77 239.065 366.247 238.353 366.58C237.646 366.912 236.789 367.078 235.783 367.078H232.325V364.854H235.336C235.864 364.854 236.303 364.781 236.653 364.637C237.002 364.492 237.262 364.274 237.433 363.985C237.607 363.695 237.695 363.335 237.695 362.904C237.695 362.47 237.607 362.103 237.433 361.805C237.262 361.507 237 361.281 236.646 361.127C236.297 360.97 235.856 360.891 235.323 360.891H233.457V371.719H230.689ZM237.759 365.762L241.012 371.719H237.957L234.774 365.762H237.759ZM254.531 365.174C254.531 366.601 254.261 367.816 253.72 368.817C253.183 369.818 252.45 370.583 251.521 371.112C250.596 371.636 249.556 371.898 248.401 371.898C247.238 371.898 246.194 371.634 245.269 371.105C244.345 370.577 243.614 369.812 243.077 368.811C242.54 367.809 242.271 366.597 242.271 365.174C242.271 363.746 242.54 362.531 243.077 361.53C243.614 360.529 244.345 359.766 245.269 359.242C246.194 358.713 247.238 358.449 248.401 358.449C249.556 358.449 250.596 358.713 251.521 359.242C252.45 359.766 253.183 360.529 253.72 361.53C254.261 362.531 254.531 363.746 254.531 365.174ZM251.725 365.174C251.725 364.249 251.587 363.469 251.31 362.834C251.037 362.199 250.651 361.718 250.153 361.389C249.654 361.061 249.07 360.897 248.401 360.897C247.732 360.897 247.149 361.061 246.65 361.389C246.151 361.718 245.764 362.199 245.487 362.834C245.214 363.469 245.077 364.249 245.077 365.174C245.077 366.098 245.214 366.878 245.487 367.513C245.764 368.148 246.151 368.63 246.65 368.958C247.149 369.286 247.732 369.45 248.401 369.45C249.07 369.45 249.654 369.286 250.153 368.958C250.651 368.63 251.037 368.148 251.31 367.513C251.587 366.878 251.725 366.098 251.725 365.174ZM268.611 365.174C268.611 366.601 268.341 367.816 267.8 368.817C267.263 369.818 266.53 370.583 265.601 371.112C264.676 371.636 263.636 371.898 262.481 371.898C261.318 371.898 260.274 371.634 259.349 371.105C258.425 370.577 257.694 369.812 257.157 368.811C256.62 367.809 256.351 366.597 256.351 365.174C256.351 363.746 256.62 362.531 257.157 361.53C257.694 360.529 258.425 359.766 259.349 359.242C260.274 358.713 261.318 358.449 262.481 358.449C263.636 358.449 264.676 358.713 265.601 359.242C266.53 359.766 267.263 360.529 267.8 361.53C268.341 362.531 268.611 363.746 268.611 365.174ZM265.805 365.174C265.805 364.249 265.667 363.469 265.39 362.834C265.117 362.199 264.731 361.718 264.233 361.389C263.734 361.061 263.15 360.897 262.481 360.897C261.812 360.897 261.229 361.061 260.73 361.389C260.231 361.718 259.844 362.199 259.567 362.834C259.294 363.469 259.158 364.249 259.158 365.174C259.158 366.098 259.294 366.878 259.567 367.513C259.844 368.148 260.231 368.63 260.73 368.958C261.229 369.286 261.812 369.45 262.481 369.45C263.15 369.45 263.734 369.286 264.233 368.958C264.731 368.63 265.117 368.148 265.39 367.513C265.667 366.878 265.805 366.098 265.805 365.174ZM270.662 358.628H274.075L277.68 367.424H277.834L281.439 358.628H284.852V371.719H282.167V363.198H282.059L278.671 371.655H276.843L273.455 363.166H273.346V371.719H270.662V358.628ZM296.003 371.898C295.099 371.898 294.294 371.732 293.587 371.399C292.884 371.067 292.325 370.609 291.912 370.025C291.499 369.441 291.283 368.772 291.266 368.018H293.951C293.981 368.525 294.194 368.936 294.59 369.252C294.987 369.567 295.457 369.725 296.003 369.725C296.438 369.725 296.821 369.629 297.153 369.437C297.49 369.241 297.752 368.97 297.94 368.625C298.131 368.276 298.227 367.875 298.227 367.424C298.227 366.963 298.129 366.558 297.933 366.209C297.742 365.86 297.475 365.587 297.134 365.391C296.793 365.195 296.403 365.095 295.965 365.09C295.581 365.09 295.208 365.169 294.846 365.327C294.488 365.485 294.209 365.7 294.009 365.973L291.548 365.531L292.168 358.628H300.171V360.891H294.45L294.111 364.17H294.188C294.418 363.846 294.765 363.578 295.229 363.365C295.694 363.152 296.214 363.045 296.789 363.045C297.577 363.045 298.281 363.23 298.899 363.601C299.516 363.972 300.004 364.481 300.362 365.129C300.72 365.772 300.897 366.514 300.893 367.353C300.897 368.235 300.693 369.019 300.279 369.705C299.87 370.387 299.297 370.924 298.56 371.316C297.827 371.704 296.974 371.898 296.003 371.898ZM307.956 372.007C306.857 372.002 305.911 371.732 305.118 371.195C304.33 370.658 303.722 369.88 303.296 368.862C302.874 367.843 302.666 366.618 302.67 365.186C302.67 363.759 302.881 362.542 303.303 361.536C303.729 360.531 304.336 359.766 305.124 359.242C305.917 358.713 306.861 358.449 307.956 358.449C309.051 358.449 309.993 358.713 310.781 359.242C311.574 359.77 312.183 360.537 312.609 361.543C313.036 362.544 313.247 363.759 313.242 365.186C313.242 366.622 313.029 367.85 312.603 368.868C312.181 369.887 311.576 370.664 310.788 371.201C309.999 371.738 309.055 372.007 307.956 372.007ZM307.956 369.712C308.706 369.712 309.305 369.335 309.752 368.58C310.2 367.826 310.421 366.695 310.417 365.186C310.417 364.193 310.315 363.367 310.11 362.706C309.91 362.046 309.624 361.549 309.254 361.217C308.887 360.884 308.455 360.718 307.956 360.718C307.21 360.718 306.614 361.091 306.166 361.837C305.719 362.583 305.493 363.699 305.489 365.186C305.489 366.192 305.589 367.031 305.789 367.705C305.994 368.374 306.281 368.877 306.652 369.213C307.023 369.546 307.457 369.712 307.956 369.712ZM319.997 371.898C319.094 371.898 318.288 371.732 317.581 371.399C316.878 371.067 316.319 370.609 315.906 370.025C315.493 369.441 315.278 368.772 315.261 368.018H317.945C317.975 368.525 318.188 368.936 318.584 369.252C318.981 369.567 319.452 369.725 319.997 369.725C320.432 369.725 320.815 369.629 321.148 369.437C321.484 369.241 321.746 368.97 321.934 368.625C322.126 368.276 322.221 367.875 322.221 367.424C322.221 366.963 322.123 366.558 321.927 366.209C321.736 365.86 321.469 365.587 321.128 365.391C320.788 365.195 320.398 365.095 319.959 365.09C319.575 365.09 319.202 365.169 318.84 365.327C318.482 365.485 318.203 365.7 318.003 365.973L315.542 365.531L316.162 358.628H324.165V360.891H318.444L318.105 364.17H318.182C318.412 363.846 318.759 363.578 319.224 363.365C319.688 363.152 320.208 363.045 320.783 363.045C321.572 363.045 322.275 363.23 322.893 363.601C323.511 363.972 323.998 364.481 324.356 365.129C324.714 365.772 324.891 366.514 324.887 367.353C324.891 368.235 324.687 369.019 324.273 369.705C323.864 370.387 323.291 370.924 322.554 371.316C321.821 371.704 320.969 371.898 319.997 371.898Z" fill="#4A5A62"/>
<path d="M477.867 476.859H75.0055C71.6929 476.859 69.0076 480.338 69.0076 484.628V663.306C69.0076 667.596 71.6929 671.074 75.0055 671.074H477.867C481.179 671.074 483.864 667.596 483.864 663.306V484.628C483.864 480.338 481.179 476.859 477.867 476.859Z" fill="#EAF1F3" stroke="#B3C0C6" stroke-width="2"/>
<path d="M229.578 578.331V565.24H234.743C235.732 565.24 236.576 565.417 237.274 565.77C237.978 566.12 238.512 566.616 238.879 567.26C239.25 567.899 239.435 568.651 239.435 569.516C239.435 570.385 239.247 571.133 238.872 571.76C238.497 572.382 237.954 572.859 237.242 573.191C236.535 573.524 235.679 573.69 234.673 573.69H231.215V571.466H234.225C234.754 571.466 235.193 571.393 235.542 571.248C235.892 571.103 236.152 570.886 236.322 570.596C236.497 570.306 236.584 569.946 236.584 569.516C236.584 569.081 236.497 568.715 236.322 568.417C236.152 568.118 235.889 567.892 235.536 567.739C235.186 567.581 234.745 567.502 234.213 567.502H232.346V578.331H229.578ZM236.648 572.373L239.902 578.331H236.846L233.663 572.373H236.648ZM253.421 571.785C253.421 573.213 253.15 574.427 252.609 575.429C252.072 576.43 251.339 577.195 250.41 577.723C249.485 578.247 248.446 578.51 247.291 578.51C246.127 578.51 245.083 578.245 244.159 577.717C243.234 577.189 242.503 576.424 241.966 575.422C241.429 574.421 241.161 573.208 241.161 571.785C241.161 570.358 241.429 569.143 241.966 568.142C242.503 567.14 243.234 566.377 244.159 565.853C245.083 565.325 246.127 565.061 247.291 565.061C248.446 565.061 249.485 565.325 250.41 565.853C251.339 566.377 252.072 567.14 252.609 568.142C253.15 569.143 253.421 570.358 253.421 571.785ZM250.615 571.785C250.615 570.86 250.476 570.081 250.199 569.446C249.926 568.811 249.541 568.329 249.042 568.001C248.544 567.673 247.96 567.509 247.291 567.509C246.622 567.509 246.038 567.673 245.539 568.001C245.041 568.329 244.653 568.811 244.376 569.446C244.103 570.081 243.967 570.86 243.967 571.785C243.967 572.71 244.103 573.49 244.376 574.125C244.653 574.76 245.041 575.241 245.539 575.569C246.038 575.897 246.622 576.061 247.291 576.061C247.96 576.061 248.544 575.897 249.042 575.569C249.541 575.241 249.926 574.76 250.199 574.125C250.476 573.49 250.615 572.71 250.615 571.785ZM267.501 571.785C267.501 573.213 267.23 574.427 266.689 575.429C266.152 576.43 265.419 577.195 264.49 577.723C263.565 578.247 262.526 578.51 261.371 578.51C260.207 578.51 259.163 578.245 258.239 577.717C257.314 577.189 256.583 576.424 256.046 575.422C255.509 574.421 255.241 573.208 255.241 571.785C255.241 570.358 255.509 569.143 256.046 568.142C256.583 567.14 257.314 566.377 258.239 565.853C259.163 565.325 260.207 565.061 261.371 565.061C262.526 565.061 263.565 565.325 264.49 565.853C265.419 566.377 266.152 567.14 266.689 568.142C267.23 569.143 267.501 570.358 267.501 571.785ZM264.695 571.785C264.695 570.86 264.556 570.081 264.279 569.446C264.006 568.811 263.621 568.329 263.122 568.001C262.624 567.673 262.04 567.509 261.371 567.509C260.702 567.509 260.118 567.673 259.619 568.001C259.121 568.329 258.733 568.811 258.456 569.446C258.183 570.081 258.047 570.86 258.047 571.785C258.047 572.71 258.183 573.49 258.456 574.125C258.733 574.76 259.121 575.241 259.619 575.569C260.118 575.897 260.702 576.061 261.371 576.061C262.04 576.061 262.624 575.897 263.122 575.569C263.621 575.241 264.006 574.76 264.279 574.125C264.556 573.49 264.695 572.71 264.695 571.785ZM269.551 565.24H272.964L276.57 574.035H276.723L280.328 565.24H283.741V578.331H281.057V569.81H280.948L277.56 578.267H275.732L272.344 569.778H272.236V578.331H269.551V565.24ZM294.892 578.51C293.989 578.51 293.184 578.343 292.476 578.011C291.773 577.679 291.215 577.22 290.801 576.637C290.388 576.053 290.173 575.384 290.156 574.63H292.84C292.87 575.137 293.083 575.548 293.48 575.863C293.876 576.179 294.347 576.336 294.892 576.336C295.327 576.336 295.71 576.24 296.043 576.049C296.38 575.853 296.642 575.582 296.829 575.237C297.021 574.887 297.117 574.487 297.117 574.035C297.117 573.575 297.019 573.17 296.823 572.821C296.631 572.471 296.365 572.198 296.024 572.002C295.683 571.806 295.293 571.706 294.854 571.702C294.47 571.702 294.098 571.781 293.735 571.939C293.377 572.096 293.098 572.311 292.898 572.584L290.437 572.143L291.057 565.24H299.06V567.502H293.339L293 570.782H293.077C293.307 570.458 293.654 570.189 294.119 569.976C294.583 569.763 295.103 569.657 295.679 569.657C296.467 569.657 297.17 569.842 297.788 570.213C298.406 570.583 298.894 571.093 299.252 571.74C299.61 572.384 299.786 573.125 299.782 573.965C299.786 574.847 299.582 575.631 299.169 576.317C298.759 576.999 298.186 577.536 297.449 577.928C296.716 578.316 295.864 578.51 294.892 578.51ZM306.845 578.618C305.746 578.614 304.8 578.343 304.007 577.806C303.219 577.269 302.612 576.492 302.186 575.473C301.764 574.455 301.555 573.23 301.559 571.798C301.559 570.37 301.77 569.154 302.192 568.148C302.618 567.142 303.225 566.377 304.014 565.853C304.806 565.325 305.75 565.061 306.845 565.061C307.941 565.061 308.882 565.325 309.671 565.853C310.463 566.382 311.073 567.149 311.499 568.154C311.925 569.156 312.136 570.37 312.132 571.798C312.132 573.234 311.919 574.461 311.492 575.48C311.071 576.498 310.465 577.276 309.677 577.813C308.889 578.35 307.945 578.618 306.845 578.618ZM306.845 576.323C307.595 576.323 308.194 575.946 308.642 575.192C309.089 574.438 309.311 573.306 309.306 571.798C309.306 570.805 309.204 569.978 309 569.318C308.799 568.657 308.514 568.161 308.143 567.828C307.777 567.496 307.344 567.33 306.845 567.33C306.1 567.33 305.503 567.703 305.056 568.448C304.608 569.194 304.382 570.311 304.378 571.798C304.378 572.804 304.478 573.643 304.679 574.316C304.883 574.985 305.171 575.488 305.541 575.825C305.912 576.157 306.347 576.323 306.845 576.323ZM313.907 576.029V573.85L319.372 565.24H321.252V568.257H320.139L316.694 573.709V573.811H324.46V576.029H313.907ZM320.19 578.331V575.365L320.242 574.399V565.24H322.837V578.331H320.19Z" fill="#4A5A62"/>
<path d="M932.205 185.124H762.944C761.26 185.124 759.895 186.244 759.895 187.625V254.524C759.895 255.905 761.26 257.025 762.944 257.025H932.205C933.889 257.025 935.255 255.905 935.255 254.524V187.625C935.255 186.244 933.889 185.124 932.205 185.124Z" fill="white" stroke="#B3C0C6" stroke-width="2"/>
<path d="M835.955 228.876V218.694H839.973C840.745 218.694 841.403 218.842 841.946 219.137C842.49 219.428 842.904 219.834 843.189 220.355C843.478 220.872 843.622 221.468 843.622 222.144C843.622 222.821 843.476 223.417 843.184 223.934C842.893 224.451 842.47 224.854 841.916 225.142C841.366 225.431 840.7 225.575 839.918 225.575H837.357V223.85H839.57C839.984 223.85 840.326 223.778 840.594 223.636C840.866 223.49 841.068 223.29 841.201 223.034C841.336 222.776 841.404 222.479 841.404 222.144C841.404 221.806 841.336 221.511 841.201 221.259C841.068 221.004 840.866 220.807 840.594 220.668C840.322 220.525 839.978 220.454 839.56 220.454H838.108V228.876H835.955ZM847.312 228.876L844.399 218.694H846.75L848.435 225.769H848.52L850.379 218.694H852.393L854.247 225.784H854.337L856.022 218.694H858.374L855.46 228.876H853.362L851.423 222.219H851.344L849.41 228.876H847.312ZM863.135 228.876H859.526V218.694H863.165C864.189 218.694 865.071 218.898 865.81 219.306C866.549 219.71 867.117 220.292 867.515 221.051C867.916 221.81 868.117 222.718 868.117 223.775C868.117 224.836 867.916 225.747 867.515 226.509C867.117 227.272 866.546 227.857 865.8 228.264C865.058 228.672 864.169 228.876 863.135 228.876ZM861.679 227.032H863.046C863.682 227.032 864.217 226.919 864.652 226.693C865.089 226.465 865.417 226.112 865.636 225.634C865.858 225.154 865.969 224.534 865.969 223.775C865.969 223.023 865.858 222.408 865.636 221.931C865.417 221.453 865.091 221.102 864.656 220.877C864.222 220.651 863.687 220.539 863.051 220.539H861.679V227.032Z" fill="#55636B"/>
<path d="M582.581 840.113C582.538 839.683 582.355 839.349 582.032 839.111C581.709 838.873 581.27 838.754 580.716 838.754C580.34 838.754 580.022 838.808 579.763 838.914C579.504 839.017 579.305 839.161 579.166 839.346C579.031 839.53 578.964 839.74 578.964 839.974C578.957 840.169 578.998 840.34 579.086 840.485C579.179 840.631 579.305 840.757 579.465 840.864C579.624 840.967 579.809 841.057 580.019 841.135C580.228 841.21 580.452 841.274 580.69 841.327L581.67 841.561C582.146 841.668 582.582 841.81 582.98 841.988C583.378 842.165 583.722 842.384 584.014 842.643C584.305 842.902 584.53 843.207 584.69 843.559C584.853 843.911 584.937 844.314 584.94 844.768C584.937 845.436 584.766 846.015 584.429 846.505C584.095 846.991 583.612 847.369 582.98 847.639C582.352 847.906 581.594 848.039 580.706 848.039C579.825 848.039 579.058 847.904 578.405 847.634C577.755 847.364 577.247 846.965 576.881 846.435C576.519 845.903 576.329 845.244 576.311 844.459H578.543C578.568 844.825 578.673 845.13 578.857 845.375C579.046 845.617 579.296 845.8 579.608 845.924C579.924 846.045 580.281 846.105 580.679 846.105C581.07 846.105 581.409 846.048 581.696 845.935C581.988 845.821 582.213 845.663 582.373 845.461C582.533 845.258 582.613 845.026 582.613 844.763C582.613 844.518 582.54 844.312 582.394 844.145C582.252 843.978 582.043 843.836 581.766 843.719C581.492 843.602 581.157 843.495 580.759 843.399L579.571 843.101C578.651 842.877 577.925 842.527 577.393 842.052C576.86 841.576 576.595 840.935 576.599 840.129C576.595 839.468 576.771 838.891 577.126 838.397C577.485 837.904 577.977 837.519 578.602 837.242C579.227 836.965 579.937 836.826 580.732 836.826C581.542 836.826 582.249 836.965 582.852 837.242C583.46 837.519 583.932 837.904 584.269 838.397C584.607 838.891 584.781 839.463 584.791 840.113H582.581ZM586.076 838.877V836.975H595.036V838.877H591.696V847.884H589.416V838.877H586.076ZM597.059 847.884H594.587L598.353 836.975H601.325L605.086 847.884H602.614L599.882 839.468H599.797L597.059 847.884ZM596.904 843.596H602.742V845.397H596.904V843.596ZM608.706 836.975V847.884H606.399V836.975H608.706ZM610.603 847.884V836.975H614.907C615.731 836.975 616.434 837.123 617.017 837.417C617.602 837.708 618.048 838.122 618.354 838.658C618.662 839.191 618.817 839.818 618.817 840.539C618.817 841.263 618.661 841.886 618.348 842.408C618.036 842.927 617.583 843.325 616.99 843.602C616.4 843.879 615.687 844.017 614.849 844.017H611.967V842.163H614.476C614.916 842.163 615.282 842.103 615.573 841.982C615.864 841.862 616.081 841.68 616.223 841.439C616.368 841.197 616.441 840.897 616.441 840.539C616.441 840.177 616.368 839.871 616.223 839.623C616.081 839.374 615.862 839.186 615.568 839.058C615.276 838.927 614.909 838.861 614.465 838.861H612.91V847.884H610.603ZM616.495 842.92L619.206 847.884H616.66L614.007 842.92H616.495ZM623.919 847.884V836.975H626.225V845.983H630.902V847.884H623.919ZM642.029 842.43C642.029 843.619 641.804 844.631 641.353 845.466C640.905 846.3 640.295 846.938 639.521 847.378C638.75 847.815 637.883 848.033 636.921 848.033C635.952 848.033 635.082 847.813 634.311 847.373C633.54 846.933 632.931 846.295 632.484 845.461C632.037 844.626 631.813 843.616 631.813 842.43C631.813 841.24 632.037 840.228 632.484 839.394C632.931 838.559 633.54 837.923 634.311 837.487C635.082 837.046 635.952 836.826 636.921 836.826C637.883 836.826 638.75 837.046 639.521 837.487C640.295 837.923 640.905 838.559 641.353 839.394C641.804 840.228 642.029 841.24 642.029 842.43ZM639.691 842.43C639.691 841.659 639.576 841.009 639.345 840.48C639.117 839.951 638.796 839.55 638.381 839.276C637.965 839.003 637.479 838.866 636.921 838.866C636.364 838.866 635.877 839.003 635.462 839.276C635.046 839.55 634.723 839.951 634.492 840.48C634.265 841.009 634.151 841.659 634.151 842.43C634.151 843.2 634.265 843.85 634.492 844.379C634.723 844.908 635.046 845.31 635.462 845.583C635.877 845.857 636.364 845.993 636.921 845.993C637.479 845.993 637.965 845.857 638.381 845.583C638.796 845.31 639.117 844.908 639.345 844.379C639.576 843.85 639.691 843.2 639.691 842.43ZM643.738 847.884V836.975H648.106C648.908 836.975 649.578 837.094 650.114 837.332C650.65 837.57 651.053 837.9 651.323 838.323C651.593 838.742 651.728 839.225 651.728 839.772C651.728 840.198 651.643 840.572 651.472 840.896C651.302 841.215 651.067 841.478 650.769 841.684C650.474 841.886 650.137 842.03 649.757 842.115V842.222C650.173 842.24 650.561 842.357 650.924 842.574C651.289 842.79 651.586 843.094 651.813 843.484C652.041 843.871 652.154 844.333 652.154 844.869C652.154 845.448 652.01 845.965 651.723 846.419C651.439 846.87 651.018 847.227 650.46 847.49C649.903 847.753 649.216 847.884 648.399 847.884H643.738ZM646.044 845.999H647.925C648.567 845.999 649.036 845.876 649.331 845.631C649.626 845.383 649.773 845.052 649.773 844.64C649.773 844.338 649.7 844.072 649.555 843.841C649.409 843.61 649.201 843.429 648.931 843.298C648.665 843.167 648.347 843.101 647.978 843.101H646.044V845.999ZM646.044 841.54H647.754C648.07 841.54 648.351 841.485 648.596 841.375C648.844 841.261 649.04 841.102 649.182 840.896C649.327 840.69 649.4 840.443 649.4 840.155C649.4 839.761 649.26 839.443 648.979 839.202C648.702 838.96 648.308 838.84 647.797 838.84H646.044V841.54ZM653.655 847.884V836.975H658.023C658.825 836.975 659.495 837.094 660.031 837.332C660.567 837.57 660.97 837.9 661.24 838.323C661.51 838.742 661.645 839.225 661.645 839.772C661.645 840.198 661.56 840.572 661.389 840.896C661.219 841.215 660.984 841.478 660.686 841.684C660.391 841.886 660.054 842.03 659.674 842.115V842.222C660.09 842.24 660.478 842.357 660.841 842.574C661.206 842.79 661.503 843.094 661.73 843.484C661.957 843.871 662.071 844.333 662.071 844.869C662.071 845.448 661.927 845.965 661.64 846.419C661.356 846.87 660.935 847.227 660.377 847.49C659.82 847.753 659.133 847.884 658.316 847.884H653.655ZM655.961 845.999H657.842C658.484 845.999 658.953 845.876 659.248 845.631C659.543 845.383 659.69 845.052 659.69 844.64C659.69 844.338 659.617 844.072 659.472 843.841C659.326 843.61 659.118 843.429 658.848 843.298C658.582 843.167 658.264 843.101 657.895 843.101H655.961V845.999ZM655.961 841.54H657.671C657.987 841.54 658.268 841.485 658.513 841.375C658.761 841.261 658.957 841.102 659.099 840.896C659.244 840.69 659.317 840.443 659.317 840.155C659.317 839.761 659.177 839.443 658.896 839.202C658.619 838.96 658.225 838.84 657.714 838.84H655.961V841.54ZM662.933 836.975H665.516L668.004 841.673H668.11L670.598 836.975H673.181L669.202 844.028V847.884H666.912V844.028L662.933 836.975Z" fill="#43606B"/>
<path d="M931.448 710.744H774.448C772.239 710.744 770.448 712.535 770.448 714.744V966.744C770.448 968.953 772.239 970.744 774.448 970.744H931.448C933.658 970.744 935.448 968.953 935.448 966.744V714.744C935.448 712.535 933.658 710.744 931.448 710.744Z" fill="#E7EEF1" stroke="#8FA9B3" stroke-width="2"/>
<path d="M770.448 745.744H935.448" stroke="#8FA9B3" stroke-width="2"/>
<path d="M770.448 780.744H935.448" stroke="#8FA9B3" stroke-width="2"/>
<path d="M770.448 815.744H935.448" stroke="#8FA9B3" stroke-width="2"/>
<path d="M770.448 850.744H935.448" stroke="#8FA9B3" stroke-width="2"/>
<path d="M770.448 885.744H935.448" stroke="#8FA9B3" stroke-width="2"/>
<path d="M770.448 920.744H935.448" stroke="#8FA9B3" stroke-width="2"/>
<path d="M452.618 992.562H75.8988C72.0929 992.562 69.0076 995.827 69.0076 999.855V1277C69.0076 1281.03 72.0929 1284.3 75.8988 1284.3H452.618C456.424 1284.3 459.509 1281.03 459.509 1277V999.855C459.509 995.827 456.424 992.562 452.618 992.562Z" fill="#EAF1F3" stroke="#B3C0C6" stroke-width="2"/>
<path d="M238.679 1150.06V1137.69H243.557C244.49 1137.69 245.287 1137.86 245.947 1138.2C246.611 1138.53 247.117 1138.99 247.463 1139.6C247.813 1140.21 247.988 1140.92 247.988 1141.73C247.988 1142.55 247.811 1143.26 247.457 1143.85C247.102 1144.44 246.589 1144.89 245.917 1145.2C245.249 1145.52 244.44 1145.68 243.49 1145.68H240.224V1143.57H243.068C243.567 1143.57 243.981 1143.51 244.311 1143.37C244.641 1143.23 244.887 1143.03 245.048 1142.75C245.213 1142.48 245.295 1142.14 245.295 1141.73C245.295 1141.32 245.213 1140.98 245.048 1140.69C244.887 1140.41 244.639 1140.2 244.305 1140.05C243.975 1139.91 243.559 1139.83 243.056 1139.83H241.293V1150.06H238.679ZM245.356 1144.43L248.429 1150.06H245.543L242.537 1144.43H245.356ZM261.197 1143.88C261.197 1145.22 260.941 1146.37 260.43 1147.32C259.923 1148.26 259.231 1148.99 258.353 1149.48C257.48 1149.98 256.498 1150.23 255.407 1150.23C254.309 1150.23 253.323 1149.98 252.449 1149.48C251.576 1148.98 250.886 1148.26 250.379 1147.31C249.871 1146.37 249.618 1145.22 249.618 1143.88C249.618 1142.53 249.871 1141.38 250.379 1140.43C250.886 1139.49 251.576 1138.77 252.449 1138.27C253.323 1137.77 254.309 1137.53 255.407 1137.53C256.498 1137.53 257.48 1137.77 258.353 1138.27C259.231 1138.77 259.923 1139.49 260.43 1140.43C260.941 1141.38 261.197 1142.53 261.197 1143.88ZM258.546 1143.88C258.546 1143 258.416 1142.27 258.154 1141.67C257.897 1141.07 257.532 1140.61 257.061 1140.3C256.591 1139.99 256.039 1139.84 255.407 1139.84C254.775 1139.84 254.224 1139.99 253.753 1140.3C253.282 1140.61 252.916 1141.07 252.654 1141.67C252.397 1142.27 252.268 1143 252.268 1143.88C252.268 1144.75 252.397 1145.49 252.654 1146.09C252.916 1146.69 253.282 1147.14 253.753 1147.45C254.224 1147.76 254.775 1147.91 255.407 1147.91C256.039 1147.91 256.591 1147.76 257.061 1147.45C257.532 1147.14 257.897 1146.69 258.154 1146.09C258.416 1145.49 258.546 1144.75 258.546 1143.88ZM274.495 1143.88C274.495 1145.22 274.239 1146.37 273.728 1147.32C273.221 1148.26 272.529 1148.99 271.651 1149.48C270.778 1149.98 269.796 1150.23 268.705 1150.23C267.606 1150.23 266.62 1149.98 265.747 1149.48C264.874 1148.98 264.183 1148.26 263.676 1147.31C263.169 1146.37 262.916 1145.22 262.916 1143.88C262.916 1142.53 263.169 1141.38 263.676 1140.43C264.183 1139.49 264.874 1138.77 265.747 1138.27C266.62 1137.77 267.606 1137.53 268.705 1137.53C269.796 1137.53 270.778 1137.77 271.651 1138.27C272.529 1138.77 273.221 1139.49 273.728 1140.43C274.239 1141.38 274.495 1142.53 274.495 1143.88ZM271.844 1143.88C271.844 1143 271.714 1142.27 271.452 1141.67C271.194 1141.07 270.83 1140.61 270.359 1140.3C269.888 1139.99 269.337 1139.84 268.705 1139.84C268.073 1139.84 267.522 1139.99 267.051 1140.3C266.58 1140.61 266.214 1141.07 265.952 1141.67C265.695 1142.27 265.566 1143 265.566 1143.88C265.566 1144.75 265.695 1145.49 265.952 1146.09C266.214 1146.69 266.58 1147.14 267.051 1147.45C267.522 1147.76 268.073 1147.91 268.705 1147.91C269.337 1147.91 269.888 1147.76 270.359 1147.45C270.83 1147.14 271.194 1146.69 271.452 1146.09C271.714 1145.49 271.844 1144.75 271.844 1143.88ZM276.431 1137.69H279.655L283.059 1146H283.204L286.609 1137.69H289.833V1150.06H287.297V1142.01H287.195L283.995 1150H282.269L279.069 1141.98H278.966V1150.06H276.431V1137.69ZM253.091 1171.23C252.238 1171.23 251.477 1171.07 250.809 1170.76C250.145 1170.44 249.618 1170.01 249.228 1169.46C248.837 1168.91 248.634 1168.27 248.618 1167.56H251.154C251.182 1168.04 251.383 1168.43 251.757 1168.73C252.131 1169.03 252.576 1169.17 253.091 1169.17C253.502 1169.17 253.864 1169.08 254.178 1168.9C254.496 1168.72 254.743 1168.46 254.921 1168.14C255.102 1167.81 255.192 1167.43 255.192 1167C255.192 1166.57 255.1 1166.18 254.915 1165.85C254.733 1165.52 254.482 1165.27 254.16 1165.08C253.838 1164.9 253.47 1164.8 253.055 1164.8C252.693 1164.8 252.341 1164.87 251.999 1165.02C251.661 1165.17 251.397 1165.37 251.208 1165.63L248.884 1165.21L249.469 1158.69H257.027V1160.83H251.624L251.304 1163.93H251.377C251.594 1163.62 251.922 1163.37 252.361 1163.17C252.8 1162.97 253.291 1162.87 253.834 1162.87C254.578 1162.87 255.243 1163.04 255.826 1163.39C256.41 1163.74 256.87 1164.22 257.209 1164.83C257.547 1165.44 257.714 1166.14 257.71 1166.93C257.714 1167.77 257.52 1168.51 257.13 1169.16C256.744 1169.8 256.202 1170.31 255.506 1170.68C254.814 1171.04 254.009 1171.23 253.091 1171.23ZM264.38 1171.33C263.342 1171.33 262.449 1171.07 261.7 1170.56C260.955 1170.06 260.382 1169.32 259.979 1168.36C259.581 1167.4 259.384 1166.24 259.388 1164.89C259.388 1163.54 259.587 1162.39 259.986 1161.44C260.388 1160.49 260.962 1159.77 261.706 1159.27C262.455 1158.77 263.346 1158.53 264.38 1158.53C265.415 1158.53 266.304 1158.77 267.049 1159.27C267.797 1159.77 268.373 1160.5 268.775 1161.45C269.178 1162.39 269.377 1163.54 269.373 1164.89C269.373 1166.24 269.172 1167.4 268.769 1168.37C268.371 1169.33 267.799 1170.06 267.055 1170.57C266.31 1171.08 265.419 1171.33 264.38 1171.33ZM264.38 1169.16C265.089 1169.16 265.654 1168.81 266.077 1168.09C266.499 1167.38 266.709 1166.31 266.705 1164.89C266.705 1163.95 266.608 1163.17 266.415 1162.55C266.226 1161.92 265.956 1161.45 265.606 1161.14C265.26 1160.83 264.851 1160.67 264.38 1160.67C263.676 1160.67 263.113 1161.02 262.69 1161.72C262.267 1162.43 262.054 1163.48 262.05 1164.89C262.05 1165.84 262.145 1166.63 262.334 1167.27C262.527 1167.9 262.799 1168.37 263.149 1168.69C263.499 1169.01 263.91 1169.16 264.38 1169.16ZM271.237 1171.06V1169.17L275.638 1165.1C276.012 1164.74 276.326 1164.41 276.58 1164.12C276.837 1163.83 277.032 1163.55 277.165 1163.27C277.298 1162.99 277.364 1162.68 277.364 1162.36C277.364 1162 277.282 1161.68 277.117 1161.42C276.952 1161.16 276.726 1160.95 276.441 1160.81C276.155 1160.67 275.831 1160.6 275.469 1160.6C275.09 1160.6 274.76 1160.67 274.479 1160.83C274.197 1160.98 273.98 1161.2 273.827 1161.48C273.674 1161.77 273.597 1162.11 273.597 1162.5H271.116C271.116 1161.69 271.299 1160.99 271.665 1160.4C272.032 1159.8 272.545 1159.34 273.205 1159.01C273.865 1158.69 274.626 1158.53 275.487 1158.53C276.372 1158.53 277.143 1158.68 277.799 1159C278.459 1159.31 278.972 1159.74 279.338 1160.29C279.705 1160.84 279.888 1161.47 279.888 1162.18C279.888 1162.65 279.795 1163.11 279.61 1163.57C279.429 1164.02 279.105 1164.53 278.638 1165.08C278.171 1165.63 277.513 1166.29 276.664 1167.07L274.859 1168.84V1168.92H280.051V1171.06H271.237Z" fill="#4A5A62"/>
<path d="M928.421 986.777H554.835C551.06 986.777 548.001 990.042 548.001 994.07V1271.22C548.001 1275.25 551.06 1278.51 554.835 1278.51H928.421C932.195 1278.51 935.255 1275.25 935.255 1271.22V994.07C935.255 990.042 932.195 986.777 928.421 986.777Z" fill="#EAF1F3" stroke="#B3C0C6" stroke-width="2"/>
<path d="M716.049 1143.45V1131.08H720.926C721.86 1131.08 722.657 1131.25 723.317 1131.58C723.981 1131.91 724.486 1132.38 724.832 1132.99C725.182 1133.59 725.358 1134.3 725.358 1135.12C725.358 1135.94 725.18 1136.65 724.826 1137.24C724.472 1137.83 723.959 1138.28 723.287 1138.59C722.619 1138.91 721.81 1139.06 720.86 1139.06H717.594V1136.96H720.437C720.936 1136.96 721.351 1136.89 721.681 1136.76C722.011 1136.62 722.257 1136.42 722.418 1136.14C722.583 1135.87 722.665 1135.53 722.665 1135.12C722.665 1134.71 722.583 1134.36 722.418 1134.08C722.257 1133.8 722.009 1133.59 721.675 1133.44C721.345 1133.29 720.928 1133.22 720.425 1133.22H718.663V1143.45H716.049ZM722.725 1137.82L725.798 1143.45H722.913L719.906 1137.82H722.725ZM738.566 1137.26C738.566 1138.61 738.311 1139.76 737.8 1140.71C737.293 1141.65 736.6 1142.37 735.723 1142.87C734.85 1143.37 733.868 1143.62 732.777 1143.62C731.678 1143.62 730.692 1143.37 729.819 1142.87C728.945 1142.37 728.255 1141.65 727.748 1140.7C727.241 1139.75 726.987 1138.61 726.987 1137.26C726.987 1135.92 727.241 1134.77 727.748 1133.82C728.255 1132.88 728.945 1132.16 729.819 1131.66C730.692 1131.16 731.678 1130.91 732.777 1130.91C733.868 1130.91 734.85 1131.16 735.723 1131.66C736.6 1132.16 737.293 1132.88 737.8 1133.82C738.311 1134.77 738.566 1135.92 738.566 1137.26ZM735.916 1137.26C735.916 1136.39 735.785 1135.65 735.524 1135.05C735.266 1134.46 734.902 1134 734.431 1133.69C733.96 1133.38 733.409 1133.23 732.777 1133.23C732.145 1133.23 731.594 1133.38 731.123 1133.69C730.652 1134 730.286 1134.46 730.024 1135.05C729.766 1135.65 729.638 1136.39 729.638 1137.26C729.638 1138.14 729.766 1138.87 730.024 1139.47C730.286 1140.07 730.652 1140.53 731.123 1140.84C731.594 1141.15 732.145 1141.3 732.777 1141.3C733.409 1141.3 733.96 1141.15 734.431 1140.84C734.902 1140.53 735.266 1140.07 735.524 1139.47C735.785 1138.87 735.916 1138.14 735.916 1137.26ZM751.864 1137.26C751.864 1138.61 751.609 1139.76 751.097 1140.71C750.59 1141.65 749.898 1142.37 749.021 1142.87C748.147 1143.37 747.165 1143.62 746.075 1143.62C744.976 1143.62 743.99 1143.37 743.117 1142.87C742.243 1142.37 741.553 1141.65 741.046 1140.7C740.539 1139.75 740.285 1138.61 740.285 1137.26C740.285 1135.92 740.539 1134.77 741.046 1133.82C741.553 1132.88 742.243 1132.16 743.117 1131.66C743.99 1131.16 744.976 1130.91 746.075 1130.91C747.165 1130.91 748.147 1131.16 749.021 1131.66C749.898 1132.16 750.59 1132.88 751.097 1133.82C751.609 1134.77 751.864 1135.92 751.864 1137.26ZM749.214 1137.26C749.214 1136.39 749.083 1135.65 748.822 1135.05C748.564 1134.46 748.2 1134 747.729 1133.69C747.258 1133.38 746.707 1133.23 746.075 1133.23C745.443 1133.23 744.892 1133.38 744.421 1133.69C743.95 1134 743.584 1134.46 743.322 1135.05C743.064 1135.65 742.936 1136.39 742.936 1137.26C742.936 1138.14 743.064 1138.87 743.322 1139.47C743.584 1140.07 743.95 1140.53 744.421 1140.84C744.892 1141.15 745.443 1141.3 746.075 1141.3C746.707 1141.3 747.258 1141.15 747.729 1140.84C748.2 1140.53 748.564 1140.07 748.822 1139.47C749.083 1138.87 749.214 1138.14 749.214 1137.26ZM753.801 1131.08H757.024L760.429 1139.39H760.574L763.979 1131.08H767.203V1143.45H764.667V1135.4H764.564L761.365 1143.39H759.638L756.439 1135.37H756.336V1143.45H753.801V1131.08ZM731.656 1164.62C730.803 1164.62 730.042 1164.46 729.374 1164.14C728.71 1163.83 728.183 1163.4 727.793 1162.85C727.402 1162.3 727.199 1161.66 727.183 1160.95H729.718C729.747 1161.43 729.948 1161.82 730.322 1162.12C730.696 1162.41 731.141 1162.56 731.656 1162.56C732.067 1162.56 732.429 1162.47 732.743 1162.29C733.061 1162.11 733.308 1161.85 733.485 1161.52C733.667 1161.19 733.757 1160.82 733.757 1160.39C733.757 1159.95 733.665 1159.57 733.479 1159.24C733.298 1158.91 733.047 1158.65 732.725 1158.47C732.403 1158.28 732.035 1158.19 731.62 1158.19C731.258 1158.19 730.906 1158.26 730.564 1158.41C730.226 1158.56 729.962 1158.76 729.773 1159.02L727.449 1158.6L728.034 1152.08H735.592V1154.22H730.189L729.869 1157.32H729.942C730.159 1157.01 730.487 1156.76 730.926 1156.56C731.365 1156.35 731.856 1156.25 732.399 1156.25C733.143 1156.25 733.807 1156.43 734.391 1156.78C734.975 1157.13 735.435 1157.61 735.773 1158.22C736.112 1158.83 736.279 1159.53 736.275 1160.32C736.279 1161.16 736.085 1161.9 735.695 1162.54C735.309 1163.19 734.767 1163.7 734.071 1164.07C733.379 1164.43 732.574 1164.62 731.656 1164.62ZM742.945 1164.72C741.907 1164.71 741.014 1164.46 740.265 1163.95C739.52 1163.44 738.947 1162.71 738.544 1161.75C738.146 1160.79 737.949 1159.63 737.953 1158.28C737.953 1156.93 738.152 1155.78 738.55 1154.83C738.953 1153.88 739.526 1153.16 740.271 1152.66C741.02 1152.16 741.911 1151.91 742.945 1151.91C743.98 1151.91 744.869 1152.16 745.614 1152.66C746.362 1153.16 746.938 1153.89 747.34 1154.84C747.743 1155.78 747.942 1156.93 747.938 1158.28C747.938 1159.63 747.737 1160.79 747.334 1161.75C746.936 1162.72 746.364 1163.45 745.62 1163.96C744.875 1164.46 743.984 1164.72 742.945 1164.72ZM742.945 1162.55C743.654 1162.55 744.219 1162.19 744.642 1161.48C745.064 1160.77 745.274 1159.7 745.27 1158.28C745.27 1157.34 745.173 1156.56 744.98 1155.93C744.791 1155.31 744.521 1154.84 744.171 1154.53C743.825 1154.21 743.416 1154.06 742.945 1154.06C742.241 1154.06 741.678 1154.41 741.255 1155.11C740.832 1155.82 740.619 1156.87 740.615 1158.28C740.615 1159.23 740.71 1160.02 740.899 1160.66C741.092 1161.29 741.364 1161.76 741.714 1162.08C742.064 1162.39 742.474 1162.55 742.945 1162.55ZM755.181 1152.08V1164.45H752.567V1154.56H752.494L749.663 1156.34V1154.02L752.724 1152.08H755.181Z" fill="#4A5A62"/>
<path d="M929.28 271.901H602.686C599.387 271.901 596.712 275.074 596.712 278.988V548.285C596.712 552.199 599.387 555.372 602.686 555.372H929.28C932.58 555.372 935.255 552.199 935.255 548.285V278.988C935.255 275.074 932.58 271.901 929.28 271.901Z" fill="#EAF1F3" stroke="#B3C0C6" stroke-width="2"/>
<path d="M740.404 417V404.636H745.282C746.216 404.636 747.012 404.803 747.673 405.137C748.337 405.467 748.842 405.936 749.188 406.544C749.538 407.148 749.713 407.858 749.713 408.675C749.713 409.496 749.536 410.202 749.182 410.794C748.828 411.382 748.314 411.832 747.642 412.146C746.974 412.46 746.165 412.617 745.215 412.617H741.949V410.516H744.793C745.292 410.516 745.706 410.448 746.036 410.311C746.367 410.174 746.612 409.969 746.773 409.695C746.938 409.422 747.021 409.082 747.021 408.675C747.021 408.265 746.938 407.918 746.773 407.637C746.612 407.355 746.365 407.142 746.03 406.997C745.7 406.848 745.284 406.773 744.781 406.773H743.018V417H740.404ZM747.081 411.374L750.154 417H747.268L744.262 411.374H747.081ZM762.922 410.818C762.922 412.166 762.666 413.313 762.155 414.259C761.648 415.205 760.956 415.927 760.078 416.426C759.205 416.922 758.223 417.169 757.132 417.169C756.034 417.169 755.048 416.92 754.174 416.42C753.301 415.921 752.611 415.199 752.104 414.253C751.597 413.307 751.343 412.162 751.343 410.818C751.343 409.47 751.597 408.323 752.104 407.377C752.611 406.431 753.301 405.711 754.174 405.216C755.048 404.717 756.034 404.467 757.132 404.467C758.223 404.467 759.205 404.717 760.078 405.216C760.956 405.711 761.648 406.431 762.155 407.377C762.666 408.323 762.922 409.47 762.922 410.818ZM760.272 410.818C760.272 409.945 760.141 409.208 759.879 408.609C759.622 408.009 759.257 407.554 758.786 407.244C758.316 406.934 757.764 406.779 757.132 406.779C756.501 406.779 755.949 406.934 755.478 407.244C755.007 407.554 754.641 408.009 754.38 408.609C754.122 409.208 753.993 409.945 753.993 410.818C753.993 411.692 754.122 412.428 754.38 413.028C754.641 413.627 755.007 414.082 755.478 414.392C755.949 414.702 756.501 414.857 757.132 414.857C757.764 414.857 758.316 414.702 758.786 414.392C759.257 414.082 759.622 413.627 759.879 413.028C760.141 412.428 760.272 411.692 760.272 410.818ZM776.22 410.818C776.22 412.166 775.964 413.313 775.453 414.259C774.946 415.205 774.254 415.927 773.376 416.426C772.503 416.922 771.521 417.169 770.43 417.169C769.332 417.169 768.345 416.92 767.472 416.42C766.599 415.921 765.909 415.199 765.401 414.253C764.894 413.307 764.641 412.162 764.641 410.818C764.641 409.47 764.894 408.323 765.401 407.377C765.909 406.431 766.599 405.711 767.472 405.216C768.345 404.717 769.332 404.467 770.43 404.467C771.521 404.467 772.503 404.717 773.376 405.216C774.254 405.711 774.946 406.431 775.453 407.377C775.964 408.323 776.22 409.47 776.22 410.818ZM773.569 410.818C773.569 409.945 773.439 409.208 773.177 408.609C772.919 408.009 772.555 407.554 772.084 407.244C771.613 406.934 771.062 406.779 770.43 406.779C769.798 406.779 769.247 406.934 768.776 407.244C768.305 407.554 767.939 408.009 767.677 408.609C767.42 409.208 767.291 409.945 767.291 410.818C767.291 411.692 767.42 412.428 767.677 413.028C767.939 413.627 768.305 414.082 768.776 414.392C769.247 414.702 769.798 414.857 770.43 414.857C771.062 414.857 771.613 414.702 772.084 414.392C772.555 414.082 772.919 413.627 773.177 413.028C773.439 412.428 773.569 411.692 773.569 410.818ZM778.156 404.636H781.38L784.785 412.943H784.929L788.334 404.636H791.558V417H789.022V408.953H788.92L785.72 416.94H783.994L780.794 408.923H780.692V417H778.156V404.636ZM754.559 438.169C753.706 438.169 752.945 438.012 752.277 437.698C751.613 437.384 751.086 436.952 750.695 436.4C750.305 435.849 750.102 435.217 750.086 434.505H752.621C752.649 434.984 752.851 435.372 753.225 435.67C753.599 435.968 754.044 436.116 754.559 436.116C754.97 436.116 755.332 436.026 755.646 435.845C755.964 435.66 756.211 435.404 756.388 435.078C756.569 434.748 756.66 434.37 756.66 433.943C756.66 433.509 756.567 433.126 756.382 432.796C756.201 432.466 755.95 432.209 755.628 432.023C755.306 431.838 754.937 431.744 754.523 431.74C754.161 431.74 753.809 431.814 753.466 431.963C753.128 432.112 752.865 432.315 752.676 432.573L750.351 432.156L750.937 425.636H758.495V427.773H753.092L752.772 430.87H752.845C753.062 430.565 753.39 430.311 753.829 430.11C754.267 429.908 754.758 429.808 755.302 429.808C756.046 429.808 756.71 429.983 757.294 430.333C757.877 430.683 758.338 431.164 758.676 431.776C759.014 432.384 759.181 433.084 759.177 433.877C759.181 434.71 758.988 435.45 758.598 436.098C758.211 436.742 757.67 437.249 756.974 437.62C756.282 437.986 755.477 438.169 754.559 438.169ZM765.848 438.272C764.81 438.268 763.916 438.012 763.168 437.505C762.423 436.998 761.85 436.263 761.447 435.301C761.049 434.34 760.852 433.183 760.856 431.83C760.856 430.482 761.055 429.333 761.453 428.383C761.856 427.433 762.429 426.711 763.174 426.216C763.922 425.717 764.814 425.467 765.848 425.467C766.883 425.467 767.772 425.717 768.517 426.216C769.265 426.715 769.841 427.439 770.243 428.389C770.646 429.335 770.845 430.482 770.841 431.83C770.841 433.187 770.64 434.346 770.237 435.308C769.839 436.269 769.267 437.004 768.523 437.511C767.778 438.018 766.887 438.272 765.848 438.272ZM765.848 436.104C766.557 436.104 767.122 435.748 767.545 435.036C767.967 434.324 768.176 433.255 768.172 431.83C768.172 430.893 768.076 430.112 767.883 429.488C767.693 428.864 767.424 428.395 767.074 428.081C766.728 427.767 766.319 427.61 765.848 427.61C765.144 427.61 764.58 427.963 764.158 428.667C763.735 429.371 763.522 430.426 763.518 431.83C763.518 432.78 763.613 433.573 763.802 434.209C763.995 434.841 764.267 435.316 764.617 435.634C764.967 435.947 765.377 436.104 765.848 436.104ZM777.45 438.169C776.814 438.165 776.2 438.058 775.608 437.849C775.021 437.64 774.494 437.3 774.027 436.829C773.56 436.358 773.19 435.734 772.916 434.957C772.646 434.181 772.511 433.227 772.511 432.096C772.515 431.058 772.634 430.13 772.868 429.313C773.105 428.492 773.443 427.796 773.882 427.224C774.325 426.653 774.854 426.218 775.47 425.92C776.085 425.618 776.776 425.467 777.54 425.467C778.365 425.467 779.094 425.628 779.726 425.95C780.357 426.268 780.865 426.701 781.247 427.248C781.633 427.796 781.867 428.409 781.947 429.089H779.369C779.269 428.659 779.058 428.321 778.736 428.075C778.414 427.83 778.015 427.707 777.54 427.707C776.735 427.707 776.124 428.057 775.705 428.757C775.29 429.458 775.079 430.41 775.071 431.613H775.156C775.341 431.247 775.59 430.935 775.904 430.677C776.222 430.416 776.582 430.216 776.985 430.08C777.391 429.939 777.82 429.868 778.271 429.868C779.003 429.868 779.655 430.041 780.227 430.387C780.798 430.73 781.249 431.2 781.579 431.8C781.909 432.4 782.074 433.086 782.074 433.859C782.074 434.696 781.879 435.44 781.488 436.092C781.102 436.744 780.561 437.255 779.864 437.626C779.172 437.992 778.367 438.173 777.45 438.169ZM777.438 436.116C777.84 436.116 778.2 436.02 778.518 435.827C778.836 435.634 779.086 435.372 779.267 435.042C779.448 434.712 779.538 434.342 779.538 433.931C779.538 433.521 779.448 433.152 779.267 432.826C779.09 432.5 778.844 432.241 778.53 432.048C778.216 431.854 777.858 431.758 777.456 431.758C777.154 431.758 776.874 431.814 776.617 431.927C776.363 432.04 776.14 432.196 775.946 432.398C775.757 432.599 775.608 432.832 775.5 433.098C775.391 433.36 775.337 433.639 775.337 433.937C775.337 434.336 775.427 434.7 775.608 435.03C775.794 435.36 776.043 435.623 776.357 435.821C776.675 436.018 777.035 436.116 777.438 436.116Z" fill="#4A5A62"/>
<path d="M452.618 685.95H75.8988C72.0929 685.95 69.0076 689.216 69.0076 693.244V970.393C69.0076 974.421 72.0929 977.686 75.8988 977.686H452.618C456.424 977.686 459.509 974.421 459.509 970.393V693.244C459.509 689.216 456.424 685.95 452.618 685.95Z" fill="#EAF1F3" stroke="#B3C0C6" stroke-width="2"/>
<path d="M238.679 849.231V836.868H243.557C244.49 836.868 245.287 837.035 245.947 837.369C246.611 837.699 247.117 838.168 247.463 838.775C247.813 839.379 247.988 840.09 247.988 840.907C247.988 841.728 247.811 842.434 247.457 843.025C247.102 843.613 246.589 844.064 245.917 844.378C245.249 844.692 244.44 844.849 243.49 844.849H240.224V842.748H243.068C243.567 842.748 243.981 842.679 244.311 842.543C244.641 842.406 244.887 842.2 245.048 841.927C245.213 841.653 245.295 841.313 245.295 840.907C245.295 840.496 245.213 840.15 245.048 839.868C244.887 839.586 244.639 839.373 244.305 839.228C243.975 839.079 243.559 839.005 243.056 839.005H241.293V849.231H238.679ZM245.356 843.605L248.429 849.231H245.543L242.537 843.605H245.356ZM261.197 843.05C261.197 844.398 260.941 845.545 260.43 846.491C259.923 847.436 259.231 848.159 258.353 848.658C257.48 849.153 256.498 849.4 255.407 849.4C254.309 849.4 253.323 849.151 252.449 848.652C251.576 848.153 250.886 847.43 250.379 846.485C249.871 845.539 249.618 844.394 249.618 843.05C249.618 841.701 249.871 840.554 250.379 839.609C250.886 838.663 251.576 837.942 252.449 837.447C253.323 836.948 254.309 836.699 255.407 836.699C256.498 836.699 257.48 836.948 258.353 837.447C259.231 837.942 259.923 838.663 260.43 839.609C260.941 840.554 261.197 841.701 261.197 843.05ZM258.546 843.05C258.546 842.176 258.416 841.44 258.154 840.84C257.897 840.24 257.532 839.786 257.061 839.476C256.591 839.166 256.039 839.011 255.407 839.011C254.775 839.011 254.224 839.166 253.753 839.476C253.282 839.786 252.916 840.24 252.654 840.84C252.397 841.44 252.268 842.176 252.268 843.05C252.268 843.923 252.397 844.659 252.654 845.259C252.916 845.859 253.282 846.314 253.753 846.623C254.224 846.933 254.775 847.088 255.407 847.088C256.039 847.088 256.591 846.933 257.061 846.623C257.532 846.314 257.897 845.859 258.154 845.259C258.416 844.659 258.546 843.923 258.546 843.05ZM274.495 843.05C274.495 844.398 274.239 845.545 273.728 846.491C273.221 847.436 272.529 848.159 271.651 848.658C270.778 849.153 269.796 849.4 268.705 849.4C267.606 849.4 266.62 849.151 265.747 848.652C264.874 848.153 264.183 847.43 263.676 846.485C263.169 845.539 262.916 844.394 262.916 843.05C262.916 841.701 263.169 840.554 263.676 839.609C264.183 838.663 264.874 837.942 265.747 837.447C266.62 836.948 267.606 836.699 268.705 836.699C269.796 836.699 270.778 836.948 271.651 837.447C272.529 837.942 273.221 838.663 273.728 839.609C274.239 840.554 274.495 841.701 274.495 843.05ZM271.844 843.05C271.844 842.176 271.714 841.44 271.452 840.84C271.194 840.24 270.83 839.786 270.359 839.476C269.888 839.166 269.337 839.011 268.705 839.011C268.073 839.011 267.522 839.166 267.051 839.476C266.58 839.786 266.214 840.24 265.952 840.84C265.695 841.44 265.566 842.176 265.566 843.05C265.566 843.923 265.695 844.659 265.952 845.259C266.214 845.859 266.58 846.314 267.051 846.623C267.522 846.933 268.073 847.088 268.705 847.088C269.337 847.088 269.888 846.933 270.359 846.623C270.83 846.314 271.194 845.859 271.452 845.259C271.714 844.659 271.844 843.923 271.844 843.05ZM276.431 836.868H279.655L283.059 845.175H283.204L286.609 836.868H289.833V849.231H287.297V841.184H287.195L283.995 849.171H282.269L279.069 841.154H278.966V849.231H276.431V836.868ZM252.842 870.4C251.989 870.4 251.228 870.244 250.56 869.93C249.896 869.616 249.369 869.183 248.979 868.632C248.588 868.08 248.385 867.448 248.369 866.736H250.904C250.933 867.215 251.134 867.603 251.508 867.901C251.882 868.199 252.327 868.348 252.842 868.348C253.253 868.348 253.615 868.257 253.929 868.076C254.247 867.891 254.494 867.636 254.672 867.31C254.853 866.98 254.943 866.601 254.943 866.175C254.943 865.74 254.851 865.358 254.665 865.028C254.484 864.698 254.233 864.44 253.911 864.255C253.589 864.07 253.221 863.975 252.806 863.971C252.444 863.971 252.092 864.046 251.75 864.195C251.412 864.343 251.148 864.547 250.959 864.804L248.635 864.388L249.22 857.868H256.778V860.005H251.375L251.055 863.102H251.128C251.345 862.796 251.673 862.542 252.112 862.341C252.551 862.14 253.042 862.039 253.585 862.039C254.329 862.039 254.993 862.214 255.577 862.565C256.161 862.915 256.621 863.396 256.96 864.007C257.298 864.615 257.465 865.315 257.461 866.108C257.465 866.941 257.271 867.682 256.881 868.33C256.495 868.974 255.953 869.481 255.257 869.851C254.565 870.217 253.76 870.4 252.842 870.4ZM264.131 870.503C263.093 870.499 262.2 870.244 261.451 869.736C260.706 869.229 260.133 868.495 259.73 867.533C259.332 866.571 259.135 865.414 259.139 864.062C259.139 862.713 259.338 861.564 259.737 860.615C260.139 859.665 260.712 858.942 261.457 858.447C262.206 857.948 263.097 857.699 264.131 857.699C265.166 857.699 266.055 857.948 266.8 858.447C267.548 858.946 268.124 859.671 268.526 860.621C268.929 861.566 269.128 862.713 269.124 864.062C269.124 865.418 268.923 866.577 268.52 867.539C268.122 868.501 267.55 869.235 266.806 869.742C266.061 870.25 265.17 870.503 264.131 870.503ZM264.131 868.336C264.84 868.336 265.405 867.98 265.828 867.267C266.25 866.555 266.46 865.486 266.456 864.062C266.456 863.124 266.359 862.343 266.166 861.719C265.977 861.096 265.707 860.627 265.357 860.313C265.011 859.999 264.602 859.842 264.131 859.842C263.427 859.842 262.864 860.194 262.441 860.898C262.018 861.603 261.805 862.657 261.801 864.062C261.801 865.012 261.896 865.804 262.085 866.44C262.278 867.072 262.55 867.547 262.9 867.865C263.25 868.179 263.661 868.336 264.131 868.336ZM275.558 870.4C274.656 870.4 273.853 870.246 273.149 869.936C272.449 869.622 271.895 869.191 271.489 868.644C271.086 868.092 270.879 867.456 270.867 866.736H273.499C273.515 867.038 273.614 867.304 273.795 867.533C273.98 867.758 274.226 867.933 274.532 868.058C274.837 868.183 275.182 868.245 275.564 868.245C275.962 868.245 276.314 868.175 276.62 868.034C276.926 867.893 277.166 867.698 277.339 867.448C277.512 867.199 277.598 866.911 277.598 866.585C277.598 866.255 277.506 865.963 277.321 865.71C277.139 865.452 276.878 865.251 276.536 865.106C276.198 864.961 275.795 864.889 275.328 864.889H274.175V862.969H275.328C275.723 862.969 276.071 862.901 276.373 862.764C276.679 862.627 276.916 862.438 277.085 862.196C277.254 861.951 277.339 861.665 277.339 861.339C277.339 861.029 277.264 860.757 277.115 860.524C276.97 860.287 276.765 860.101 276.5 859.969C276.238 859.836 275.932 859.769 275.582 859.769C275.228 859.769 274.904 859.834 274.61 859.963C274.316 860.087 274.081 860.266 273.904 860.5C273.727 860.733 273.632 861.007 273.62 861.321H271.115C271.127 860.609 271.33 859.981 271.724 859.437C272.119 858.894 272.65 858.469 273.318 858.164C273.99 857.854 274.749 857.699 275.594 857.699C276.447 857.699 277.194 857.854 277.834 858.164C278.474 858.474 278.971 858.892 279.325 859.419C279.683 859.943 279.86 860.53 279.856 861.182C279.86 861.874 279.645 862.452 279.21 862.915C278.78 863.378 278.218 863.671 277.526 863.796V863.893C278.435 864.009 279.128 864.325 279.603 864.84C280.081 865.352 280.319 865.992 280.315 866.76C280.319 867.465 280.116 868.09 279.705 868.638C279.299 869.185 278.737 869.616 278.021 869.93C277.304 870.244 276.483 870.4 275.558 870.4Z" fill="#4A5A62"/>
<path d="M931.262 573.554H804.48C802.275 573.554 800.487 575.193 800.487 577.216V688.9C800.487 690.923 802.275 692.562 804.48 692.562H931.262C933.467 692.562 935.255 690.923 935.255 688.9V577.216C935.255 575.193 933.467 573.554 931.262 573.554Z" fill="#CDD9DE" stroke="#8FA9B3" stroke-width="2"/>
<path d="M830.844 637.967V627.058H838.195V628.959H833.15V631.559H837.816V633.461H833.15V636.065H838.216V637.967H830.844ZM840.028 637.967V627.058H842.335V636.065H847.012V637.967H840.028ZM848.539 637.967V627.058H855.89V628.959H850.845V631.559H855.512V633.461H850.845V636.065H855.911V637.967H848.539ZM859.694 627.058L862.331 635.346H862.432L865.074 627.058H867.631L863.871 637.967H860.898L857.132 627.058H859.694ZM869.374 637.967H866.903L870.669 627.058H873.641L877.402 637.967H874.93L872.198 629.551H872.112L869.374 637.967ZM869.22 633.679H875.058V635.479H869.22V633.679ZM876.966 628.959V627.058H885.926V628.959H882.586V637.967H880.306V628.959H876.966ZM896.928 632.512C896.928 633.702 896.703 634.714 896.252 635.549C895.804 636.383 895.193 637.021 894.419 637.461C893.649 637.898 892.782 638.116 891.82 638.116C890.85 638.116 889.98 637.896 889.21 637.456C888.439 637.015 887.83 636.378 887.383 635.543C886.935 634.709 886.711 633.698 886.711 632.512C886.711 631.323 886.935 630.311 887.383 629.476C887.83 628.642 888.439 628.006 889.21 627.569C889.98 627.129 890.85 626.909 891.82 626.909C892.782 626.909 893.649 627.129 894.419 627.569C895.193 628.006 895.804 628.642 896.252 629.476C896.703 630.311 896.928 631.323 896.928 632.512ZM894.59 632.512C894.59 631.742 894.474 631.092 894.243 630.563C894.016 630.034 893.695 629.632 893.279 629.359C892.864 629.086 892.377 628.949 891.82 628.949C891.262 628.949 890.776 629.086 890.36 629.359C889.945 629.632 889.622 630.034 889.391 630.563C889.164 631.092 889.05 631.742 889.05 632.512C889.05 633.283 889.164 633.933 889.391 634.462C889.622 634.991 889.945 635.392 890.36 635.666C890.776 635.939 891.262 636.076 891.82 636.076C892.377 636.076 892.864 635.939 893.279 635.666C893.695 635.392 894.016 634.991 894.243 634.462C894.474 633.933 894.59 633.283 894.59 632.512ZM898.637 637.967V627.058H902.941C903.764 627.058 904.468 627.205 905.05 627.5C905.636 627.791 906.082 628.205 906.387 628.741C906.696 629.274 906.85 629.901 906.85 630.621C906.85 631.346 906.694 631.969 906.382 632.491C906.069 633.01 905.616 633.407 905.023 633.684C904.434 633.961 903.72 634.1 902.882 634.1H900V632.246H902.509C902.949 632.246 903.315 632.186 903.606 632.065C903.898 631.944 904.114 631.763 904.256 631.522C904.402 631.28 904.475 630.98 904.475 630.621C904.475 630.259 904.402 629.954 904.256 629.705C904.114 629.457 903.896 629.268 903.601 629.141C903.31 629.009 902.942 628.943 902.498 628.943H900.943V637.967H898.637ZM904.528 633.002L907.239 637.967H904.693L902.04 633.002H904.528Z" fill="#43606B"/>
<path d="M831.993 833.39C831.944 832.961 831.757 832.63 831.43 832.397C831.103 832.164 830.663 832.052 830.109 832.061C829.733 832.066 829.416 832.125 829.158 832.235C828.9 832.342 828.704 832.489 828.568 832.676C828.436 832.862 828.371 833.073 828.375 833.307C828.371 833.503 828.414 833.672 828.505 833.817C828.599 833.961 828.727 834.085 828.889 834.189C829.05 834.289 829.236 834.377 829.447 834.452C829.657 834.523 829.882 834.584 830.12 834.634L831.104 834.853C831.581 834.952 832.02 835.088 832.42 835.259C832.821 835.431 833.168 835.644 833.463 835.898C833.758 836.153 833.988 836.455 834.153 836.804C834.322 837.153 834.411 837.555 834.421 838.009C834.428 838.677 834.266 839.258 833.936 839.754C833.609 840.245 833.132 840.631 832.504 840.91C831.879 841.186 831.123 841.331 830.235 841.344C829.355 841.358 828.586 841.235 827.928 840.975C827.275 840.715 826.761 840.323 826.388 839.8C826.018 839.272 825.818 838.617 825.789 837.832L828.02 837.798C828.05 838.164 828.16 838.467 828.348 838.709C828.54 838.948 828.793 839.127 829.107 839.247C829.425 839.362 829.782 839.417 830.18 839.411C830.571 839.405 830.909 839.343 831.195 839.225C831.484 839.107 831.708 838.946 831.864 838.741C832.021 838.536 832.098 838.302 832.094 838.04C832.09 837.795 832.014 837.59 831.866 837.425C831.722 837.26 831.51 837.122 831.232 837.009C830.956 836.896 830.619 836.794 830.22 836.704L829.028 836.424C828.105 836.215 827.374 835.876 826.834 835.408C826.295 834.941 826.021 834.304 826.012 833.498C825.999 832.837 826.166 832.258 826.514 831.759C826.865 831.26 827.352 830.867 827.972 830.58C828.593 830.294 829.301 830.145 830.097 830.132C830.906 830.12 831.615 830.248 832.223 830.515C832.834 830.783 833.312 831.161 833.656 831.65C834.001 832.138 834.183 832.707 834.204 833.357L831.993 833.39ZM835.47 832.101L835.442 830.2L844.401 830.063L844.429 831.965L841.089 832.016L841.222 841.022L838.942 841.057L838.81 832.05L835.47 832.101ZM846.584 840.94L844.113 840.978L847.718 830.013L850.69 829.967L854.61 840.818L852.139 840.855L849.283 832.482L849.198 832.483L846.584 840.94ZM846.366 836.655L852.204 836.566L852.23 838.366L846.393 838.455L846.366 836.655ZM858.069 829.854L858.23 840.762L855.923 840.798L855.763 829.89L858.069 829.854ZM860.127 840.733L859.966 829.826L864.27 829.76C865.094 829.747 865.799 829.884 866.385 830.17C866.976 830.452 867.427 830.859 867.741 831.39C868.057 831.918 868.221 832.543 868.232 833.263C868.242 833.988 868.095 834.613 867.79 835.14C867.486 835.663 867.039 836.068 866.45 836.354C865.865 836.64 865.153 836.789 864.315 836.802L861.433 836.846L861.406 834.992L863.915 834.954C864.355 834.947 864.72 834.881 865.009 834.756C865.299 834.631 865.513 834.447 865.651 834.203C865.793 833.959 865.861 833.658 865.856 833.3C865.851 832.937 865.774 832.633 865.624 832.387C865.479 832.14 865.257 831.956 864.961 831.832C864.668 831.705 864.299 831.645 863.855 831.652L862.3 831.676L862.433 840.698L860.127 840.733ZM865.944 835.68L868.729 840.602L866.183 840.641L863.457 835.718L865.944 835.68ZM875.772 832.722C875.723 832.293 875.536 831.962 875.209 831.729C874.882 831.496 874.442 831.384 873.888 831.392C873.512 831.398 873.195 831.456 872.937 831.567C872.68 831.674 872.483 831.82 872.347 832.007C872.215 832.194 872.15 832.404 872.154 832.639C872.15 832.834 872.193 833.004 872.284 833.148C872.378 833.292 872.506 833.416 872.668 833.521C872.829 833.621 873.015 833.709 873.226 833.784C873.436 833.855 873.661 833.916 873.9 833.965L874.883 834.185C875.36 834.284 875.799 834.419 876.199 834.591C876.6 834.762 876.947 834.975 877.242 835.23C877.537 835.485 877.767 835.787 877.932 836.136C878.101 836.485 878.19 836.887 878.2 837.341C878.207 838.009 878.045 838.59 877.715 839.085C877.388 839.577 876.911 839.962 876.283 840.242C875.658 840.518 874.902 840.662 874.014 840.676C873.134 840.689 872.365 840.566 871.708 840.306C871.054 840.046 870.54 839.655 870.167 839.131C869.797 838.604 869.597 837.948 869.568 837.164L871.799 837.13C871.829 837.495 871.939 837.799 872.127 838.041C872.319 838.28 872.572 838.459 872.886 838.578C873.204 838.694 873.562 838.749 873.959 838.743C874.35 838.737 874.688 838.675 874.974 838.557C875.263 838.439 875.487 838.277 875.643 838.073C875.8 837.868 875.877 837.634 875.873 837.371C875.869 837.126 875.793 836.921 875.645 836.757C875.501 836.592 875.289 836.453 875.011 836.34C874.735 836.227 874.398 836.126 873.999 836.036L872.807 835.756C871.884 835.546 871.153 835.208 870.613 834.74C870.074 834.272 869.8 833.635 869.791 832.829C869.778 832.169 869.945 831.589 870.293 831.09C870.645 830.591 871.131 830.198 871.751 829.912C872.372 829.625 873.08 829.476 873.876 829.464C874.685 829.452 875.394 829.579 876.002 829.847C876.613 830.115 877.091 830.493 877.435 830.981C877.78 831.47 877.962 832.039 877.983 832.688L875.772 832.722Z" fill="#5A6D75"/>
</g>
<defs>
<clipPath id="clip0_564_173">
<rect width="1000" height="1400" fill="white"/>
</clipPath>
</defs>
</svg>
