<svg width="1000" height="1400" viewBox="0 0 1000 1400" fill="none" xmlns="http://www.w3.org/2000/svg">
<g clip-path="url(#clip0_551_164)">
<path d="M1000.2 0H0.203003V1400H1000.2V0Z" fill="#EEF2F4"/>
<path d="M942.203 60H58.2029C53.7846 60 50.2029 63.5817 50.2029 68V1292C50.2029 1296.42 53.7846 1300 58.2029 1300H942.203C946.621 1300 950.203 1296.42 950.203 1292V68C950.203 63.5817 946.621 60 942.203 60Z" fill="#F8FAFB" stroke="#2B3B42" stroke-width="8"/>
<path d="M186.171 75.2067H74.0275C71.8155 75.2067 70.0223 76.8581 70.0223 78.8952V159.121C70.0223 161.159 71.8155 162.81 74.0275 162.81H186.171C188.383 162.81 190.177 161.159 190.177 159.121V78.8952C190.177 76.8581 188.383 75.2067 186.171 75.2067Z" stroke="#B3C0C6" stroke-width="2" stroke-dasharray="8 6"/>
<path d="M101.569 128H99.2617L102.777 117.818H105.551L109.061 128H106.754L104.203 120.145H104.124L101.569 128ZM101.424 123.998H106.873V125.678H101.424V123.998ZM112.439 117.818V128H110.286V117.818H112.439ZM114.21 128V117.818H118.227C118.996 117.818 119.652 117.956 120.196 118.231C120.743 118.503 121.159 118.889 121.444 119.389C121.732 119.886 121.876 120.471 121.876 121.144C121.876 121.82 121.73 122.402 121.439 122.889C121.147 123.373 120.724 123.744 120.171 124.003C119.621 124.261 118.955 124.391 118.172 124.391H115.483V122.661H117.824C118.235 122.661 118.577 122.604 118.849 122.491C119.12 122.379 119.322 122.21 119.455 121.984C119.591 121.759 119.659 121.479 119.659 121.144C119.659 120.806 119.591 120.521 119.455 120.289C119.322 120.057 119.119 119.881 118.844 119.762C118.572 119.639 118.229 119.578 117.814 119.578H116.363V128H114.21ZM119.709 123.366L122.239 128H119.863L117.387 123.366H119.709ZM125.689 128L122.776 117.818H125.128L126.813 124.893H126.898L128.757 117.818H130.77L132.625 124.908H132.714L134.4 117.818H136.751L133.838 128H131.74L129.801 121.343H129.721L127.787 128H125.689ZM137.903 128V117.818H144.764V119.593H140.056V122.019H144.411V123.794H140.056V126.225H144.784V128H137.903ZM146.476 128V117.818H148.628V126.225H152.993V128H146.476ZM154.419 128V117.818H156.572V126.225H160.937V128H154.419Z" fill="#859399"/>
<path d="M306.203 75H209.203C206.994 75 205.203 76.7909 205.203 79V166C205.203 168.209 206.994 170 209.203 170H306.203C308.412 170 310.203 168.209 310.203 166V79C310.203 76.7909 308.412 75 306.203 75Z" fill="white" stroke="#B3C0C6" stroke-width="2"/>
<path d="M220.749 118V109.273H226.629V110.794H222.594V112.874H226.327V114.395H222.594V116.479H226.646V118H220.749ZM228.096 118V109.273H229.941V116.479H233.683V118H228.096ZM234.905 118V109.273H240.786V110.794H236.75V112.874H240.483V114.395H236.75V116.479H240.803V118H234.905ZM249.953 112.328H248.086C248.052 112.087 247.983 111.872 247.878 111.685C247.772 111.494 247.637 111.332 247.473 111.199C247.308 111.065 247.118 110.963 246.902 110.892C246.689 110.821 246.457 110.786 246.207 110.786C245.755 110.786 245.362 110.898 245.027 111.122C244.691 111.344 244.432 111.668 244.247 112.094C244.062 112.517 243.97 113.031 243.97 113.636C243.97 114.259 244.062 114.781 244.247 115.205C244.434 115.628 244.696 115.947 245.031 116.163C245.366 116.379 245.754 116.487 246.194 116.487C246.441 116.487 246.67 116.455 246.88 116.389C247.093 116.324 247.282 116.229 247.447 116.104C247.612 115.976 247.748 115.821 247.856 115.639C247.967 115.457 248.044 115.25 248.086 115.017L249.953 115.026C249.905 115.426 249.784 115.812 249.591 116.185C249.4 116.554 249.143 116.885 248.819 117.178C248.498 117.467 248.115 117.697 247.669 117.868C247.226 118.036 246.724 118.119 246.164 118.119C245.386 118.119 244.69 117.943 244.076 117.591C243.466 117.239 242.983 116.729 242.628 116.061C242.275 115.393 242.099 114.585 242.099 113.636C242.099 112.685 242.278 111.875 242.636 111.207C242.994 110.54 243.48 110.031 244.093 109.682C244.707 109.33 245.397 109.153 246.164 109.153C246.67 109.153 247.139 109.224 247.571 109.366C248.005 109.509 248.39 109.716 248.726 109.989C249.061 110.259 249.334 110.589 249.544 110.982C249.757 111.374 249.893 111.822 249.953 112.328ZM250.944 110.794V109.273H258.111V110.794H255.439V118H253.615V110.794H250.944ZM259.292 118V109.273H262.735C263.394 109.273 263.956 109.391 264.422 109.626C264.891 109.859 265.248 110.19 265.492 110.619C265.739 111.045 265.863 111.547 265.863 112.124C265.863 112.703 265.738 113.202 265.488 113.619C265.238 114.034 264.875 114.352 264.401 114.574C263.929 114.795 263.358 114.906 262.688 114.906H260.383V113.423H262.39C262.742 113.423 263.035 113.375 263.267 113.278C263.5 113.182 263.674 113.037 263.787 112.844C263.904 112.651 263.962 112.411 263.962 112.124C263.962 111.834 263.904 111.589 263.787 111.391C263.674 111.192 263.499 111.041 263.263 110.939C263.03 110.834 262.736 110.781 262.381 110.781H261.137V118H259.292ZM264.005 114.028L266.174 118H264.137L262.015 114.028H264.005ZM269.012 109.273V118H267.167V109.273H269.012ZM278.23 112.328H276.364C276.33 112.087 276.26 111.872 276.155 111.685C276.05 111.494 275.915 111.332 275.75 111.199C275.585 111.065 275.395 110.963 275.179 110.892C274.966 110.821 274.734 110.786 274.484 110.786C274.033 110.786 273.639 110.898 273.304 111.122C272.969 111.344 272.709 111.668 272.524 112.094C272.34 112.517 272.247 113.031 272.247 113.636C272.247 114.259 272.34 114.781 272.524 115.205C272.712 115.628 272.973 115.947 273.308 116.163C273.644 116.379 274.031 116.487 274.472 116.487C274.719 116.487 274.947 116.455 275.158 116.389C275.371 116.324 275.56 116.229 275.724 116.104C275.889 115.976 276.026 115.821 276.134 115.639C276.244 115.457 276.321 115.25 276.364 115.017L278.23 115.026C278.182 115.426 278.061 115.812 277.868 116.185C277.678 116.554 277.421 116.885 277.097 117.178C276.776 117.467 276.392 117.697 275.946 117.868C275.503 118.036 275.001 118.119 274.442 118.119C273.663 118.119 272.967 117.943 272.354 117.591C271.743 117.239 271.26 116.729 270.905 116.061C270.553 115.393 270.376 114.585 270.376 113.636C270.376 112.685 270.555 111.875 270.913 111.207C271.271 110.54 271.757 110.031 272.371 109.682C272.984 109.33 273.675 109.153 274.442 109.153C274.947 109.153 275.416 109.224 275.848 109.366C276.283 109.509 276.668 109.716 277.003 109.989C277.338 110.259 277.611 110.589 277.821 110.982C278.034 111.374 278.171 111.822 278.23 112.328ZM280.894 118H278.916L281.929 109.273H284.307L287.315 118H285.338L283.152 111.267H283.084L280.894 118ZM280.77 114.57H285.44V116.01H280.77V114.57ZM288.366 118V109.273H290.211V116.479H293.952V118H288.366Z" fill="#55636B"/>
<path d="M239.147 136V127.273H242.59C243.249 127.273 243.812 127.391 244.278 127.626C244.747 127.859 245.103 128.19 245.347 128.619C245.595 129.045 245.718 129.547 245.718 130.124C245.718 130.703 245.593 131.202 245.343 131.619C245.093 132.034 244.731 132.352 244.256 132.574C243.785 132.795 243.214 132.906 242.543 132.906H240.238V131.423H242.245C242.597 131.423 242.89 131.375 243.123 131.278C243.356 131.182 243.529 131.037 243.643 130.844C243.759 130.651 243.818 130.411 243.818 130.124C243.818 129.834 243.759 129.589 243.643 129.391C243.529 129.192 243.354 129.041 243.119 128.939C242.886 128.834 242.592 128.781 242.237 128.781H240.992V136H239.147ZM243.86 132.028L246.029 136H243.992L241.87 132.028H243.86ZM255.042 131.636C255.042 132.588 254.862 133.398 254.501 134.065C254.143 134.733 253.654 135.243 253.035 135.595C252.418 135.945 251.725 136.119 250.955 136.119C250.18 136.119 249.484 135.943 248.867 135.591C248.251 135.239 247.764 134.729 247.406 134.061C247.048 133.393 246.869 132.585 246.869 131.636C246.869 130.685 247.048 129.875 247.406 129.207C247.764 128.54 248.251 128.031 248.867 127.682C249.484 127.33 250.18 127.153 250.955 127.153C251.725 127.153 252.418 127.33 253.035 127.682C253.654 128.031 254.143 128.54 254.501 129.207C254.862 129.875 255.042 130.685 255.042 131.636ZM253.171 131.636C253.171 131.02 253.079 130.5 252.894 130.077C252.712 129.653 252.455 129.332 252.123 129.114C251.791 128.895 251.401 128.786 250.955 128.786C250.509 128.786 250.12 128.895 249.788 129.114C249.455 129.332 249.197 129.653 249.012 130.077C248.83 130.5 248.739 131.02 248.739 131.636C248.739 132.253 248.83 132.773 249.012 133.196C249.197 133.619 249.455 133.94 249.788 134.159C250.12 134.378 250.509 134.487 250.955 134.487C251.401 134.487 251.791 134.378 252.123 134.159C252.455 133.94 252.712 133.619 252.894 133.196C253.079 132.773 253.171 132.253 253.171 131.636ZM264.429 131.636C264.429 132.588 264.248 133.398 263.887 134.065C263.53 134.733 263.041 135.243 262.422 135.595C261.805 135.945 261.112 136.119 260.342 136.119C259.566 136.119 258.87 135.943 258.254 135.591C257.637 135.239 257.15 134.729 256.792 134.061C256.434 133.393 256.255 132.585 256.255 131.636C256.255 130.685 256.434 129.875 256.792 129.207C257.15 128.54 257.637 128.031 258.254 127.682C258.87 127.33 259.566 127.153 260.342 127.153C261.112 127.153 261.805 127.33 262.422 127.682C263.041 128.031 263.53 128.54 263.887 129.207C264.248 129.875 264.429 130.685 264.429 131.636ZM262.558 131.636C262.558 131.02 262.466 130.5 262.281 130.077C262.099 129.653 261.842 129.332 261.51 129.114C261.177 128.895 260.788 128.786 260.342 128.786C259.896 128.786 259.507 128.895 259.174 129.114C258.842 129.332 258.584 129.653 258.399 130.077C258.217 130.5 258.126 131.02 258.126 131.636C258.126 132.253 258.217 132.773 258.399 133.196C258.584 133.619 258.842 133.94 259.174 134.159C259.507 134.378 259.896 134.487 260.342 134.487C260.788 134.487 261.177 134.378 261.51 134.159C261.842 133.94 262.099 133.619 262.281 133.196C262.466 132.773 262.558 132.253 262.558 131.636ZM265.796 127.273H268.071L270.474 133.136H270.577L272.98 127.273H275.256V136H273.466V130.32H273.394L271.135 135.957H269.916L267.658 130.298H267.585V136H265.796V127.273Z" fill="#55636B"/>
<path d="M396.203 75H324.203C321.994 75 320.203 76.7909 320.203 79V166C320.203 168.209 321.994 170 324.203 170H396.203C398.412 170 400.203 168.209 400.203 166V79C400.203 76.7909 398.412 75 396.203 75Z" fill="white" stroke="#B3C0C6" stroke-width="2"/>
<path d="M335.035 116.794V115.273H342.203V116.794H339.531V124H337.707V116.794H335.035ZM351.005 119.636C351.005 120.588 350.824 121.398 350.464 122.065C350.106 122.733 349.617 123.243 348.998 123.595C348.381 123.945 347.688 124.119 346.918 124.119C346.143 124.119 345.447 123.943 344.83 123.591C344.214 123.239 343.726 122.729 343.368 122.061C343.011 121.393 342.832 120.585 342.832 119.636C342.832 118.685 343.011 117.875 343.368 117.207C343.726 116.54 344.214 116.031 344.83 115.682C345.447 115.33 346.143 115.153 346.918 115.153C347.688 115.153 348.381 115.33 348.998 115.682C349.617 116.031 350.106 116.54 350.464 117.207C350.824 117.875 351.005 118.685 351.005 119.636ZM349.134 119.636C349.134 119.02 349.042 118.5 348.857 118.077C348.675 117.653 348.418 117.332 348.086 117.114C347.753 116.895 347.364 116.786 346.918 116.786C346.472 116.786 346.083 116.895 345.751 117.114C345.418 117.332 345.16 117.653 344.975 118.077C344.793 118.5 344.702 119.02 344.702 119.636C344.702 120.253 344.793 120.773 344.975 121.196C345.16 121.619 345.418 121.94 345.751 122.159C346.083 122.378 346.472 122.487 346.918 122.487C347.364 122.487 347.753 122.378 348.086 122.159C348.418 121.94 348.675 121.619 348.857 121.196C349.042 120.773 349.134 120.253 349.134 119.636ZM354.217 115.273V124H352.372V115.273H354.217ZM355.735 124V115.273H357.58V122.479H361.322V124H355.735ZM362.544 124V115.273H368.424V116.794H364.389V118.874H368.122V120.395H364.389V122.479H368.441V124H362.544ZM369.559 116.794V115.273H376.726V116.794H374.055V124H372.231V116.794H369.559ZM384.43 115.273V124H382.585V117.024H382.534L380.535 118.277V116.641L382.696 115.273H384.43Z" fill="#55636B"/>
<path d="M486.203 75H414.203C411.994 75 410.203 76.7909 410.203 79V166C410.203 168.209 411.994 170 414.203 170H486.203C488.412 170 490.203 168.209 490.203 166V79C490.203 76.7909 488.412 75 486.203 75Z" fill="white" stroke="#B3C0C6" stroke-width="2"/>
<path d="M424.192 116.794V115.273H431.359V116.794H428.687V124H426.863V116.794H424.192ZM440.161 119.636C440.161 120.588 439.981 121.398 439.62 122.065C439.262 122.733 438.773 123.243 438.154 123.595C437.537 123.945 436.844 124.119 436.074 124.119C435.299 124.119 434.603 123.943 433.986 123.591C433.37 123.239 432.883 122.729 432.525 122.061C432.167 121.393 431.988 120.585 431.988 119.636C431.988 118.685 432.167 117.875 432.525 117.207C432.883 116.54 433.37 116.031 433.986 115.682C434.603 115.33 435.299 115.153 436.074 115.153C436.844 115.153 437.537 115.33 438.154 115.682C438.773 116.031 439.262 116.54 439.62 117.207C439.981 117.875 440.161 118.685 440.161 119.636ZM438.29 119.636C438.29 119.02 438.198 118.5 438.013 118.077C437.831 117.653 437.574 117.332 437.242 117.114C436.91 116.895 436.52 116.786 436.074 116.786C435.628 116.786 435.239 116.895 434.907 117.114C434.574 117.332 434.316 117.653 434.131 118.077C433.949 118.5 433.858 119.02 433.858 119.636C433.858 120.253 433.949 120.773 434.131 121.196C434.316 121.619 434.574 121.94 434.907 122.159C435.239 122.378 435.628 122.487 436.074 122.487C436.52 122.487 436.91 122.378 437.242 122.159C437.574 121.94 437.831 121.619 438.013 121.196C438.198 120.773 438.29 120.253 438.29 119.636ZM443.373 115.273V124H441.528V115.273H443.373ZM444.891 124V115.273H446.736V122.479H450.478V124H444.891ZM451.7 124V115.273H457.58V116.794H453.545V118.874H457.278V120.395H453.545V122.479H457.597V124H451.7ZM458.715 116.794V115.273H465.883V116.794H463.211V124H461.387V116.794H458.715ZM469.789 124V122.67L472.896 119.794C473.16 119.538 473.382 119.308 473.56 119.104C473.742 118.899 473.88 118.699 473.974 118.503C474.068 118.304 474.114 118.089 474.114 117.859C474.114 117.604 474.056 117.384 473.94 117.199C473.823 117.011 473.664 116.868 473.462 116.768C473.261 116.666 473.032 116.615 472.776 116.615C472.509 116.615 472.276 116.669 472.078 116.777C471.879 116.885 471.725 117.04 471.617 117.241C471.509 117.443 471.455 117.683 471.455 117.962H469.704C469.704 117.391 469.833 116.895 470.092 116.474C470.35 116.054 470.712 115.729 471.178 115.499C471.644 115.268 472.181 115.153 472.789 115.153C473.414 115.153 473.958 115.264 474.421 115.486C474.887 115.705 475.249 116.009 475.508 116.398C475.766 116.787 475.896 117.233 475.896 117.736C475.896 118.065 475.83 118.391 475.7 118.712C475.572 119.033 475.343 119.389 475.014 119.781C474.684 120.17 474.22 120.638 473.62 121.183L472.346 122.432V122.491H476.011V124H469.789Z" fill="#55636B"/>
<path d="M576.203 75H504.203C501.994 75 500.203 76.7909 500.203 79V166C500.203 168.209 501.994 170 504.203 170H576.203C578.412 170 580.203 168.209 580.203 166V79C580.203 76.7909 578.412 75 576.203 75Z" fill="white" stroke="#B3C0C6" stroke-width="2"/>
<path d="M514.016 116.794V115.273H521.183V116.794H518.511V124H516.688V116.794H514.016ZM529.985 119.636C529.985 120.588 529.805 121.398 529.444 122.065C529.086 122.733 528.597 123.243 527.978 123.595C527.362 123.945 526.668 124.119 525.899 124.119C525.123 124.119 524.427 123.943 523.81 123.591C523.194 123.239 522.707 122.729 522.349 122.061C521.991 121.393 521.812 120.585 521.812 119.636C521.812 118.685 521.991 117.875 522.349 117.207C522.707 116.54 523.194 116.031 523.81 115.682C524.427 115.33 525.123 115.153 525.899 115.153C526.668 115.153 527.362 115.33 527.978 115.682C528.597 116.031 529.086 116.54 529.444 117.207C529.805 117.875 529.985 118.685 529.985 119.636ZM528.114 119.636C528.114 119.02 528.022 118.5 527.837 118.077C527.656 117.653 527.399 117.332 527.066 117.114C526.734 116.895 526.345 116.786 525.899 116.786C525.453 116.786 525.063 116.895 524.731 117.114C524.399 117.332 524.14 117.653 523.955 118.077C523.774 118.5 523.683 119.02 523.683 119.636C523.683 120.253 523.774 120.773 523.955 121.196C524.14 121.619 524.399 121.94 524.731 122.159C525.063 122.378 525.453 122.487 525.899 122.487C526.345 122.487 526.734 122.378 527.066 122.159C527.399 121.94 527.656 121.619 527.837 121.196C528.022 120.773 528.114 120.253 528.114 119.636ZM533.197 115.273V124H531.352V115.273H533.197ZM534.715 124V115.273H536.56V122.479H540.302V124H534.715ZM541.524 124V115.273H547.405V116.794H543.369V118.874H547.102V120.395H543.369V122.479H547.422V124H541.524ZM548.539 116.794V115.273H555.707V116.794H553.035V124H551.211V116.794H548.539ZM562.839 124.119C562.203 124.119 561.636 124.01 561.139 123.791C560.645 123.57 560.254 123.266 559.967 122.879C559.683 122.49 559.537 122.041 559.528 121.533H561.386C561.397 121.746 561.467 121.933 561.595 122.095C561.726 122.254 561.899 122.378 562.115 122.466C562.331 122.554 562.574 122.598 562.844 122.598C563.125 122.598 563.373 122.548 563.589 122.449C563.805 122.349 563.974 122.212 564.096 122.036C564.219 121.859 564.28 121.656 564.28 121.426C564.28 121.193 564.214 120.987 564.084 120.808C563.956 120.626 563.771 120.484 563.53 120.382C563.291 120.28 563.007 120.229 562.677 120.229H561.863V118.874H562.677C562.956 118.874 563.201 118.825 563.415 118.729C563.63 118.632 563.798 118.499 563.917 118.328C564.037 118.155 564.096 117.953 564.096 117.723C564.096 117.504 564.044 117.312 563.939 117.148C563.836 116.98 563.692 116.849 563.504 116.756C563.319 116.662 563.103 116.615 562.856 116.615C562.606 116.615 562.378 116.661 562.17 116.751C561.963 116.839 561.797 116.966 561.672 117.131C561.547 117.295 561.48 117.489 561.471 117.71H559.703C559.711 117.207 559.855 116.764 560.133 116.381C560.412 115.997 560.787 115.697 561.258 115.482C561.733 115.263 562.268 115.153 562.865 115.153C563.467 115.153 563.994 115.263 564.446 115.482C564.897 115.7 565.248 115.996 565.498 116.368C565.751 116.737 565.876 117.152 565.873 117.612C565.876 118.101 565.724 118.509 565.417 118.835C565.113 119.162 564.717 119.369 564.228 119.457V119.526C564.87 119.608 565.359 119.831 565.694 120.195C566.032 120.555 566.2 121.007 566.197 121.55C566.2 122.047 566.057 122.489 565.767 122.875C565.48 123.261 565.084 123.565 564.578 123.787C564.072 124.009 563.493 124.119 562.839 124.119Z" fill="#55636B"/>
<path d="M666.203 75H594.203C591.994 75 590.203 76.7909 590.203 79V166C590.203 168.209 591.994 170 594.203 170H666.203C668.412 170 670.203 168.209 670.203 166V79C670.203 76.7909 668.412 75 666.203 75Z" fill="white" stroke="#B3C0C6" stroke-width="2"/>
<path d="M603.904 116.794V115.273H611.072V116.794H608.4V124H606.576V116.794H603.904ZM619.874 119.636C619.874 120.588 619.693 121.398 619.333 122.065C618.975 122.733 618.486 123.243 617.867 123.595C617.25 123.945 616.557 124.119 615.787 124.119C615.012 124.119 614.316 123.943 613.699 123.591C613.083 123.239 612.595 122.729 612.238 122.061C611.88 121.393 611.701 120.585 611.701 119.636C611.701 118.685 611.88 117.875 612.238 117.207C612.595 116.54 613.083 116.031 613.699 115.682C614.316 115.33 615.012 115.153 615.787 115.153C616.557 115.153 617.25 115.33 617.867 115.682C618.486 116.031 618.975 116.54 619.333 117.207C619.693 117.875 619.874 118.685 619.874 119.636ZM618.003 119.636C618.003 119.02 617.911 118.5 617.726 118.077C617.544 117.653 617.287 117.332 616.955 117.114C616.622 116.895 616.233 116.786 615.787 116.786C615.341 116.786 614.952 116.895 614.62 117.114C614.287 117.332 614.029 117.653 613.844 118.077C613.662 118.5 613.571 119.02 613.571 119.636C613.571 120.253 613.662 120.773 613.844 121.196C614.029 121.619 614.287 121.94 614.62 122.159C614.952 122.378 615.341 122.487 615.787 122.487C616.233 122.487 616.622 122.378 616.955 122.159C617.287 121.94 617.544 121.619 617.726 121.196C617.911 120.773 618.003 120.253 618.003 119.636ZM623.086 115.273V124H621.241V115.273H623.086ZM624.604 124V115.273H626.449V122.479H630.191V124H624.604ZM631.413 124V115.273H637.293V116.794H633.258V118.874H636.991V120.395H633.258V122.479H637.31V124H631.413ZM638.428 116.794V115.273H645.595V116.794H642.924V124H641.1V116.794H638.428ZM649.37 122.466V121.013L653.013 115.273H654.266V117.284H653.525L651.228 120.919V120.987H656.405V122.466H649.37ZM653.559 124V122.023L653.593 121.379V115.273H655.323V124H653.559Z" fill="#55636B"/>
<path d="M928.811 75.2067H692.865C689.194 75.2067 686.219 76.9983 686.219 79.2084V166.246C686.219 168.456 689.194 170.248 692.865 170.248H928.811C932.482 170.248 935.458 168.456 935.458 166.246V79.2084C935.458 76.9983 932.482 75.2067 928.811 75.2067Z" fill="#F3E7E7" stroke="#C9A4A4" stroke-width="2"/>
<path d="M776.666 128.05V117.14H783.889V119.042H778.973V121.642H783.41V123.543H778.973V128.05H776.666ZM787.747 117.14V128.05H785.441V117.14H787.747ZM789.645 128.05V117.14H793.949C794.773 117.14 795.476 117.288 796.058 117.583C796.644 117.874 797.09 118.287 797.395 118.824C797.704 119.356 797.858 119.983 797.858 120.704C797.858 121.428 797.702 122.052 797.39 122.574C797.077 123.092 796.624 123.49 796.031 123.767C795.442 124.044 794.728 124.182 793.89 124.182H791.008V122.329H793.517C793.958 122.329 794.323 122.268 794.615 122.148C794.906 122.027 795.122 121.846 795.264 121.604C795.41 121.363 795.483 121.063 795.483 120.704C795.483 120.342 795.41 120.036 795.264 119.788C795.122 119.539 794.904 119.351 794.609 119.223C794.318 119.092 793.95 119.026 793.507 119.026H791.951V128.05H789.645ZM795.536 123.085L798.247 128.05H795.701L793.048 123.085H795.536ZM799.488 128.05V117.14H806.839V119.042H801.795V121.642H806.461V123.543H801.795V126.148H806.861V128.05H799.488ZM812.145 128.05V117.14H819.496V119.042H814.451V121.642H819.117V123.543H814.451V126.148H819.517V128.05H812.145ZM823.492 117.14L825.692 120.859H825.777L827.988 117.14H830.592L827.263 122.595L830.667 128.05H828.014L825.777 124.326H825.692L823.455 128.05H820.813L824.227 122.595L820.876 117.14H823.492ZM834.358 117.14V128.05H832.052V117.14H834.358ZM835.841 119.042V117.14H844.8V119.042H841.46V128.05H839.18V119.042H835.841Z" fill="#A15A5A"/>
<path d="M201.585 178.512H74.0395C71.8209 178.512 70.0223 179.791 70.0223 181.367V254.17C70.0223 255.747 71.8209 257.025 74.0395 257.025H201.585C203.803 257.025 205.602 255.747 205.602 254.17V181.367C205.602 179.791 203.803 178.512 201.585 178.512Z" fill="white" stroke="#B3C0C6" stroke-width="2"/>
<path d="M106.93 217.479V205.843H111.521C112.404 205.843 113.156 206.012 113.777 206.349C114.398 206.682 114.872 207.146 115.197 207.741C115.527 208.332 115.692 209.013 115.692 209.786C115.692 210.559 115.525 211.241 115.192 211.832C114.858 212.423 114.375 212.883 113.743 213.212C113.114 213.542 112.353 213.707 111.459 213.707H108.533V211.735H111.061C111.534 211.735 111.925 211.654 112.231 211.491C112.542 211.324 112.773 211.095 112.925 210.803C113.08 210.508 113.158 210.169 113.158 209.786C113.158 209.4 113.08 209.063 112.925 208.775C112.773 208.483 112.542 208.258 112.231 208.099C111.921 207.936 111.527 207.854 111.05 207.854H109.391V217.479H106.93ZM117.29 217.479V205.843H121.881C122.759 205.843 123.509 206 124.131 206.315C124.756 206.625 125.231 207.066 125.557 207.638C125.886 208.207 126.051 208.875 126.051 209.644C126.051 210.417 125.884 211.082 125.551 211.638C125.218 212.191 124.735 212.616 124.102 212.911C123.473 213.207 122.712 213.354 121.818 213.354H118.744V211.377H121.42C121.89 211.377 122.28 211.313 122.591 211.184C122.901 211.055 123.132 210.862 123.284 210.604C123.439 210.347 123.517 210.027 123.517 209.644C123.517 209.258 123.439 208.932 123.284 208.667C123.132 208.402 122.9 208.201 122.585 208.065C122.275 207.924 121.882 207.854 121.409 207.854H119.75V217.479H117.29ZM123.574 212.184L126.466 217.479H123.75L120.92 212.184H123.574ZM129.795 217.479H127.159L131.176 205.843H134.347L138.358 217.479H135.722L132.807 208.502H132.716L129.795 217.479ZM129.631 212.906H135.858V214.826H129.631V212.906ZM137.889 205.843H140.645L143.298 210.854H143.412L146.065 205.843H148.821L144.577 213.366V217.479H142.133V213.366L137.889 205.843ZM150.165 217.479V205.843H158.006V207.871H152.625V210.644H157.602V212.673H152.625V215.451H158.028V217.479H150.165ZM159.962 217.479V205.843H164.552C165.431 205.843 166.181 206 166.802 206.315C167.427 206.625 167.903 207.066 168.229 207.638C168.558 208.207 168.723 208.875 168.723 209.644C168.723 210.417 168.556 211.082 168.223 211.638C167.89 212.191 167.407 212.616 166.774 212.911C166.145 213.207 165.384 213.354 164.49 213.354H161.416V211.377H164.092C164.562 211.377 164.952 211.313 165.263 211.184C165.573 211.055 165.804 210.862 165.956 210.604C166.111 210.347 166.189 210.027 166.189 209.644C166.189 209.258 166.111 208.932 165.956 208.667C165.804 208.402 165.571 208.201 165.257 208.065C164.946 207.924 164.554 207.854 164.081 207.854H162.422V217.479H159.962ZM166.246 212.184L169.138 217.479H166.422L163.592 212.184H166.246ZM113.61 236.479V224.843H118.201C119.08 224.843 119.83 225 120.451 225.315C121.076 225.625 121.551 226.066 121.877 226.638C122.207 227.207 122.371 227.875 122.371 228.644C122.371 229.417 122.205 230.082 121.871 230.638C121.538 231.191 121.055 231.616 120.422 231.911C119.794 232.207 119.032 232.354 118.138 232.354H115.065V230.377H117.741C118.21 230.377 118.601 230.313 118.911 230.184C119.222 230.055 119.453 229.862 119.604 229.604C119.76 229.347 119.837 229.027 119.837 228.644C119.837 228.258 119.76 227.932 119.604 227.667C119.453 227.402 119.22 227.201 118.905 227.065C118.595 226.924 118.203 226.854 117.729 226.854H116.07V236.479H113.61ZM119.894 231.184L122.786 236.479H120.07L117.241 231.184H119.894ZM134.803 230.661C134.803 231.93 134.563 233.01 134.082 233.9C133.604 234.79 132.953 235.47 132.127 235.94C131.305 236.406 130.381 236.638 129.354 236.638C128.32 236.638 127.392 236.404 126.57 235.934C125.748 235.464 125.099 234.784 124.621 233.894C124.144 233.004 123.905 231.926 123.905 230.661C123.905 229.392 124.144 228.313 124.621 227.423C125.099 226.532 125.748 225.854 126.57 225.388C127.392 224.919 128.32 224.684 129.354 224.684C130.381 224.684 131.305 224.919 132.127 225.388C132.953 225.854 133.604 226.532 134.082 227.423C134.563 228.313 134.803 229.392 134.803 230.661ZM132.309 230.661C132.309 229.839 132.186 229.146 131.94 228.582C131.697 228.017 131.354 227.589 130.911 227.298C130.468 227.006 129.949 226.86 129.354 226.86C128.76 226.86 128.241 227.006 127.797 227.298C127.354 227.589 127.01 228.017 126.763 228.582C126.521 229.146 126.4 229.839 126.4 230.661C126.4 231.483 126.521 232.176 126.763 232.741C127.01 233.305 127.354 233.733 127.797 234.025C128.241 234.316 128.76 234.462 129.354 234.462C129.949 234.462 130.468 234.316 130.911 234.025C131.354 233.733 131.697 233.305 131.94 232.741C132.186 232.176 132.309 231.483 132.309 230.661ZM147.319 230.661C147.319 231.93 147.078 233.01 146.597 233.9C146.12 234.79 145.468 235.47 144.643 235.94C143.821 236.406 142.896 236.638 141.87 236.638C140.836 236.638 139.908 236.404 139.086 235.934C138.264 235.464 137.614 234.784 137.137 233.894C136.66 233.004 136.421 231.926 136.421 230.661C136.421 229.392 136.66 228.313 137.137 227.423C137.614 226.532 138.264 225.854 139.086 225.388C139.908 224.919 140.836 224.684 141.87 224.684C142.896 224.684 143.821 224.919 144.643 225.388C145.468 225.854 146.12 226.532 146.597 227.423C147.078 228.313 147.319 229.392 147.319 230.661ZM144.824 230.661C144.824 229.839 144.701 229.146 144.455 228.582C144.213 228.017 143.87 227.589 143.427 227.298C142.984 227.006 142.465 226.86 141.87 226.86C141.275 226.86 140.756 227.006 140.313 227.298C139.87 227.589 139.525 228.017 139.279 228.582C139.037 229.146 138.915 229.839 138.915 230.661C138.915 231.483 139.037 232.176 139.279 232.741C139.525 233.305 139.87 233.733 140.313 234.025C140.756 234.316 141.275 234.462 141.87 234.462C142.465 234.462 142.984 234.316 143.427 234.025C143.87 233.733 144.213 233.305 144.455 232.741C144.701 232.176 144.824 231.483 144.824 230.661ZM149.141 224.843H152.175L155.38 232.661H155.516L158.721 224.843H161.755V236.479H159.369V228.906H159.272L156.261 236.423H154.636L151.624 228.877H151.528V236.479H149.141V224.843Z" fill="#55636B"/>
<path d="M478.953 271.901H76.0918C72.7792 271.901 70.0939 275.335 70.0939 279.57V455.967C70.0939 460.203 72.7792 463.636 76.0918 463.636H478.953C482.265 463.636 484.951 460.203 484.951 455.967V279.57C484.951 275.335 482.265 271.901 478.953 271.901Z" fill="#EAF1F3" stroke="#B3C0C6" stroke-width="2"/>
<path d="M230.751 371.719V358.628H235.916C236.905 358.628 237.749 358.805 238.447 359.159C239.151 359.508 239.685 360.005 240.052 360.648C240.423 361.287 240.608 362.039 240.608 362.904C240.608 363.774 240.42 364.522 240.045 365.148C239.67 365.77 239.127 366.247 238.415 366.58C237.708 366.912 236.852 367.078 235.846 367.078H232.388V364.854H235.398C235.927 364.854 236.366 364.781 236.715 364.637C237.065 364.492 237.325 364.274 237.495 363.985C237.67 363.695 237.757 363.335 237.757 362.904C237.757 362.47 237.67 362.103 237.495 361.805C237.325 361.507 237.062 361.281 236.709 361.127C236.359 360.97 235.918 360.891 235.386 360.891H233.519V371.719H230.751ZM237.821 365.762L241.075 371.719H238.019L234.836 365.762H237.821ZM254.594 365.174C254.594 366.601 254.323 367.816 253.782 368.817C253.245 369.818 252.512 370.583 251.583 371.112C250.658 371.636 249.619 371.898 248.464 371.898C247.3 371.898 246.256 371.634 245.332 371.105C244.407 370.577 243.676 369.812 243.139 368.811C242.602 367.809 242.334 366.597 242.334 365.174C242.334 363.746 242.602 362.531 243.139 361.53C243.676 360.529 244.407 359.766 245.332 359.242C246.256 358.713 247.3 358.449 248.464 358.449C249.619 358.449 250.658 358.713 251.583 359.242C252.512 359.766 253.245 360.529 253.782 361.53C254.323 362.531 254.594 363.746 254.594 365.174ZM251.788 365.174C251.788 364.249 251.649 363.469 251.372 362.834C251.099 362.199 250.714 361.718 250.215 361.389C249.717 361.061 249.133 360.897 248.464 360.897C247.795 360.897 247.211 361.061 246.712 361.389C246.214 361.718 245.826 362.199 245.549 362.834C245.276 363.469 245.14 364.249 245.14 365.174C245.14 366.098 245.276 366.878 245.549 367.513C245.826 368.148 246.214 368.63 246.712 368.958C247.211 369.286 247.795 369.45 248.464 369.45C249.133 369.45 249.717 369.286 250.215 368.958C250.714 368.63 251.099 368.148 251.372 367.513C251.649 366.878 251.788 366.098 251.788 365.174ZM268.674 365.174C268.674 366.601 268.403 367.816 267.862 368.817C267.325 369.818 266.592 370.583 265.663 371.112C264.738 371.636 263.699 371.898 262.544 371.898C261.38 371.898 260.336 371.634 259.412 371.105C258.487 370.577 257.756 369.812 257.219 368.811C256.682 367.809 256.414 366.597 256.414 365.174C256.414 363.746 256.682 362.531 257.219 361.53C257.756 360.529 258.487 359.766 259.412 359.242C260.336 358.713 261.38 358.449 262.544 358.449C263.699 358.449 264.738 358.713 265.663 359.242C266.592 359.766 267.325 360.529 267.862 361.53C268.403 362.531 268.674 363.746 268.674 365.174ZM265.868 365.174C265.868 364.249 265.729 363.469 265.452 362.834C265.179 362.199 264.794 361.718 264.295 361.389C263.797 361.061 263.213 360.897 262.544 360.897C261.875 360.897 261.291 361.061 260.792 361.389C260.294 361.718 259.906 362.199 259.629 362.834C259.356 363.469 259.22 364.249 259.22 365.174C259.22 366.098 259.356 366.878 259.629 367.513C259.906 368.148 260.294 368.63 260.792 368.958C261.291 369.286 261.875 369.45 262.544 369.45C263.213 369.45 263.797 369.286 264.295 368.958C264.794 368.63 265.179 368.148 265.452 367.513C265.729 366.878 265.868 366.098 265.868 365.174ZM270.724 358.628H274.137L277.742 367.424H277.896L281.501 358.628H284.914V371.719H282.23V363.198H282.121L278.733 371.655H276.905L273.517 363.166H273.409V371.719H270.724V358.628ZM296.308 371.898C295.635 371.894 294.985 371.781 294.359 371.559C293.736 371.338 293.178 370.978 292.684 370.479C292.19 369.98 291.798 369.32 291.508 368.497C291.222 367.675 291.079 366.665 291.079 365.468C291.084 364.368 291.209 363.386 291.457 362.521C291.708 361.652 292.066 360.914 292.53 360.309C292.999 359.704 293.56 359.244 294.212 358.929C294.864 358.609 295.594 358.449 296.404 358.449C297.278 358.449 298.049 358.62 298.718 358.96C299.387 359.297 299.924 359.755 300.329 360.335C300.738 360.914 300.985 361.564 301.07 362.284H298.341C298.234 361.828 298.011 361.47 297.67 361.21C297.329 360.951 296.907 360.821 296.404 360.821C295.552 360.821 294.904 361.191 294.461 361.933C294.022 362.674 293.798 363.682 293.79 364.956H293.879C294.075 364.568 294.339 364.238 294.672 363.965C295.008 363.688 295.39 363.478 295.816 363.333C296.246 363.183 296.7 363.109 297.177 363.109C297.953 363.109 298.643 363.292 299.249 363.659C299.854 364.021 300.331 364.519 300.68 365.154C301.03 365.789 301.204 366.516 301.204 367.334C301.204 368.22 300.998 369.009 300.584 369.699C300.175 370.389 299.602 370.931 298.865 371.323C298.132 371.71 297.28 371.902 296.308 371.898ZM296.295 369.725C296.722 369.725 297.103 369.622 297.44 369.418C297.776 369.213 298.04 368.936 298.232 368.587C298.424 368.237 298.52 367.845 298.52 367.411C298.52 366.976 298.424 366.586 298.232 366.241C298.045 365.896 297.785 365.621 297.452 365.416C297.12 365.212 296.741 365.11 296.315 365.11C295.995 365.11 295.699 365.169 295.426 365.289C295.158 365.408 294.921 365.574 294.717 365.787C294.516 366 294.359 366.247 294.244 366.529C294.128 366.806 294.071 367.102 294.071 367.417C294.071 367.839 294.167 368.225 294.359 368.574C294.555 368.924 294.819 369.203 295.151 369.411C295.488 369.62 295.869 369.725 296.295 369.725ZM308.3 372.007C307.2 372.002 306.254 371.732 305.462 371.195C304.673 370.658 304.066 369.88 303.64 368.862C303.218 367.843 303.009 366.618 303.013 365.186C303.013 363.759 303.224 362.542 303.646 361.536C304.072 360.531 304.68 359.766 305.468 359.242C306.261 358.713 307.204 358.449 308.3 358.449C309.395 358.449 310.337 358.713 311.125 359.242C311.918 359.77 312.527 360.537 312.953 361.543C313.379 362.544 313.59 363.759 313.586 365.186C313.586 366.622 313.373 367.85 312.947 368.868C312.525 369.887 311.92 370.664 311.131 371.201C310.343 371.738 309.399 372.007 308.3 372.007ZM308.3 369.712C309.05 369.712 309.648 369.335 310.096 368.58C310.543 367.826 310.765 366.695 310.761 365.186C310.761 364.193 310.658 363.367 310.454 362.706C310.253 362.046 309.968 361.549 309.597 361.217C309.231 360.884 308.798 360.718 308.3 360.718C307.554 360.718 306.957 361.091 306.51 361.837C306.062 362.583 305.837 363.699 305.832 365.186C305.832 366.192 305.932 367.031 306.133 367.705C306.337 368.374 306.625 368.877 306.996 369.213C307.366 369.546 307.801 369.712 308.3 369.712ZM320.341 371.898C319.437 371.898 318.632 371.732 317.924 371.399C317.221 371.067 316.663 370.609 316.25 370.025C315.836 369.441 315.621 368.772 315.604 368.018H318.289C318.319 368.525 318.532 368.936 318.928 369.252C319.324 369.567 319.795 369.725 320.341 369.725C320.775 369.725 321.159 369.629 321.491 369.437C321.828 369.241 322.09 368.97 322.277 368.625C322.469 368.276 322.565 367.875 322.565 367.424C322.565 366.963 322.467 366.558 322.271 366.209C322.079 365.86 321.813 365.587 321.472 365.391C321.131 365.195 320.741 365.095 320.302 365.09C319.919 365.09 319.546 365.169 319.184 365.327C318.826 365.485 318.547 365.7 318.346 365.973L315.885 365.531L316.505 358.628H324.508V360.891H318.787L318.449 364.17H318.525C318.755 363.846 319.103 363.578 319.567 363.365C320.032 363.152 320.552 363.045 321.127 363.045C321.915 363.045 322.618 363.23 323.236 363.601C323.854 363.972 324.342 364.481 324.7 365.129C325.058 365.772 325.235 366.514 325.231 367.353C325.235 368.235 325.03 369.019 324.617 369.705C324.208 370.387 323.635 370.924 322.897 371.316C322.165 371.704 321.312 371.898 320.341 371.898Z" fill="#4A5A62"/>
<path d="M478.069 476.859H75.2084C71.8958 476.859 69.2104 480.338 69.2104 484.628V663.306C69.2104 667.596 71.8958 671.074 75.2084 671.074H478.069C481.382 671.074 484.067 667.596 484.067 663.306V484.628C484.067 480.338 481.382 476.859 478.069 476.859Z" fill="#EAF1F3" stroke="#B3C0C6" stroke-width="2"/>
<path d="M229.641 578.331V565.24H234.805C235.794 565.24 236.638 565.417 237.337 565.77C238.04 566.12 238.575 566.616 238.941 567.26C239.312 567.899 239.497 568.651 239.497 569.516C239.497 570.385 239.31 571.133 238.935 571.76C238.56 572.382 238.016 572.859 237.305 573.191C236.597 573.524 235.741 573.69 234.735 573.69H231.277V571.466H234.288C234.816 571.466 235.255 571.393 235.604 571.248C235.954 571.103 236.214 570.886 236.384 570.596C236.559 570.306 236.646 569.946 236.646 569.516C236.646 569.081 236.559 568.715 236.384 568.417C236.214 568.118 235.952 567.892 235.598 567.739C235.249 567.581 234.808 567.502 234.275 567.502H232.408V578.331H229.641ZM236.71 572.373L239.964 578.331H236.908L233.725 572.373H236.71ZM253.483 571.785C253.483 573.213 253.212 574.427 252.671 575.429C252.134 576.43 251.401 577.195 250.472 577.723C249.548 578.247 248.508 578.51 247.353 578.51C246.19 578.51 245.146 578.245 244.221 577.717C243.296 577.189 242.565 576.424 242.028 575.422C241.491 574.421 241.223 573.208 241.223 571.785C241.223 570.358 241.491 569.143 242.028 568.142C242.565 567.14 243.296 566.377 244.221 565.853C245.146 565.325 246.19 565.061 247.353 565.061C248.508 565.061 249.548 565.325 250.472 565.853C251.401 566.377 252.134 567.14 252.671 568.142C253.212 569.143 253.483 570.358 253.483 571.785ZM250.677 571.785C250.677 570.86 250.538 570.081 250.261 569.446C249.989 568.811 249.603 568.329 249.104 568.001C248.606 567.673 248.022 567.509 247.353 567.509C246.684 567.509 246.1 567.673 245.602 568.001C245.103 568.329 244.715 568.811 244.438 569.446C244.166 570.081 244.029 570.86 244.029 571.785C244.029 572.71 244.166 573.49 244.438 574.125C244.715 574.76 245.103 575.241 245.602 575.569C246.1 575.897 246.684 576.061 247.353 576.061C248.022 576.061 248.606 575.897 249.104 575.569C249.603 575.241 249.989 574.76 250.261 574.125C250.538 573.49 250.677 572.71 250.677 571.785ZM267.563 571.785C267.563 573.213 267.292 574.427 266.751 575.429C266.214 576.43 265.481 577.195 264.552 577.723C263.628 578.247 262.588 578.51 261.433 578.51C260.27 578.51 259.226 578.245 258.301 577.717C257.376 577.189 256.645 576.424 256.109 575.422C255.572 574.421 255.303 573.208 255.303 571.785C255.303 570.358 255.572 569.143 256.109 568.142C256.645 567.14 257.376 566.377 258.301 565.853C259.226 565.325 260.27 565.061 261.433 565.061C262.588 565.061 263.628 565.325 264.552 565.853C265.481 566.377 266.214 567.14 266.751 568.142C267.292 569.143 267.563 570.358 267.563 571.785ZM264.757 571.785C264.757 570.86 264.618 570.081 264.341 569.446C264.069 568.811 263.683 568.329 263.185 568.001C262.686 567.673 262.102 567.509 261.433 567.509C260.764 567.509 260.18 567.673 259.682 568.001C259.183 568.329 258.795 568.811 258.518 569.446C258.246 570.081 258.109 570.86 258.109 571.785C258.109 572.71 258.246 573.49 258.518 574.125C258.795 574.76 259.183 575.241 259.682 575.569C260.18 575.897 260.764 576.061 261.433 576.061C262.102 576.061 262.686 575.897 263.185 575.569C263.683 575.241 264.069 574.76 264.341 574.125C264.618 573.49 264.757 572.71 264.757 571.785ZM269.613 565.24H273.027L276.632 574.035H276.785L280.39 565.24H283.804V578.331H281.119V569.81H281.01L277.623 578.267H275.794L272.407 569.778H272.298V578.331H269.613V565.24ZM295.197 578.51C294.524 578.505 293.874 578.392 293.248 578.171C292.626 577.949 292.067 577.589 291.573 577.091C291.079 576.592 290.687 575.931 290.397 575.109C290.112 574.287 289.969 573.277 289.969 572.079C289.973 570.98 290.099 569.997 290.346 569.132C290.597 568.263 290.955 567.526 291.42 566.921C291.889 566.316 292.449 565.855 293.101 565.54C293.753 565.22 294.484 565.061 295.293 565.061C296.167 565.061 296.938 565.231 297.607 565.572C298.276 565.909 298.813 566.367 299.218 566.946C299.627 567.526 299.874 568.176 299.96 568.896H297.23C297.124 568.44 296.9 568.082 296.559 567.822C296.218 567.562 295.796 567.432 295.293 567.432C294.441 567.432 293.793 567.803 293.35 568.544C292.911 569.286 292.688 570.294 292.679 571.568H292.768C292.965 571.18 293.229 570.85 293.561 570.577C293.898 570.3 294.279 570.089 294.705 569.944C295.136 569.795 295.59 569.72 296.067 569.72C296.842 569.72 297.533 569.904 298.138 570.27C298.743 570.632 299.22 571.131 299.57 571.766C299.919 572.401 300.094 573.127 300.094 573.946C300.094 574.832 299.887 575.62 299.474 576.311C299.065 577.001 298.491 577.542 297.754 577.934C297.021 578.322 296.169 578.514 295.197 578.51ZM295.185 576.336C295.611 576.336 295.992 576.234 296.329 576.029C296.666 575.825 296.93 575.548 297.121 575.198C297.313 574.849 297.409 574.457 297.409 574.022C297.409 573.588 297.313 573.198 297.121 572.853C296.934 572.507 296.674 572.233 296.342 572.028C296.009 571.823 295.63 571.721 295.204 571.721C294.884 571.721 294.588 571.781 294.315 571.9C294.047 572.019 293.81 572.186 293.606 572.399C293.406 572.612 293.248 572.859 293.133 573.14C293.018 573.417 292.96 573.713 292.96 574.029C292.96 574.451 293.056 574.836 293.248 575.186C293.444 575.535 293.708 575.814 294.041 576.023C294.377 576.232 294.759 576.336 295.185 576.336ZM307.189 578.618C306.09 578.614 305.143 578.343 304.351 577.806C303.563 577.269 302.955 576.492 302.529 575.473C302.107 574.455 301.898 573.23 301.903 571.798C301.903 570.37 302.114 569.154 302.536 568.148C302.962 567.142 303.569 566.377 304.357 565.853C305.15 565.325 306.094 565.061 307.189 565.061C308.284 565.061 309.226 565.325 310.014 565.853C310.807 566.382 311.416 567.149 311.842 568.154C312.268 569.156 312.479 570.37 312.475 571.798C312.475 573.234 312.262 574.461 311.836 575.48C311.414 576.498 310.809 577.276 310.021 577.813C309.232 578.35 308.288 578.618 307.189 578.618ZM307.189 576.323C307.939 576.323 308.538 575.946 308.985 575.192C309.433 574.438 309.654 573.306 309.65 571.798C309.65 570.805 309.548 569.978 309.343 569.318C309.143 568.657 308.857 568.161 308.487 567.828C308.12 567.496 307.688 567.33 307.189 567.33C306.443 567.33 305.847 567.703 305.399 568.448C304.952 569.194 304.726 570.311 304.722 571.798C304.722 572.804 304.822 573.643 305.022 574.316C305.227 574.985 305.514 575.488 305.885 575.825C306.256 576.157 306.69 576.323 307.189 576.323ZM314.251 576.029V573.85L319.716 565.24H321.595V568.257H320.483L317.037 573.709V573.811H324.804V576.029H314.251ZM320.534 578.331V575.365L320.585 574.399V565.24H323.18V578.331H320.534Z" fill="#4A5A62"/>
<path d="M932.408 185.124H763.147C761.463 185.124 760.097 186.244 760.097 187.625V254.524C760.097 255.905 761.463 257.025 763.147 257.025H932.408C934.092 257.025 935.458 255.905 935.458 254.524V187.625C935.458 186.244 934.092 185.124 932.408 185.124Z" fill="white" stroke="#B3C0C6" stroke-width="2"/>
<path d="M836.159 228.876V218.694H840.176C840.948 218.694 841.606 218.842 842.149 219.137C842.693 219.428 843.107 219.834 843.392 220.355C843.681 220.872 843.825 221.468 843.825 222.144C843.825 222.821 843.679 223.417 843.387 223.934C843.096 224.451 842.673 224.854 842.119 225.142C841.569 225.431 840.903 225.575 840.121 225.575H837.56V223.85H839.773C840.187 223.85 840.529 223.778 840.797 223.636C841.069 223.49 841.271 223.29 841.404 223.034C841.539 222.776 841.607 222.479 841.607 222.144C841.607 221.806 841.539 221.511 841.404 221.259C841.271 221.004 841.069 220.807 840.797 220.668C840.525 220.525 840.181 220.454 839.763 220.454H838.311V228.876H836.159ZM847.515 228.876L844.602 218.694H846.953L848.638 225.769H848.723L850.582 218.694H852.596L854.45 225.784H854.54L856.225 218.694H858.577L855.663 228.876H853.565L851.626 222.219H851.547L849.613 228.876H847.515ZM863.338 228.876H859.729V218.694H863.368C864.392 218.694 865.274 218.898 866.013 219.306C866.752 219.71 867.32 220.292 867.718 221.051C868.119 221.81 868.32 222.718 868.32 223.775C868.32 224.836 868.119 225.747 867.718 226.509C867.32 227.272 866.749 227.857 866.003 228.264C865.261 228.672 864.372 228.876 863.338 228.876ZM861.882 227.032H863.249C863.885 227.032 864.42 226.919 864.855 226.693C865.292 226.465 865.62 226.112 865.839 225.634C866.061 225.154 866.172 224.534 866.172 223.775C866.172 223.023 866.061 222.408 865.839 221.931C865.62 221.453 865.294 221.102 864.859 220.877C864.425 220.651 863.89 220.539 863.254 220.539H861.882V227.032Z" fill="#55636B"/>
<path d="M582.784 840.113C582.741 839.683 582.558 839.349 582.235 839.111C581.912 838.873 581.473 838.754 580.919 838.754C580.543 838.754 580.225 838.808 579.966 838.914C579.707 839.017 579.508 839.161 579.369 839.346C579.234 839.53 579.167 839.74 579.167 839.974C579.16 840.169 579.201 840.34 579.289 840.485C579.382 840.631 579.508 840.757 579.668 840.864C579.827 840.967 580.012 841.057 580.222 841.135C580.431 841.21 580.655 841.274 580.893 841.327L581.873 841.561C582.349 841.668 582.786 841.81 583.183 841.988C583.581 842.165 583.925 842.384 584.217 842.643C584.508 842.902 584.733 843.207 584.893 843.559C585.056 843.911 585.14 844.314 585.143 844.768C585.14 845.436 584.969 846.015 584.632 846.505C584.298 846.991 583.815 847.369 583.183 847.639C582.555 847.906 581.797 848.039 580.909 848.039C580.028 848.039 579.261 847.904 578.608 847.634C577.958 847.364 577.45 846.965 577.084 846.435C576.722 845.903 576.532 845.244 576.514 844.459H578.746C578.771 844.825 578.876 845.13 579.06 845.375C579.249 845.617 579.499 845.8 579.811 845.924C580.127 846.045 580.484 846.105 580.882 846.105C581.273 846.105 581.612 846.048 581.899 845.935C582.191 845.821 582.416 845.663 582.576 845.461C582.736 845.258 582.816 845.026 582.816 844.763C582.816 844.518 582.743 844.312 582.597 844.145C582.455 843.978 582.246 843.836 581.969 843.719C581.695 843.602 581.36 843.495 580.962 843.399L579.774 843.101C578.854 842.877 578.128 842.527 577.596 842.052C577.063 841.576 576.798 840.935 576.802 840.129C576.798 839.468 576.974 838.891 577.329 838.397C577.688 837.904 578.18 837.519 578.805 837.242C579.43 836.965 580.14 836.826 580.935 836.826C581.745 836.826 582.452 836.965 583.055 837.242C583.663 837.519 584.135 837.904 584.472 838.397C584.81 838.891 584.984 839.463 584.994 840.113H582.784ZM586.279 838.877V836.975H595.239V838.877H591.899V847.884H589.619V838.877H586.279ZM597.262 847.884H594.79L598.556 836.975H601.528L605.289 847.884H602.817L600.085 839.468H600L597.262 847.884ZM597.107 843.596H602.945V845.397H597.107V843.596ZM608.909 836.975V847.884H606.602V836.975H608.909ZM610.806 847.884V836.975H615.11C615.934 836.975 616.637 837.123 617.22 837.417C617.805 837.708 618.251 838.122 618.557 838.658C618.865 839.191 619.02 839.818 619.02 840.539C619.02 841.263 618.864 841.886 618.551 842.408C618.239 842.927 617.786 843.325 617.193 843.602C616.603 843.879 615.89 844.017 615.052 844.017H612.17V842.163H614.679C615.119 842.163 615.485 842.103 615.776 841.982C616.067 841.862 616.284 841.68 616.426 841.439C616.571 841.197 616.644 840.897 616.644 840.539C616.644 840.177 616.571 839.871 616.426 839.623C616.284 839.374 616.065 839.186 615.771 839.058C615.479 838.927 615.112 838.861 614.668 838.861H613.113V847.884H610.806ZM616.698 842.92L619.409 847.884H616.863L614.21 842.92H616.698ZM624.122 847.884V836.975H626.428V845.983H631.105V847.884H624.122ZM642.232 842.43C642.232 843.619 642.007 844.631 641.556 845.466C641.108 846.3 640.498 846.938 639.724 847.378C638.953 847.815 638.086 848.033 637.124 848.033C636.155 848.033 635.285 847.813 634.514 847.373C633.743 846.933 633.134 846.295 632.687 845.461C632.24 844.626 632.016 843.616 632.016 842.43C632.016 841.24 632.24 840.228 632.687 839.394C633.134 838.559 633.743 837.923 634.514 837.487C635.285 837.046 636.155 836.826 637.124 836.826C638.086 836.826 638.953 837.046 639.724 837.487C640.498 837.923 641.108 838.559 641.556 839.394C642.007 840.228 642.232 841.24 642.232 842.43ZM639.894 842.43C639.894 841.659 639.779 841.009 639.548 840.48C639.32 839.951 638.999 839.55 638.584 839.276C638.168 839.003 637.682 838.866 637.124 838.866C636.567 838.866 636.08 839.003 635.665 839.276C635.249 839.55 634.926 839.951 634.695 840.48C634.468 841.009 634.354 841.659 634.354 842.43C634.354 843.2 634.468 843.85 634.695 844.379C634.926 844.908 635.249 845.31 635.665 845.583C636.08 845.857 636.567 845.993 637.124 845.993C637.682 845.993 638.168 845.857 638.584 845.583C638.999 845.31 639.32 844.908 639.548 844.379C639.779 843.85 639.894 843.2 639.894 842.43ZM643.941 847.884V836.975H648.309C649.111 836.975 649.781 837.094 650.317 837.332C650.853 837.57 651.256 837.9 651.526 838.323C651.796 838.742 651.931 839.225 651.931 839.772C651.931 840.198 651.846 840.572 651.675 840.896C651.505 841.215 651.27 841.478 650.972 841.684C650.677 841.886 650.34 842.03 649.96 842.115V842.222C650.376 842.24 650.764 842.357 651.127 842.574C651.492 842.79 651.789 843.094 652.016 843.484C652.244 843.871 652.357 844.333 652.357 844.869C652.357 845.448 652.213 845.965 651.926 846.419C651.642 846.87 651.221 847.227 650.663 847.49C650.106 847.753 649.419 847.884 648.602 847.884H643.941ZM646.247 845.999H648.128C648.77 845.999 649.239 845.876 649.534 845.631C649.829 845.383 649.976 845.052 649.976 844.64C649.976 844.338 649.903 844.072 649.758 843.841C649.612 843.61 649.404 843.429 649.134 843.298C648.868 843.167 648.55 843.101 648.181 843.101H646.247V845.999ZM646.247 841.54H647.957C648.273 841.54 648.554 841.485 648.799 841.375C649.047 841.261 649.243 841.102 649.385 840.896C649.53 840.69 649.603 840.443 649.603 840.155C649.603 839.761 649.463 839.443 649.182 839.202C648.905 838.96 648.511 838.84 648 838.84H646.247V841.54ZM653.858 847.884V836.975H658.226C659.028 836.975 659.698 837.094 660.234 837.332C660.77 837.57 661.173 837.9 661.443 838.323C661.713 838.742 661.848 839.225 661.848 839.772C661.848 840.198 661.763 840.572 661.592 840.896C661.422 841.215 661.187 841.478 660.889 841.684C660.594 841.886 660.257 842.03 659.877 842.115V842.222C660.293 842.24 660.681 842.357 661.044 842.574C661.409 842.79 661.706 843.094 661.933 843.484C662.161 843.871 662.274 844.333 662.274 844.869C662.274 845.448 662.13 845.965 661.843 846.419C661.559 846.87 661.138 847.227 660.58 847.49C660.023 847.753 659.336 847.884 658.519 847.884H653.858ZM656.164 845.999H658.045C658.687 845.999 659.156 845.876 659.451 845.631C659.746 845.383 659.893 845.052 659.893 844.64C659.893 844.338 659.82 844.072 659.675 843.841C659.529 843.61 659.321 843.429 659.051 843.298C658.785 843.167 658.467 843.101 658.098 843.101H656.164V845.999ZM656.164 841.54H657.874C658.19 841.54 658.471 841.485 658.716 841.375C658.964 841.261 659.16 841.102 659.302 840.896C659.447 840.69 659.52 840.443 659.52 840.155C659.52 839.761 659.38 839.443 659.099 839.202C658.822 838.96 658.428 838.84 657.917 838.84H656.164V841.54ZM663.136 836.975H665.719L668.207 841.673H668.313L670.801 836.975H673.384L669.405 844.028V847.884H667.115V844.028L663.136 836.975Z" fill="#43606B"/>
<path d="M931.651 710.744H774.651C772.442 710.744 770.651 712.535 770.651 714.744V966.744C770.651 968.953 772.442 970.744 774.651 970.744H931.651C933.861 970.744 935.651 968.953 935.651 966.744V714.744C935.651 712.535 933.861 710.744 931.651 710.744Z" fill="#E7EEF1" stroke="#8FA9B3" stroke-width="2"/>
<path d="M770.651 745.744H935.651" stroke="#8FA9B3" stroke-width="2"/>
<path d="M770.651 780.744H935.651" stroke="#8FA9B3" stroke-width="2"/>
<path d="M770.651 815.744H935.651" stroke="#8FA9B3" stroke-width="2"/>
<path d="M770.651 850.744H935.651" stroke="#8FA9B3" stroke-width="2"/>
<path d="M770.651 885.744H935.651" stroke="#8FA9B3" stroke-width="2"/>
<path d="M770.651 920.744H935.651" stroke="#8FA9B3" stroke-width="2"/>
<path d="M452.821 992.562H76.1016C72.2957 992.562 69.2104 995.827 69.2104 999.855V1277C69.2104 1281.03 72.2957 1284.3 76.1016 1284.3H452.821C456.626 1284.3 459.712 1281.03 459.712 1277V999.855C459.712 995.827 456.626 992.562 452.821 992.562Z" fill="#EAF1F3" stroke="#B3C0C6" stroke-width="2"/>
<path d="M238.882 1150.06V1137.69H243.76C244.693 1137.69 245.49 1137.86 246.15 1138.2C246.814 1138.53 247.32 1138.99 247.666 1139.6C248.016 1140.21 248.191 1140.92 248.191 1141.73C248.191 1142.55 248.014 1143.26 247.66 1143.85C247.305 1144.44 246.792 1144.89 246.12 1145.2C245.452 1145.52 244.643 1145.68 243.693 1145.68H240.427V1143.57H243.271C243.77 1143.57 244.184 1143.51 244.514 1143.37C244.844 1143.23 245.09 1143.03 245.251 1142.75C245.416 1142.48 245.498 1142.14 245.498 1141.73C245.498 1141.32 245.416 1140.98 245.251 1140.69C245.09 1140.41 244.842 1140.2 244.508 1140.05C244.178 1139.91 243.762 1139.83 243.259 1139.83H241.496V1150.06H238.882ZM245.559 1144.43L248.632 1150.06H245.746L242.74 1144.43H245.559ZM261.4 1143.88C261.4 1145.22 261.144 1146.37 260.633 1147.32C260.126 1148.26 259.434 1148.99 258.556 1149.48C257.683 1149.98 256.701 1150.23 255.61 1150.23C254.512 1150.23 253.526 1149.98 252.652 1149.48C251.779 1148.98 251.089 1148.26 250.582 1147.31C250.074 1146.37 249.821 1145.22 249.821 1143.88C249.821 1142.53 250.074 1141.38 250.582 1140.43C251.089 1139.49 251.779 1138.77 252.652 1138.27C253.526 1137.77 254.512 1137.53 255.61 1137.53C256.701 1137.53 257.683 1137.77 258.556 1138.27C259.434 1138.77 260.126 1139.49 260.633 1140.43C261.144 1141.38 261.4 1142.53 261.4 1143.88ZM258.749 1143.88C258.749 1143 258.619 1142.27 258.357 1141.67C258.1 1141.07 257.735 1140.61 257.264 1140.3C256.794 1139.99 256.242 1139.84 255.61 1139.84C254.978 1139.84 254.427 1139.99 253.956 1140.3C253.485 1140.61 253.119 1141.07 252.857 1141.67C252.6 1142.27 252.471 1143 252.471 1143.88C252.471 1144.75 252.6 1145.49 252.857 1146.09C253.119 1146.69 253.485 1147.14 253.956 1147.45C254.427 1147.76 254.978 1147.91 255.61 1147.91C256.242 1147.91 256.794 1147.76 257.264 1147.45C257.735 1147.14 258.1 1146.69 258.357 1146.09C258.619 1145.49 258.749 1144.75 258.749 1143.88ZM274.698 1143.88C274.698 1145.22 274.442 1146.37 273.931 1147.32C273.424 1148.26 272.732 1148.99 271.854 1149.48C270.981 1149.98 269.999 1150.23 268.908 1150.23C267.809 1150.23 266.823 1149.98 265.95 1149.48C265.077 1148.98 264.386 1148.26 263.879 1147.31C263.372 1146.37 263.119 1145.22 263.119 1143.88C263.119 1142.53 263.372 1141.38 263.879 1140.43C264.386 1139.49 265.077 1138.77 265.95 1138.27C266.823 1137.77 267.809 1137.53 268.908 1137.53C269.999 1137.53 270.981 1137.77 271.854 1138.27C272.732 1138.77 273.424 1139.49 273.931 1140.43C274.442 1141.38 274.698 1142.53 274.698 1143.88ZM272.047 1143.88C272.047 1143 271.917 1142.27 271.655 1141.67C271.397 1141.07 271.033 1140.61 270.562 1140.3C270.091 1139.99 269.54 1139.84 268.908 1139.84C268.276 1139.84 267.725 1139.99 267.254 1140.3C266.783 1140.61 266.417 1141.07 266.155 1141.67C265.898 1142.27 265.769 1143 265.769 1143.88C265.769 1144.75 265.898 1145.49 266.155 1146.09C266.417 1146.69 266.783 1147.14 267.254 1147.45C267.725 1147.76 268.276 1147.91 268.908 1147.91C269.54 1147.91 270.091 1147.76 270.562 1147.45C271.033 1147.14 271.397 1146.69 271.655 1146.09C271.917 1145.49 272.047 1144.75 272.047 1143.88ZM276.634 1137.69H279.858L283.262 1146H283.407L286.812 1137.69H290.036V1150.06H287.5V1142.01H287.398L284.198 1150H282.472L279.272 1141.98H279.169V1150.06H276.634V1137.69ZM253.391 1171.23C252.755 1171.22 252.141 1171.12 251.55 1170.91C250.962 1170.7 250.435 1170.36 249.968 1169.89C249.501 1169.42 249.131 1168.79 248.857 1168.02C248.588 1167.24 248.453 1166.28 248.453 1165.15C248.457 1164.12 248.575 1163.19 248.809 1162.37C249.046 1161.55 249.384 1160.85 249.823 1160.28C250.266 1159.71 250.795 1159.28 251.411 1158.98C252.027 1158.68 252.717 1158.53 253.482 1158.53C254.307 1158.53 255.035 1158.69 255.667 1159.01C256.299 1159.33 256.806 1159.76 257.188 1160.31C257.575 1160.85 257.808 1161.47 257.888 1162.15H255.311C255.21 1161.72 254.999 1161.38 254.677 1161.13C254.355 1160.89 253.956 1160.76 253.482 1160.76C252.677 1160.76 252.065 1161.12 251.646 1161.82C251.232 1162.52 251.02 1163.47 251.012 1164.67H251.097C251.282 1164.3 251.532 1163.99 251.845 1163.74C252.163 1163.47 252.524 1163.27 252.926 1163.14C253.333 1163 253.761 1162.93 254.212 1162.93C254.944 1162.93 255.596 1163.1 256.168 1163.45C256.739 1163.79 257.19 1164.26 257.52 1164.86C257.85 1165.46 258.015 1166.14 258.015 1166.92C258.015 1167.75 257.82 1168.5 257.43 1169.15C257.043 1169.8 256.502 1170.31 255.806 1170.68C255.113 1171.05 254.309 1171.23 253.391 1171.23ZM253.379 1169.17C253.781 1169.17 254.142 1169.08 254.459 1168.88C254.777 1168.69 255.027 1168.43 255.208 1168.1C255.389 1167.77 255.48 1167.4 255.48 1166.99C255.48 1166.58 255.389 1166.21 255.208 1165.88C255.031 1165.56 254.785 1165.3 254.472 1165.11C254.158 1164.91 253.799 1164.82 253.397 1164.82C253.095 1164.82 252.815 1164.87 252.558 1164.98C252.304 1165.1 252.081 1165.25 251.888 1165.46C251.699 1165.66 251.55 1165.89 251.441 1166.16C251.332 1166.42 251.278 1166.7 251.278 1167C251.278 1167.39 251.369 1167.76 251.55 1168.09C251.735 1168.42 251.984 1168.68 252.298 1168.88C252.616 1169.08 252.976 1169.17 253.379 1169.17ZM264.716 1171.33C263.678 1171.33 262.784 1171.07 262.036 1170.56C261.291 1170.06 260.718 1169.32 260.315 1168.36C259.917 1167.4 259.72 1166.24 259.724 1164.89C259.724 1163.54 259.923 1162.39 260.321 1161.44C260.724 1160.49 261.297 1159.77 262.042 1159.27C262.79 1158.77 263.682 1158.53 264.716 1158.53C265.751 1158.53 266.64 1158.77 267.385 1159.27C268.133 1159.77 268.709 1160.5 269.111 1161.45C269.514 1162.39 269.713 1163.54 269.709 1164.89C269.709 1166.24 269.508 1167.4 269.105 1168.37C268.707 1169.33 268.135 1170.06 267.391 1170.57C266.646 1171.08 265.755 1171.33 264.716 1171.33ZM264.716 1169.16C265.425 1169.16 265.99 1168.81 266.413 1168.09C266.835 1167.38 267.044 1166.31 267.04 1164.89C267.04 1163.95 266.944 1163.17 266.751 1162.55C266.562 1161.92 266.292 1161.45 265.942 1161.14C265.596 1160.83 265.187 1160.67 264.716 1160.67C264.012 1160.67 263.448 1161.02 263.026 1161.72C262.603 1162.43 262.39 1163.48 262.386 1164.89C262.386 1165.84 262.481 1166.63 262.67 1167.27C262.863 1167.9 263.135 1168.37 263.485 1168.69C263.835 1169.01 264.245 1169.16 264.716 1169.16ZM271.573 1171.06V1169.17L275.974 1165.1C276.348 1164.74 276.662 1164.41 276.915 1164.12C277.173 1163.83 277.368 1163.55 277.501 1163.27C277.634 1162.99 277.7 1162.68 277.7 1162.36C277.7 1162 277.618 1161.68 277.453 1161.42C277.288 1161.16 277.062 1160.95 276.777 1160.81C276.491 1160.67 276.167 1160.6 275.805 1160.6C275.426 1160.6 275.096 1160.67 274.815 1160.83C274.533 1160.98 274.315 1161.2 274.163 1161.48C274.01 1161.77 273.933 1162.11 273.933 1162.5H271.452C271.452 1161.69 271.635 1160.99 272.001 1160.4C272.368 1159.8 272.881 1159.34 273.541 1159.01C274.201 1158.69 274.961 1158.53 275.823 1158.53C276.708 1158.53 277.479 1158.68 278.135 1159C278.795 1159.31 279.308 1159.74 279.674 1160.29C280.04 1160.84 280.224 1161.47 280.224 1162.18C280.224 1162.65 280.131 1163.11 279.946 1163.57C279.765 1164.02 279.441 1164.53 278.974 1165.08C278.507 1165.63 277.849 1166.29 277 1167.07L275.195 1168.84V1168.92H280.387V1171.06H271.573Z" fill="#4A5A62"/>
<path d="M928.624 986.777H555.038C551.263 986.777 548.204 990.042 548.204 994.07V1271.22C548.204 1275.25 551.263 1278.51 555.038 1278.51H928.624C932.398 1278.51 935.458 1275.25 935.458 1271.22V994.07C935.458 990.042 932.398 986.777 928.624 986.777Z" fill="#EAF1F3" stroke="#B3C0C6" stroke-width="2"/>
<path d="M716.251 1143.45V1131.08H721.129C722.063 1131.08 722.86 1131.25 723.52 1131.58C724.184 1131.91 724.689 1132.38 725.035 1132.99C725.385 1133.59 725.56 1134.3 725.56 1135.12C725.56 1135.94 725.383 1136.65 725.029 1137.24C724.675 1137.83 724.162 1138.28 723.49 1138.59C722.822 1138.91 722.013 1139.06 721.063 1139.06H717.797V1136.96H720.64C721.139 1136.96 721.554 1136.89 721.884 1136.76C722.214 1136.62 722.459 1136.42 722.62 1136.14C722.785 1135.87 722.868 1135.53 722.868 1135.12C722.868 1134.71 722.785 1134.36 722.62 1134.08C722.459 1133.8 722.212 1133.59 721.878 1133.44C721.548 1133.29 721.131 1133.22 720.628 1133.22H718.865V1143.45H716.251ZM722.928 1137.82L726.001 1143.45H723.115L720.109 1137.82H722.928ZM738.769 1137.26C738.769 1138.61 738.514 1139.76 738.003 1140.71C737.495 1141.65 736.803 1142.37 735.926 1142.87C735.052 1143.37 734.07 1143.62 732.98 1143.62C731.881 1143.62 730.895 1143.37 730.022 1142.87C729.148 1142.37 728.458 1141.65 727.951 1140.7C727.444 1139.75 727.19 1138.61 727.19 1137.26C727.19 1135.92 727.444 1134.77 727.951 1133.82C728.458 1132.88 729.148 1132.16 730.022 1131.66C730.895 1131.16 731.881 1130.91 732.98 1130.91C734.07 1130.91 735.052 1131.16 735.926 1131.66C736.803 1132.16 737.495 1132.88 738.003 1133.82C738.514 1134.77 738.769 1135.92 738.769 1137.26ZM736.119 1137.26C736.119 1136.39 735.988 1135.65 735.727 1135.05C735.469 1134.46 735.105 1134 734.634 1133.69C734.163 1133.38 733.612 1133.23 732.98 1133.23C732.348 1133.23 731.797 1133.38 731.326 1133.69C730.855 1134 730.489 1134.46 730.227 1135.05C729.969 1135.65 729.841 1136.39 729.841 1137.26C729.841 1138.14 729.969 1138.87 730.227 1139.47C730.489 1140.07 730.855 1140.53 731.326 1140.84C731.797 1141.15 732.348 1141.3 732.98 1141.3C733.612 1141.3 734.163 1141.15 734.634 1140.84C735.105 1140.53 735.469 1140.07 735.727 1139.47C735.988 1138.87 736.119 1138.14 736.119 1137.26ZM752.067 1137.26C752.067 1138.61 751.811 1139.76 751.3 1140.71C750.793 1141.65 750.101 1142.37 749.224 1142.87C748.35 1143.37 747.368 1143.62 746.278 1143.62C745.179 1143.62 744.193 1143.37 743.32 1142.87C742.446 1142.37 741.756 1141.65 741.249 1140.7C740.742 1139.75 740.488 1138.61 740.488 1137.26C740.488 1135.92 740.742 1134.77 741.249 1133.82C741.756 1132.88 742.446 1132.16 743.32 1131.66C744.193 1131.16 745.179 1130.91 746.278 1130.91C747.368 1130.91 748.35 1131.16 749.224 1131.66C750.101 1132.16 750.793 1132.88 751.3 1133.82C751.811 1134.77 752.067 1135.92 752.067 1137.26ZM749.417 1137.26C749.417 1136.39 749.286 1135.65 749.024 1135.05C748.767 1134.46 748.403 1134 747.932 1133.69C747.461 1133.38 746.91 1133.23 746.278 1133.23C745.646 1133.23 745.094 1133.38 744.624 1133.69C744.153 1134 743.786 1134.46 743.525 1135.05C743.267 1135.65 743.138 1136.39 743.138 1137.26C743.138 1138.14 743.267 1138.87 743.525 1139.47C743.786 1140.07 744.153 1140.53 744.624 1140.84C745.094 1141.15 745.646 1141.3 746.278 1141.3C746.91 1141.3 747.461 1141.15 747.932 1140.84C748.403 1140.53 748.767 1140.07 749.024 1139.47C749.286 1138.87 749.417 1138.14 749.417 1137.26ZM754.003 1131.08H757.227L760.632 1139.39H760.777L764.182 1131.08H767.405V1143.45H764.87V1135.4H764.767L761.568 1143.39H759.841L756.642 1135.37H756.539V1143.45H754.003V1131.08ZM731.956 1164.62C731.32 1164.61 730.706 1164.5 730.115 1164.3C729.527 1164.09 729 1163.75 728.533 1163.28C728.066 1162.8 727.696 1162.18 727.422 1161.4C727.152 1160.63 727.018 1159.67 727.018 1158.54C727.022 1157.5 727.14 1156.58 727.374 1155.76C727.611 1154.94 727.949 1154.24 728.388 1153.67C728.831 1153.1 729.36 1152.66 729.976 1152.37C730.591 1152.06 731.282 1151.91 732.046 1151.91C732.871 1151.91 733.6 1152.07 734.232 1152.4C734.864 1152.71 735.371 1153.15 735.753 1153.69C736.139 1154.24 736.373 1154.86 736.453 1155.54H733.876C733.775 1155.11 733.564 1154.77 733.242 1154.52C732.92 1154.28 732.521 1154.15 732.046 1154.15C731.241 1154.15 730.63 1154.5 730.211 1155.2C729.797 1155.9 729.585 1156.86 729.577 1158.06H729.662C729.847 1157.69 730.096 1157.38 730.41 1157.12C730.728 1156.86 731.088 1156.66 731.491 1156.53C731.897 1156.38 732.326 1156.31 732.777 1156.31C733.509 1156.31 734.161 1156.49 734.733 1156.83C735.304 1157.18 735.755 1157.65 736.085 1158.25C736.415 1158.85 736.58 1159.53 736.58 1160.3C736.58 1161.14 736.385 1161.89 735.994 1162.54C735.608 1163.19 735.067 1163.7 734.371 1164.07C733.678 1164.44 732.873 1164.62 731.956 1164.62ZM731.944 1162.56C732.346 1162.56 732.706 1162.47 733.024 1162.27C733.342 1162.08 733.592 1161.82 733.773 1161.49C733.954 1161.16 734.045 1160.79 734.045 1160.38C734.045 1159.97 733.954 1159.6 733.773 1159.27C733.596 1158.95 733.35 1158.69 733.036 1158.49C732.722 1158.3 732.364 1158.2 731.962 1158.2C731.66 1158.2 731.38 1158.26 731.123 1158.37C730.869 1158.49 730.646 1158.64 730.453 1158.84C730.263 1159.05 730.115 1159.28 730.006 1159.54C729.897 1159.81 729.843 1160.09 729.843 1160.38C729.843 1160.78 729.933 1161.15 730.115 1161.48C730.3 1161.81 730.549 1162.07 730.863 1162.27C731.181 1162.46 731.541 1162.56 731.944 1162.56ZM743.281 1164.72C742.243 1164.71 741.349 1164.46 740.601 1163.95C739.856 1163.44 739.283 1162.71 738.88 1161.75C738.482 1160.79 738.284 1159.63 738.289 1158.28C738.289 1156.93 738.488 1155.78 738.886 1154.83C739.289 1153.88 739.862 1153.16 740.607 1152.66C741.355 1152.16 742.247 1151.91 743.281 1151.91C744.315 1151.91 745.205 1152.16 745.949 1152.66C746.698 1153.16 747.273 1153.89 747.676 1154.84C748.078 1155.78 748.278 1156.93 748.274 1158.28C748.274 1159.63 748.072 1160.79 747.67 1161.75C747.271 1162.72 746.7 1163.45 745.955 1163.96C745.211 1164.46 744.319 1164.72 743.281 1164.72ZM743.281 1162.55C743.989 1162.55 744.555 1162.19 744.977 1161.48C745.4 1160.77 745.609 1159.7 745.605 1158.28C745.605 1157.34 745.509 1156.56 745.316 1155.93C745.126 1155.31 744.857 1154.84 744.507 1154.53C744.16 1154.21 743.752 1154.06 743.281 1154.06C742.577 1154.06 742.013 1154.41 741.591 1155.11C741.168 1155.82 740.955 1156.87 740.951 1158.28C740.951 1159.23 741.045 1160.02 741.235 1160.66C741.428 1161.29 741.699 1161.76 742.05 1162.08C742.4 1162.39 742.81 1162.55 743.281 1162.55ZM755.516 1152.08V1164.45H752.902V1154.56H752.83L749.999 1156.34V1154.02L753.059 1152.08H755.516Z" fill="#4A5A62"/>
<path d="M929.483 271.901H602.889C599.59 271.901 596.915 275.074 596.915 278.988V548.285C596.915 552.199 599.59 555.372 602.889 555.372H929.483C932.783 555.372 935.458 552.199 935.458 548.285V278.988C935.458 275.074 932.783 271.901 929.483 271.901Z" fill="#EAF1F3" stroke="#B3C0C6" stroke-width="2"/>
<path d="M740.607 417V404.636H745.485C746.419 404.636 747.216 404.803 747.876 405.137C748.54 405.467 749.045 405.936 749.391 406.544C749.741 407.148 749.916 407.858 749.916 408.675C749.916 409.496 749.739 410.202 749.385 410.794C749.031 411.382 748.518 411.832 747.845 412.146C747.177 412.46 746.368 412.617 745.419 412.617H742.153V410.516H744.996C745.495 410.516 745.91 410.448 746.24 410.311C746.57 410.174 746.815 409.969 746.976 409.695C747.141 409.422 747.224 409.082 747.224 408.675C747.224 408.265 747.141 407.918 746.976 407.637C746.815 407.355 746.568 407.142 746.234 406.997C745.904 406.848 745.487 406.773 744.984 406.773H743.221V417H740.607ZM747.284 411.374L750.357 417H747.471L744.465 411.374H747.284ZM763.125 410.818C763.125 412.166 762.869 413.313 762.358 414.259C761.851 415.205 761.159 415.927 760.282 416.426C759.408 416.922 758.426 417.169 757.336 417.169C756.237 417.169 755.251 416.92 754.377 416.42C753.504 415.921 752.814 415.199 752.307 414.253C751.8 413.307 751.546 412.162 751.546 410.818C751.546 409.47 751.8 408.323 752.307 407.377C752.814 406.431 753.504 405.711 754.377 405.216C755.251 404.717 756.237 404.467 757.336 404.467C758.426 404.467 759.408 404.717 760.282 405.216C761.159 405.711 761.851 406.431 762.358 407.377C762.869 408.323 763.125 409.47 763.125 410.818ZM760.475 410.818C760.475 409.945 760.344 409.208 760.082 408.609C759.825 408.009 759.461 407.554 758.99 407.244C758.519 406.934 757.967 406.779 757.336 406.779C756.704 406.779 756.152 406.934 755.681 407.244C755.211 407.554 754.844 408.009 754.583 408.609C754.325 409.208 754.196 409.945 754.196 410.818C754.196 411.692 754.325 412.428 754.583 413.028C754.844 413.627 755.211 414.082 755.681 414.392C756.152 414.702 756.704 414.857 757.336 414.857C757.967 414.857 758.519 414.702 758.99 414.392C759.461 414.082 759.825 413.627 760.082 413.028C760.344 412.428 760.475 411.692 760.475 410.818ZM776.423 410.818C776.423 412.166 776.167 413.313 775.656 414.259C775.149 415.205 774.457 415.927 773.579 416.426C772.706 416.922 771.724 417.169 770.633 417.169C769.535 417.169 768.549 416.92 767.675 416.42C766.802 415.921 766.112 415.199 765.605 414.253C765.097 413.307 764.844 412.162 764.844 410.818C764.844 409.47 765.097 408.323 765.605 407.377C766.112 406.431 766.802 405.711 767.675 405.216C768.549 404.717 769.535 404.467 770.633 404.467C771.724 404.467 772.706 404.717 773.579 405.216C774.457 405.711 775.149 406.431 775.656 407.377C776.167 408.323 776.423 409.47 776.423 410.818ZM773.773 410.818C773.773 409.945 773.642 409.208 773.38 408.609C773.123 408.009 772.758 407.554 772.287 407.244C771.817 406.934 771.265 406.779 770.633 406.779C770.001 406.779 769.45 406.934 768.979 407.244C768.508 407.554 768.142 408.009 767.881 408.609C767.623 409.208 767.494 409.945 767.494 410.818C767.494 411.692 767.623 412.428 767.881 413.028C768.142 413.627 768.508 414.082 768.979 414.392C769.45 414.702 770.001 414.857 770.633 414.857C771.265 414.857 771.817 414.702 772.287 414.392C772.758 414.082 773.123 413.627 773.38 413.028C773.642 412.428 773.773 411.692 773.773 410.818ZM778.359 404.636H781.583L784.988 412.943H785.133L788.537 404.636H791.761V417H789.226V408.953H789.123L785.923 416.94H784.197L780.997 408.923H780.895V417H778.359V404.636ZM754.859 438.169C754.223 438.165 753.609 438.058 753.018 437.849C752.43 437.64 751.903 437.3 751.436 436.829C750.969 436.358 750.599 435.734 750.325 434.957C750.055 434.181 749.921 433.227 749.921 432.096C749.925 431.058 750.043 430.13 750.277 429.313C750.514 428.492 750.852 427.796 751.291 427.224C751.734 426.653 752.263 426.218 752.879 425.92C753.495 425.618 754.185 425.467 754.949 425.467C755.774 425.467 756.503 425.628 757.135 425.95C757.767 426.268 758.274 426.701 758.656 427.248C759.042 427.796 759.276 428.409 759.356 429.089H756.779C756.678 428.659 756.467 428.321 756.145 428.075C755.823 427.83 755.424 427.707 754.949 427.707C754.144 427.707 753.533 428.057 753.114 428.757C752.7 429.458 752.488 430.41 752.48 431.613H752.565C752.75 431.247 752.999 430.935 753.313 430.677C753.631 430.416 753.992 430.216 754.394 430.08C754.8 429.939 755.229 429.868 755.68 429.868C756.412 429.868 757.064 430.041 757.636 430.387C758.207 430.73 758.658 431.2 758.988 431.8C759.318 432.4 759.483 433.086 759.483 433.859C759.483 434.696 759.288 435.44 758.898 436.092C758.511 436.744 757.97 437.255 757.274 437.626C756.581 437.992 755.776 438.173 754.859 438.169ZM754.847 436.116C755.249 436.116 755.609 436.02 755.927 435.827C756.245 435.634 756.495 435.372 756.676 435.042C756.857 434.712 756.948 434.342 756.948 433.931C756.948 433.521 756.857 433.152 756.676 432.826C756.499 432.5 756.253 432.241 755.939 432.048C755.626 431.854 755.267 431.758 754.865 431.758C754.563 431.758 754.283 431.814 754.026 431.927C753.772 432.04 753.549 432.196 753.356 432.398C753.166 432.599 753.018 432.832 752.909 433.098C752.8 433.36 752.746 433.639 752.746 433.937C752.746 434.336 752.836 434.7 753.018 435.03C753.203 435.36 753.452 435.623 753.766 435.821C754.084 436.018 754.444 436.116 754.847 436.116ZM766.184 438.272C765.146 438.268 764.252 438.012 763.504 437.505C762.759 436.998 762.186 436.263 761.783 435.301C761.385 434.34 761.188 433.183 761.192 431.83C761.192 430.482 761.391 429.333 761.789 428.383C762.192 427.433 762.765 426.711 763.51 426.216C764.258 425.717 765.15 425.467 766.184 425.467C767.218 425.467 768.108 425.717 768.852 426.216C769.601 426.715 770.177 427.439 770.579 428.389C770.981 429.335 771.181 430.482 771.177 431.83C771.177 433.187 770.975 434.346 770.573 435.308C770.175 436.269 769.603 437.004 768.858 437.511C768.114 438.018 767.222 438.272 766.184 438.272ZM766.184 436.104C766.892 436.104 767.458 435.748 767.881 435.036C768.303 434.324 768.512 433.255 768.508 431.83C768.508 430.893 768.412 430.112 768.219 429.488C768.029 428.864 767.76 428.395 767.41 428.081C767.064 427.767 766.655 427.61 766.184 427.61C765.48 427.61 764.916 427.963 764.494 428.667C764.071 429.371 763.858 430.426 763.854 431.83C763.854 432.78 763.948 433.573 764.138 434.209C764.331 434.841 764.602 435.316 764.953 435.634C765.303 435.947 765.713 436.104 766.184 436.104ZM777.786 438.169C777.15 438.165 776.536 438.058 775.944 437.849C775.357 437.64 774.83 437.3 774.363 436.829C773.896 436.358 773.526 435.734 773.252 434.957C772.982 434.181 772.847 433.227 772.847 432.096C772.851 431.058 772.97 430.13 773.204 429.313C773.441 428.492 773.779 427.796 774.218 427.224C774.66 426.653 775.19 426.218 775.805 425.92C776.421 425.618 777.111 425.467 777.876 425.467C778.701 425.467 779.43 425.628 780.062 425.95C780.693 426.268 781.2 426.701 781.583 427.248C781.969 427.796 782.203 428.409 782.283 429.089H779.705C779.605 428.659 779.393 428.321 779.071 428.075C778.75 427.83 778.351 427.707 777.876 427.707C777.071 427.707 776.459 428.057 776.041 428.757C775.626 429.458 775.415 430.41 775.407 431.613H775.492C775.677 431.247 775.926 430.935 776.24 430.677C776.558 430.416 776.918 430.216 777.321 430.08C777.727 429.939 778.156 429.868 778.607 429.868C779.339 429.868 779.991 430.041 780.563 430.387C781.134 430.73 781.585 431.2 781.915 431.8C782.245 432.4 782.41 433.086 782.41 433.859C782.41 434.696 782.215 435.44 781.824 436.092C781.438 436.744 780.897 437.255 780.2 437.626C779.508 437.992 778.703 438.173 777.786 438.169ZM777.774 436.116C778.176 436.116 778.536 436.02 778.854 435.827C779.172 435.634 779.422 435.372 779.603 435.042C779.784 434.712 779.874 434.342 779.874 433.931C779.874 433.521 779.784 433.152 779.603 432.826C779.426 432.5 779.18 432.241 778.866 432.048C778.552 431.854 778.194 431.758 777.792 431.758C777.49 431.758 777.21 431.814 776.953 431.927C776.699 432.04 776.476 432.196 776.282 432.398C776.093 432.599 775.944 432.832 775.836 433.098C775.727 433.36 775.673 433.639 775.673 433.937C775.673 434.336 775.763 434.7 775.944 435.03C776.129 435.36 776.379 435.623 776.693 435.821C777.011 436.018 777.371 436.116 777.774 436.116Z" fill="#4A5A62"/>
<path d="M452.821 685.95H76.1016C72.2957 685.95 69.2104 689.216 69.2104 693.244V970.393C69.2104 974.421 72.2957 977.686 76.1016 977.686H452.821C456.626 977.686 459.712 974.421 459.712 970.393V693.244C459.712 689.216 456.626 685.95 452.821 685.95Z" fill="#EAF1F3" stroke="#B3C0C6" stroke-width="2"/>
<path d="M238.882 849.231V836.868H243.76C244.693 836.868 245.49 837.035 246.15 837.369C246.814 837.699 247.32 838.168 247.666 838.775C248.016 839.379 248.191 840.09 248.191 840.907C248.191 841.728 248.014 842.434 247.66 843.025C247.305 843.613 246.792 844.064 246.12 844.378C245.452 844.692 244.643 844.849 243.693 844.849H240.427V842.748H243.271C243.77 842.748 244.184 842.679 244.514 842.543C244.844 842.406 245.09 842.2 245.251 841.927C245.416 841.653 245.498 841.313 245.498 840.907C245.498 840.496 245.416 840.15 245.251 839.868C245.09 839.586 244.842 839.373 244.508 839.228C244.178 839.079 243.762 839.005 243.259 839.005H241.496V849.231H238.882ZM245.559 843.605L248.632 849.231H245.746L242.74 843.605H245.559ZM261.4 843.05C261.4 844.398 261.144 845.545 260.633 846.491C260.126 847.436 259.434 848.159 258.556 848.658C257.683 849.153 256.701 849.4 255.61 849.4C254.512 849.4 253.526 849.151 252.652 848.652C251.779 848.153 251.089 847.43 250.582 846.485C250.074 845.539 249.821 844.394 249.821 843.05C249.821 841.701 250.074 840.554 250.582 839.609C251.089 838.663 251.779 837.942 252.652 837.447C253.526 836.948 254.512 836.699 255.61 836.699C256.701 836.699 257.683 836.948 258.556 837.447C259.434 837.942 260.126 838.663 260.633 839.609C261.144 840.554 261.4 841.701 261.4 843.05ZM258.749 843.05C258.749 842.176 258.619 841.44 258.357 840.84C258.1 840.24 257.735 839.786 257.264 839.476C256.794 839.166 256.242 839.011 255.61 839.011C254.978 839.011 254.427 839.166 253.956 839.476C253.485 839.786 253.119 840.24 252.857 840.84C252.6 841.44 252.471 842.176 252.471 843.05C252.471 843.923 252.6 844.659 252.857 845.259C253.119 845.859 253.485 846.314 253.956 846.623C254.427 846.933 254.978 847.088 255.61 847.088C256.242 847.088 256.794 846.933 257.264 846.623C257.735 846.314 258.1 845.859 258.357 845.259C258.619 844.659 258.749 843.923 258.749 843.05ZM274.698 843.05C274.698 844.398 274.442 845.545 273.931 846.491C273.424 847.436 272.732 848.159 271.854 848.658C270.981 849.153 269.999 849.4 268.908 849.4C267.809 849.4 266.823 849.151 265.95 848.652C265.077 848.153 264.386 847.43 263.879 846.485C263.372 845.539 263.119 844.394 263.119 843.05C263.119 841.701 263.372 840.554 263.879 839.609C264.386 838.663 265.077 837.942 265.95 837.447C266.823 836.948 267.809 836.699 268.908 836.699C269.999 836.699 270.981 836.948 271.854 837.447C272.732 837.942 273.424 838.663 273.931 839.609C274.442 840.554 274.698 841.701 274.698 843.05ZM272.047 843.05C272.047 842.176 271.917 841.44 271.655 840.84C271.397 840.24 271.033 839.786 270.562 839.476C270.091 839.166 269.54 839.011 268.908 839.011C268.276 839.011 267.725 839.166 267.254 839.476C266.783 839.786 266.417 840.24 266.155 840.84C265.898 841.44 265.769 842.176 265.769 843.05C265.769 843.923 265.898 844.659 266.155 845.259C266.417 845.859 266.783 846.314 267.254 846.623C267.725 846.933 268.276 847.088 268.908 847.088C269.54 847.088 270.091 846.933 270.562 846.623C271.033 846.314 271.397 845.859 271.655 845.259C271.917 844.659 272.047 843.923 272.047 843.05ZM276.634 836.868H279.858L283.262 845.175H283.407L286.812 836.868H290.036V849.231H287.5V841.184H287.398L284.198 849.171H282.472L279.272 841.154H279.169V849.231H276.634V836.868ZM253.142 870.4C252.506 870.396 251.892 870.29 251.301 870.081C250.713 869.871 250.186 869.531 249.719 869.06C249.252 868.589 248.882 867.966 248.608 867.189C248.339 866.412 248.204 865.458 248.204 864.327C248.208 863.289 248.326 862.361 248.56 861.544C248.797 860.723 249.135 860.027 249.574 859.456C250.017 858.884 250.546 858.449 251.162 858.152C251.778 857.85 252.468 857.699 253.232 857.699C254.058 857.699 254.786 857.86 255.418 858.182C256.05 858.5 256.557 858.932 256.939 859.48C257.326 860.027 257.559 860.641 257.639 861.321H255.062C254.961 860.89 254.75 860.552 254.428 860.307C254.106 860.061 253.707 859.938 253.232 859.938C252.428 859.938 251.816 860.289 251.397 860.989C250.983 861.689 250.771 862.641 250.763 863.844H250.848C251.033 863.478 251.283 863.166 251.596 862.909C251.914 862.647 252.275 862.448 252.677 862.311C253.084 862.17 253.512 862.1 253.963 862.1C254.695 862.1 255.347 862.273 255.919 862.619C256.49 862.961 256.941 863.432 257.271 864.032C257.601 864.631 257.766 865.317 257.766 866.09C257.766 866.927 257.571 867.672 257.181 868.324C256.794 868.976 256.253 869.487 255.557 869.857C254.864 870.223 254.06 870.405 253.142 870.4ZM253.13 868.348C253.532 868.348 253.893 868.251 254.21 868.058C254.528 867.865 254.778 867.603 254.959 867.273C255.14 866.943 255.231 866.573 255.231 866.163C255.231 865.752 255.14 865.384 254.959 865.058C254.782 864.732 254.536 864.472 254.223 864.279C253.909 864.086 253.55 863.989 253.148 863.989C252.846 863.989 252.566 864.046 252.309 864.158C252.055 864.271 251.832 864.428 251.639 864.629C251.45 864.83 251.301 865.064 251.192 865.329C251.083 865.591 251.029 865.871 251.029 866.169C251.029 866.567 251.12 866.931 251.301 867.261C251.486 867.591 251.735 867.855 252.049 868.052C252.367 868.249 252.727 868.348 253.13 868.348ZM264.467 870.503C263.429 870.499 262.535 870.244 261.787 869.736C261.042 869.229 260.469 868.495 260.066 867.533C259.668 866.571 259.471 865.414 259.475 864.062C259.475 862.713 259.674 861.564 260.072 860.615C260.475 859.665 261.048 858.942 261.793 858.447C262.541 857.948 263.433 857.699 264.467 857.699C265.502 857.699 266.391 857.948 267.136 858.447C267.884 858.946 268.46 859.671 268.862 860.621C269.265 861.566 269.464 862.713 269.46 864.062C269.46 865.418 269.259 866.577 268.856 867.539C268.458 868.501 267.886 869.235 267.142 869.742C266.397 870.25 265.506 870.503 264.467 870.503ZM264.467 868.336C265.176 868.336 265.741 867.98 266.164 867.267C266.586 866.555 266.795 865.486 266.791 864.062C266.791 863.124 266.695 862.343 266.502 861.719C266.313 861.096 266.043 860.627 265.693 860.313C265.347 859.999 264.938 859.842 264.467 859.842C263.763 859.842 263.199 860.194 262.777 860.898C262.354 861.603 262.141 862.657 262.137 864.062C262.137 865.012 262.232 865.804 262.421 866.44C262.614 867.072 262.886 867.547 263.236 867.865C263.586 868.179 263.996 868.336 264.467 868.336ZM275.894 870.4C274.992 870.4 274.189 870.246 273.485 869.936C272.785 869.622 272.231 869.191 271.825 868.644C271.422 868.092 271.215 867.456 271.203 866.736H273.835C273.851 867.038 273.95 867.304 274.131 867.533C274.316 867.758 274.561 867.933 274.867 868.058C275.173 868.183 275.517 868.245 275.9 868.245C276.298 868.245 276.65 868.175 276.956 868.034C277.262 867.893 277.501 867.698 277.675 867.448C277.848 867.199 277.934 866.911 277.934 866.585C277.934 866.255 277.842 865.963 277.656 865.71C277.475 865.452 277.214 865.251 276.872 865.106C276.534 864.961 276.131 864.889 275.664 864.889H274.511V862.969H275.664C276.059 862.969 276.407 862.901 276.709 862.764C277.014 862.627 277.252 862.438 277.421 862.196C277.59 861.951 277.675 861.665 277.675 861.339C277.675 861.029 277.6 860.757 277.451 860.524C277.306 860.287 277.101 860.101 276.835 859.969C276.574 859.836 276.268 859.769 275.918 859.769C275.564 859.769 275.24 859.834 274.946 859.963C274.652 860.087 274.417 860.266 274.239 860.5C274.062 860.733 273.968 861.007 273.956 861.321H271.45C271.463 860.609 271.666 859.981 272.06 859.437C272.455 858.894 272.986 858.469 273.654 858.164C274.326 857.854 275.085 857.699 275.93 857.699C276.783 857.699 277.53 857.854 278.17 858.164C278.809 858.474 279.306 858.892 279.661 859.419C280.019 859.943 280.196 860.53 280.192 861.182C280.196 861.874 279.981 862.452 279.546 862.915C279.115 863.378 278.554 863.671 277.862 863.796V863.893C278.771 864.009 279.463 864.325 279.938 864.84C280.417 865.352 280.655 865.992 280.651 866.76C280.655 867.465 280.452 868.09 280.041 868.638C279.635 869.185 279.073 869.616 278.357 869.93C277.64 870.244 276.819 870.4 275.894 870.4Z" fill="#4A5A62"/>
<path d="M931.465 573.554H804.683C802.478 573.554 800.69 575.193 800.69 577.216V688.9C800.69 690.923 802.478 692.562 804.683 692.562H931.465C933.67 692.562 935.458 690.923 935.458 688.9V577.216C935.458 575.193 933.67 573.554 931.465 573.554Z" fill="#CDD9DE" stroke="#8FA9B3" stroke-width="2"/>
<path d="M831.047 637.967V627.058H838.397V628.959H833.353V631.559H838.019V633.461H833.353V636.065H838.419V637.967H831.047ZM840.231 637.967V627.058H842.538V636.065H847.214V637.967H840.231ZM848.742 637.967V627.058H856.093V628.959H851.048V631.559H855.715V633.461H851.048V636.065H856.114V637.967H848.742ZM859.897 627.058L862.534 635.346H862.635L865.277 627.058H867.834L864.073 637.967H861.101L857.335 627.058H859.897ZM869.577 637.967H867.106L870.872 627.058H873.844L877.605 637.967H875.133L872.4 629.551H872.315L869.577 637.967ZM869.423 633.679H875.261V635.479H869.423V633.679ZM877.169 628.959V627.058H886.129V628.959H882.789V637.967H880.509V628.959H877.169ZM897.131 632.512C897.131 633.702 896.905 634.714 896.454 635.549C896.007 636.383 895.396 637.021 894.622 637.461C893.851 637.898 892.985 638.116 892.023 638.116C891.053 638.116 890.183 637.896 889.413 637.456C888.642 637.015 888.033 636.378 887.586 635.543C887.138 634.709 886.914 633.698 886.914 632.512C886.914 631.323 887.138 630.311 887.586 629.476C888.033 628.642 888.642 628.006 889.413 627.569C890.183 627.129 891.053 626.909 892.023 626.909C892.985 626.909 893.851 627.129 894.622 627.569C895.396 628.006 896.007 628.642 896.454 629.476C896.905 630.311 897.131 631.323 897.131 632.512ZM894.793 632.512C894.793 631.742 894.677 631.092 894.446 630.563C894.219 630.034 893.898 629.632 893.482 629.359C893.067 629.086 892.58 628.949 892.023 628.949C891.465 628.949 890.979 629.086 890.563 629.359C890.148 629.632 889.825 630.034 889.594 630.563C889.366 631.092 889.253 631.742 889.253 632.512C889.253 633.283 889.366 633.933 889.594 634.462C889.825 634.991 890.148 635.392 890.563 635.666C890.979 635.939 891.465 636.076 892.023 636.076C892.58 636.076 893.067 635.939 893.482 635.666C893.898 635.392 894.219 634.991 894.446 634.462C894.677 633.933 894.793 633.283 894.793 632.512ZM898.84 637.967V627.058H903.143C903.967 627.058 904.67 627.205 905.253 627.5C905.839 627.791 906.284 628.205 906.59 628.741C906.899 629.274 907.053 629.901 907.053 630.621C907.053 631.346 906.897 631.969 906.585 632.491C906.272 633.01 905.819 633.407 905.226 633.684C904.637 633.961 903.923 634.1 903.085 634.1H900.203V632.246H902.712C903.152 632.246 903.518 632.186 903.809 632.065C904.101 631.944 904.317 631.763 904.459 631.522C904.605 631.28 904.678 630.98 904.678 630.621C904.678 630.259 904.605 629.954 904.459 629.705C904.317 629.457 904.099 629.268 903.804 629.141C903.513 629.009 903.145 628.943 902.701 628.943H901.146V637.967H898.84ZM904.731 633.002L907.442 637.967H904.896L902.243 633.002H904.731Z" fill="#43606B"/>
<path d="M832.917 832.675C832.874 832.245 832.692 831.911 832.368 831.673C832.045 831.435 831.607 831.316 831.053 831.316C830.676 831.316 830.358 831.37 830.099 831.476C829.84 831.579 829.641 831.723 829.503 831.908C829.368 832.092 829.3 832.302 829.3 832.536C829.293 832.731 829.334 832.902 829.423 833.047C829.515 833.193 829.641 833.319 829.801 833.426C829.961 833.529 830.145 833.619 830.355 833.697C830.564 833.772 830.788 833.836 831.026 833.889L832.006 834.123C832.482 834.23 832.919 834.372 833.317 834.55C833.714 834.727 834.059 834.946 834.35 835.205C834.641 835.464 834.867 835.769 835.026 836.121C835.19 836.473 835.273 836.876 835.277 837.33C835.273 837.998 835.103 838.577 834.765 839.067C834.432 839.553 833.949 839.931 833.317 840.201C832.688 840.468 831.93 840.601 831.042 840.601C830.161 840.601 829.394 840.466 828.741 840.196C828.091 839.926 827.583 839.527 827.217 838.997C826.855 838.465 826.665 837.806 826.647 837.021H828.879C828.904 837.387 829.009 837.692 829.194 837.937C829.382 838.179 829.632 838.362 829.945 838.486C830.261 838.607 830.618 838.667 831.015 838.667C831.406 838.667 831.745 838.61 832.033 838.497C832.324 838.383 832.549 838.225 832.709 838.023C832.869 837.82 832.949 837.588 832.949 837.325C832.949 837.08 832.876 836.874 832.731 836.707C832.589 836.54 832.379 836.398 832.102 836.281C831.829 836.164 831.493 836.057 831.095 835.961L829.907 835.663C828.988 835.439 828.261 835.089 827.729 834.614C827.196 834.138 826.932 833.497 826.935 832.691C826.932 832.03 827.107 831.453 827.462 830.959C827.821 830.466 828.313 830.081 828.938 829.804C829.563 829.527 830.273 829.388 831.069 829.388C831.878 829.388 832.585 829.527 833.189 829.804C833.796 830.081 834.268 830.466 834.606 830.959C834.943 831.453 835.117 832.025 835.128 832.675H832.917ZM836.413 831.439V829.537H845.372V831.439H842.032V840.446H839.753V831.439H836.413ZM847.395 840.446H844.923L848.689 829.537H851.662L855.422 840.446H852.951L850.218 832.03H850.133L847.395 840.446ZM847.241 836.158H853.079V837.959H847.241V836.158ZM859.042 829.537V840.446H856.735V829.537H859.042ZM860.939 840.446V829.537H865.243C866.067 829.537 866.77 829.685 867.353 829.979C867.939 830.271 868.384 830.684 868.69 831.22C868.999 831.753 869.153 832.38 869.153 833.101C869.153 833.825 868.997 834.448 868.685 834.97C868.372 835.489 867.919 835.887 867.326 836.164C866.737 836.441 866.023 836.579 865.185 836.579H862.303V834.725H864.812C865.252 834.725 865.618 834.665 865.909 834.544C866.2 834.424 866.417 834.242 866.559 834.001C866.705 833.759 866.778 833.459 866.778 833.101C866.778 832.739 866.705 832.433 866.559 832.185C866.417 831.936 866.199 831.748 865.904 831.62C865.613 831.489 865.245 831.423 864.801 831.423H863.246V840.446H860.939ZM866.831 835.482L869.542 840.446H866.996L864.343 835.482H866.831ZM876.701 832.675C876.659 832.245 876.476 831.911 876.153 831.673C875.829 831.435 875.391 831.316 874.837 831.316C874.46 831.316 874.143 831.37 873.883 831.476C873.624 831.579 873.425 831.723 873.287 831.908C873.152 832.092 873.084 832.302 873.084 832.536C873.077 832.731 873.118 832.902 873.207 833.047C873.299 833.193 873.425 833.319 873.585 833.426C873.745 833.529 873.93 833.619 874.139 833.697C874.349 833.772 874.572 833.836 874.81 833.889L875.79 834.123C876.266 834.23 876.703 834.372 877.101 834.55C877.498 834.727 877.843 834.946 878.134 835.205C878.425 835.464 878.651 835.769 878.811 836.121C878.974 836.473 879.057 836.876 879.061 837.33C879.057 837.998 878.887 838.577 878.55 839.067C878.216 839.553 877.733 839.931 877.101 840.201C876.472 840.468 875.714 840.601 874.826 840.601C873.946 840.601 873.178 840.466 872.525 840.196C871.875 839.926 871.367 839.527 871.002 838.997C870.639 838.465 870.449 837.806 870.432 837.021H872.664C872.688 837.387 872.793 837.692 872.978 837.937C873.166 838.179 873.416 838.362 873.729 838.486C874.045 838.607 874.402 838.667 874.8 838.667C875.19 838.667 875.529 838.61 875.817 838.497C876.108 838.383 876.334 838.225 876.493 838.023C876.653 837.82 876.733 837.588 876.733 837.325C876.733 837.08 876.66 836.874 876.515 836.707C876.373 836.54 876.163 836.398 875.886 836.281C875.613 836.164 875.277 836.057 874.879 835.961L873.692 835.663C872.772 835.439 872.046 835.089 871.513 834.614C870.98 834.138 870.716 833.497 870.719 832.691C870.716 832.03 870.892 831.453 871.247 830.959C871.605 830.466 872.097 830.081 872.722 829.804C873.347 829.527 874.057 829.388 874.853 829.388C875.662 829.388 876.369 829.527 876.973 829.804C877.58 830.081 878.052 830.466 878.39 830.959C878.727 831.453 878.901 832.025 878.912 832.675H876.701Z" fill="#5A6D75"/>
</g>
<defs>
<clipPath id="clip0_551_164">
<rect width="1000" height="1400" fill="white"/>
</clipPath>
</defs>
</svg>
